<?xml version="1.0" encoding="utf-8" standalone="no"?>
<!DOCTYPE svg PUBLIC "-//W3C//DTD SVG 1.1//EN"
  "http://www.w3.org/Graphics/SVG/1.1/DTD/svg11.dtd">
<svg xmlns:xlink="http://www.w3.org/1999/xlink" width="460.8pt" height="345.6pt" viewBox="0 0 460.8 345.6" xmlns="http://www.w3.org/2000/svg" version="1.1">
 <metadata>
  <rdf:RDF xmlns:dc="http://purl.org/dc/elements/1.1/" xmlns:cc="http://creativecommons.org/ns#" xmlns:rdf="http://www.w3.org/1999/02/22-rdf-syntax-ns#">
   <cc:Work>
    <dc:type rdf:resource="http://purl.org/dc/dcmitype/StillImage"/>
    <dc:date>2022-12-27T18:34:48.918886</dc:date>
    <dc:format>image/svg+xml</dc:format>
    <dc:creator>
     <cc:Agent>
      <dc:title>Matplotlib v3.5.1, https://matplotlib.org/</dc:title>
     </cc:Agent>
    </dc:creator>
   </cc:Work>
  </rdf:RDF>
 </metadata>
 <defs>
  <style type="text/css">*{stroke-linejoin: round; stroke-linecap: butt}</style>
 </defs>
 <g id="figure_1">
  <g id="patch_1">
   <path d="M 0 345.6 
L 460.8 345.6 
L 460.8 0 
L 0 0 
z
" style="fill: #ffffff"/>
  </g>
  <g id="axes_1">
   <g id="patch_2">
    <path d="M 62.57 303.64 
L 391.84 303.64 
L 391.84 32.4 
L 62.57 32.4 
z
" style="fill: #ffffff"/>
   </g>
   <g id="matplotlib.axis_1">
    <g id="xtick_1">
     <g id="line2d_1">
      <path d="M 77.536818 303.64 
L 77.536818 32.4 
" clip-path="url(#p41a2805980)" style="fill: none; stroke: #b0b0b0; stroke-width: 0.8; stroke-linecap: square"/>
     </g>
     <g id="line2d_2">
      <defs>
       <path id="m48f1b467d7" d="M 0 0 
L 0 3.5 
" style="stroke: #000000; stroke-width: 0.8"/>
      </defs>
      <g>
       <use xlink:href="#m48f1b467d7" x="77.536818" y="303.64" style="stroke: #000000; stroke-width: 0.8"/>
      </g>
     </g>
     <g id="text_1">
      <!-- 0 -->
      <g transform="translate(74.355568 318.238437)scale(0.1 -0.1)">
       <defs>
        <path id="DejaVuSans-30" d="M 2034 4250 
Q 1547 4250 1301 3770 
Q 1056 3291 1056 2328 
Q 1056 1369 1301 889 
Q 1547 409 2034 409 
Q 2525 409 2770 889 
Q 3016 1369 3016 2328 
Q 3016 3291 2770 3770 
Q 2525 4250 2034 4250 
z
M 2034 4750 
Q 2819 4750 3233 4129 
Q 3647 3509 3647 2328 
Q 3647 1150 3233 529 
Q 2819 -91 2034 -91 
Q 1250 -91 836 529 
Q 422 1150 422 2328 
Q 422 3509 836 4129 
Q 1250 4750 2034 4750 
z
" transform="scale(0.015625)"/>
       </defs>
       <use xlink:href="#DejaVuSans-30"/>
      </g>
     </g>
    </g>
    <g id="xtick_2">
     <g id="line2d_3">
      <path d="M 127.426212 303.64 
L 127.426212 32.4 
" clip-path="url(#p41a2805980)" style="fill: none; stroke: #b0b0b0; stroke-width: 0.8; stroke-linecap: square"/>
     </g>
     <g id="line2d_4">
      <g>
       <use xlink:href="#m48f1b467d7" x="127.426212" y="303.64" style="stroke: #000000; stroke-width: 0.8"/>
      </g>
     </g>
     <g id="text_2">
      <!-- 1 -->
      <g transform="translate(124.244962 318.238437)scale(0.1 -0.1)">
       <defs>
        <path id="DejaVuSans-31" d="M 794 531 
L 1825 531 
L 1825 4091 
L 703 3866 
L 703 4441 
L 1819 4666 
L 2450 4666 
L 2450 531 
L 3481 531 
L 3481 0 
L 794 0 
L 794 531 
z
" transform="scale(0.015625)"/>
       </defs>
       <use xlink:href="#DejaVuSans-31"/>
      </g>
     </g>
    </g>
    <g id="xtick_3">
     <g id="line2d_5">
      <path d="M 177.315606 303.64 
L 177.315606 32.4 
" clip-path="url(#p41a2805980)" style="fill: none; stroke: #b0b0b0; stroke-width: 0.8; stroke-linecap: square"/>
     </g>
     <g id="line2d_6">
      <g>
       <use xlink:href="#m48f1b467d7" x="177.315606" y="303.64" style="stroke: #000000; stroke-width: 0.8"/>
      </g>
     </g>
     <g id="text_3">
      <!-- 2 -->
      <g transform="translate(174.134356 318.238437)scale(0.1 -0.1)">
       <defs>
        <path id="DejaVuSans-32" d="M 1228 531 
L 3431 531 
L 3431 0 
L 469 0 
L 469 531 
Q 828 903 1448 1529 
Q 2069 2156 2228 2338 
Q 2531 2678 2651 2914 
Q 2772 3150 2772 3378 
Q 2772 3750 2511 3984 
Q 2250 4219 1831 4219 
Q 1534 4219 1204 4116 
Q 875 4013 500 3803 
L 500 4441 
Q 881 4594 1212 4672 
Q 1544 4750 1819 4750 
Q 2544 4750 2975 4387 
Q 3406 4025 3406 3419 
Q 3406 3131 3298 2873 
Q 3191 2616 2906 2266 
Q 2828 2175 2409 1742 
Q 1991 1309 1228 531 
z
" transform="scale(0.015625)"/>
       </defs>
       <use xlink:href="#DejaVuSans-32"/>
      </g>
     </g>
    </g>
    <g id="xtick_4">
     <g id="line2d_7">
      <path d="M 227.205 303.64 
L 227.205 32.4 
" clip-path="url(#p41a2805980)" style="fill: none; stroke: #b0b0b0; stroke-width: 0.8; stroke-linecap: square"/>
     </g>
     <g id="line2d_8">
      <g>
       <use xlink:href="#m48f1b467d7" x="227.205" y="303.64" style="stroke: #000000; stroke-width: 0.8"/>
      </g>
     </g>
     <g id="text_4">
      <!-- 3 -->
      <g transform="translate(224.02375 318.238437)scale(0.1 -0.1)">
       <defs>
        <path id="DejaVuSans-33" d="M 2597 2516 
Q 3050 2419 3304 2112 
Q 3559 1806 3559 1356 
Q 3559 666 3084 287 
Q 2609 -91 1734 -91 
Q 1441 -91 1130 -33 
Q 819 25 488 141 
L 488 750 
Q 750 597 1062 519 
Q 1375 441 1716 441 
Q 2309 441 2620 675 
Q 2931 909 2931 1356 
Q 2931 1769 2642 2001 
Q 2353 2234 1838 2234 
L 1294 2234 
L 1294 2753 
L 1863 2753 
Q 2328 2753 2575 2939 
Q 2822 3125 2822 3475 
Q 2822 3834 2567 4026 
Q 2313 4219 1838 4219 
Q 1578 4219 1281 4162 
Q 984 4106 628 3988 
L 628 4550 
Q 988 4650 1302 4700 
Q 1616 4750 1894 4750 
Q 2613 4750 3031 4423 
Q 3450 4097 3450 3541 
Q 3450 3153 3228 2886 
Q 3006 2619 2597 2516 
z
" transform="scale(0.015625)"/>
       </defs>
       <use xlink:href="#DejaVuSans-33"/>
      </g>
     </g>
    </g>
    <g id="xtick_5">
     <g id="line2d_9">
      <path d="M 277.094394 303.64 
L 277.094394 32.4 
" clip-path="url(#p41a2805980)" style="fill: none; stroke: #b0b0b0; stroke-width: 0.8; stroke-linecap: square"/>
     </g>
     <g id="line2d_10">
      <g>
       <use xlink:href="#m48f1b467d7" x="277.094394" y="303.64" style="stroke: #000000; stroke-width: 0.8"/>
      </g>
     </g>
     <g id="text_5">
      <!-- 4 -->
      <g transform="translate(273.913144 318.238437)scale(0.1 -0.1)">
       <defs>
        <path id="DejaVuSans-34" d="M 2419 4116 
L 825 1625 
L 2419 1625 
L 2419 4116 
z
M 2253 4666 
L 3047 4666 
L 3047 1625 
L 3713 1625 
L 3713 1100 
L 3047 1100 
L 3047 0 
L 2419 0 
L 2419 1100 
L 313 1100 
L 313 1709 
L 2253 4666 
z
" transform="scale(0.015625)"/>
       </defs>
       <use xlink:href="#DejaVuSans-34"/>
      </g>
     </g>
    </g>
    <g id="xtick_6">
     <g id="line2d_11">
      <path d="M 326.983788 303.64 
L 326.983788 32.4 
" clip-path="url(#p41a2805980)" style="fill: none; stroke: #b0b0b0; stroke-width: 0.8; stroke-linecap: square"/>
     </g>
     <g id="line2d_12">
      <g>
       <use xlink:href="#m48f1b467d7" x="326.983788" y="303.64" style="stroke: #000000; stroke-width: 0.8"/>
      </g>
     </g>
     <g id="text_6">
      <!-- 5 -->
      <g transform="translate(323.802538 318.238437)scale(0.1 -0.1)">
       <defs>
        <path id="DejaVuSans-35" d="M 691 4666 
L 3169 4666 
L 3169 4134 
L 1269 4134 
L 1269 2991 
Q 1406 3038 1543 3061 
Q 1681 3084 1819 3084 
Q 2600 3084 3056 2656 
Q 3513 2228 3513 1497 
Q 3513 744 3044 326 
Q 2575 -91 1722 -91 
Q 1428 -91 1123 -41 
Q 819 9 494 109 
L 494 744 
Q 775 591 1075 516 
Q 1375 441 1709 441 
Q 2250 441 2565 725 
Q 2881 1009 2881 1497 
Q 2881 1984 2565 2268 
Q 2250 2553 1709 2553 
Q 1456 2553 1204 2497 
Q 953 2441 691 2322 
L 691 4666 
z
" transform="scale(0.015625)"/>
       </defs>
       <use xlink:href="#DejaVuSans-35"/>
      </g>
     </g>
    </g>
    <g id="xtick_7">
     <g id="line2d_13">
      <path d="M 376.873182 303.64 
L 376.873182 32.4 
" clip-path="url(#p41a2805980)" style="fill: none; stroke: #b0b0b0; stroke-width: 0.8; stroke-linecap: square"/>
     </g>
     <g id="line2d_14">
      <g>
       <use xlink:href="#m48f1b467d7" x="376.873182" y="303.64" style="stroke: #000000; stroke-width: 0.8"/>
      </g>
     </g>
     <g id="text_7">
      <!-- 6 -->
      <g transform="translate(373.691932 318.238437)scale(0.1 -0.1)">
       <defs>
        <path id="DejaVuSans-36" d="M 2113 2584 
Q 1688 2584 1439 2293 
Q 1191 2003 1191 1497 
Q 1191 994 1439 701 
Q 1688 409 2113 409 
Q 2538 409 2786 701 
Q 3034 994 3034 1497 
Q 3034 2003 2786 2293 
Q 2538 2584 2113 2584 
z
M 3366 4563 
L 3366 3988 
Q 3128 4100 2886 4159 
Q 2644 4219 2406 4219 
Q 1781 4219 1451 3797 
Q 1122 3375 1075 2522 
Q 1259 2794 1537 2939 
Q 1816 3084 2150 3084 
Q 2853 3084 3261 2657 
Q 3669 2231 3669 1497 
Q 3669 778 3244 343 
Q 2819 -91 2113 -91 
Q 1303 -91 875 529 
Q 447 1150 447 2328 
Q 447 3434 972 4092 
Q 1497 4750 2381 4750 
Q 2619 4750 2861 4703 
Q 3103 4656 3366 4563 
z
" transform="scale(0.015625)"/>
       </defs>
       <use xlink:href="#DejaVuSans-36"/>
      </g>
     </g>
    </g>
    <g id="text_8">
     <!-- temps en s -->
     <g transform="translate(199.490938 331.916562)scale(0.1 -0.1)">
      <defs>
       <path id="DejaVuSans-74" d="M 1172 4494 
L 1172 3500 
L 2356 3500 
L 2356 3053 
L 1172 3053 
L 1172 1153 
Q 1172 725 1289 603 
Q 1406 481 1766 481 
L 2356 481 
L 2356 0 
L 1766 0 
Q 1100 0 847 248 
Q 594 497 594 1153 
L 594 3053 
L 172 3053 
L 172 3500 
L 594 3500 
L 594 4494 
L 1172 4494 
z
" transform="scale(0.015625)"/>
       <path id="DejaVuSans-65" d="M 3597 1894 
L 3597 1613 
L 953 1613 
Q 991 1019 1311 708 
Q 1631 397 2203 397 
Q 2534 397 2845 478 
Q 3156 559 3463 722 
L 3463 178 
Q 3153 47 2828 -22 
Q 2503 -91 2169 -91 
Q 1331 -91 842 396 
Q 353 884 353 1716 
Q 353 2575 817 3079 
Q 1281 3584 2069 3584 
Q 2775 3584 3186 3129 
Q 3597 2675 3597 1894 
z
M 3022 2063 
Q 3016 2534 2758 2815 
Q 2500 3097 2075 3097 
Q 1594 3097 1305 2825 
Q 1016 2553 972 2059 
L 3022 2063 
z
" transform="scale(0.015625)"/>
       <path id="DejaVuSans-6d" d="M 3328 2828 
Q 3544 3216 3844 3400 
Q 4144 3584 4550 3584 
Q 5097 3584 5394 3201 
Q 5691 2819 5691 2113 
L 5691 0 
L 5113 0 
L 5113 2094 
Q 5113 2597 4934 2840 
Q 4756 3084 4391 3084 
Q 3944 3084 3684 2787 
Q 3425 2491 3425 1978 
L 3425 0 
L 2847 0 
L 2847 2094 
Q 2847 2600 2669 2842 
Q 2491 3084 2119 3084 
Q 1678 3084 1418 2786 
Q 1159 2488 1159 1978 
L 1159 0 
L 581 0 
L 581 3500 
L 1159 3500 
L 1159 2956 
Q 1356 3278 1631 3431 
Q 1906 3584 2284 3584 
Q 2666 3584 2933 3390 
Q 3200 3197 3328 2828 
z
" transform="scale(0.015625)"/>
       <path id="DejaVuSans-70" d="M 1159 525 
L 1159 -1331 
L 581 -1331 
L 581 3500 
L 1159 3500 
L 1159 2969 
Q 1341 3281 1617 3432 
Q 1894 3584 2278 3584 
Q 2916 3584 3314 3078 
Q 3713 2572 3713 1747 
Q 3713 922 3314 415 
Q 2916 -91 2278 -91 
Q 1894 -91 1617 61 
Q 1341 213 1159 525 
z
M 3116 1747 
Q 3116 2381 2855 2742 
Q 2594 3103 2138 3103 
Q 1681 3103 1420 2742 
Q 1159 2381 1159 1747 
Q 1159 1113 1420 752 
Q 1681 391 2138 391 
Q 2594 391 2855 752 
Q 3116 1113 3116 1747 
z
" transform="scale(0.015625)"/>
       <path id="DejaVuSans-73" d="M 2834 3397 
L 2834 2853 
Q 2591 2978 2328 3040 
Q 2066 3103 1784 3103 
Q 1356 3103 1142 2972 
Q 928 2841 928 2578 
Q 928 2378 1081 2264 
Q 1234 2150 1697 2047 
L 1894 2003 
Q 2506 1872 2764 1633 
Q 3022 1394 3022 966 
Q 3022 478 2636 193 
Q 2250 -91 1575 -91 
Q 1294 -91 989 -36 
Q 684 19 347 128 
L 347 722 
Q 666 556 975 473 
Q 1284 391 1588 391 
Q 1994 391 2212 530 
Q 2431 669 2431 922 
Q 2431 1156 2273 1281 
Q 2116 1406 1581 1522 
L 1381 1569 
Q 847 1681 609 1914 
Q 372 2147 372 2553 
Q 372 3047 722 3315 
Q 1072 3584 1716 3584 
Q 2034 3584 2315 3537 
Q 2597 3491 2834 3397 
z
" transform="scale(0.015625)"/>
       <path id="DejaVuSans-20" transform="scale(0.015625)"/>
       <path id="DejaVuSans-6e" d="M 3513 2113 
L 3513 0 
L 2938 0 
L 2938 2094 
Q 2938 2591 2744 2837 
Q 2550 3084 2163 3084 
Q 1697 3084 1428 2787 
Q 1159 2491 1159 1978 
L 1159 0 
L 581 0 
L 581 3500 
L 1159 3500 
L 1159 2956 
Q 1366 3272 1645 3428 
Q 1925 3584 2291 3584 
Q 2894 3584 3203 3211 
Q 3513 2838 3513 2113 
z
" transform="scale(0.015625)"/>
      </defs>
      <use xlink:href="#DejaVuSans-74"/>
      <use xlink:href="#DejaVuSans-65" x="39.208984"/>
      <use xlink:href="#DejaVuSans-6d" x="100.732422"/>
      <use xlink:href="#DejaVuSans-70" x="198.144531"/>
      <use xlink:href="#DejaVuSans-73" x="261.621094"/>
      <use xlink:href="#DejaVuSans-20" x="313.720703"/>
      <use xlink:href="#DejaVuSans-65" x="345.507812"/>
      <use xlink:href="#DejaVuSans-6e" x="407.03125"/>
      <use xlink:href="#DejaVuSans-20" x="470.410156"/>
      <use xlink:href="#DejaVuSans-73" x="502.197266"/>
     </g>
    </g>
    <g id="text_9">
     <!-- 1e−6 -->
     <g transform="translate(364.582188 330.916562)scale(0.1 -0.1)">
      <defs>
       <path id="DejaVuSans-2212" d="M 678 2272 
L 4684 2272 
L 4684 1741 
L 678 1741 
L 678 2272 
z
" transform="scale(0.015625)"/>
      </defs>
      <use xlink:href="#DejaVuSans-31"/>
      <use xlink:href="#DejaVuSans-65" x="63.623047"/>
      <use xlink:href="#DejaVuSans-2212" x="125.146484"/>
      <use xlink:href="#DejaVuSans-36" x="208.935547"/>
     </g>
    </g>
   </g>
   <g id="matplotlib.axis_2">
    <g id="ytick_1">
     <g id="line2d_15">
      <path d="M 62.57 293.904644 
L 391.84 293.904644 
" clip-path="url(#p41a2805980)" style="fill: none; stroke: #b0b0b0; stroke-width: 0.8; stroke-linecap: square"/>
     </g>
     <g id="line2d_16">
      <defs>
       <path id="m62224c6da8" d="M 0 0 
L -3.5 0 
" style="stroke: #000000; stroke-width: 0.8"/>
      </defs>
      <g>
       <use xlink:href="#m62224c6da8" x="62.57" y="293.904644" style="stroke: #000000; stroke-width: 0.8"/>
      </g>
     </g>
     <g id="text_10">
      <!-- −1.00 -->
      <g style="fill: #d62728" transform="translate(24.924688 297.703863)scale(0.1 -0.1)">
       <defs>
        <path id="DejaVuSans-2e" d="M 684 794 
L 1344 794 
L 1344 0 
L 684 0 
L 684 794 
z
" transform="scale(0.015625)"/>
       </defs>
       <use xlink:href="#DejaVuSans-2212"/>
       <use xlink:href="#DejaVuSans-31" x="83.789062"/>
       <use xlink:href="#DejaVuSans-2e" x="147.412109"/>
       <use xlink:href="#DejaVuSans-30" x="179.199219"/>
       <use xlink:href="#DejaVuSans-30" x="242.822266"/>
      </g>
     </g>
    </g>
    <g id="ytick_2">
     <g id="line2d_17">
      <path d="M 62.57 262.439153 
L 391.84 262.439153 
" clip-path="url(#p41a2805980)" style="fill: none; stroke: #b0b0b0; stroke-width: 0.8; stroke-linecap: square"/>
     </g>
     <g id="line2d_18">
      <g>
       <use xlink:href="#m62224c6da8" x="62.57" y="262.439153" style="stroke: #000000; stroke-width: 0.8"/>
      </g>
     </g>
     <g id="text_11">
      <!-- −0.75 -->
      <g style="fill: #d62728" transform="translate(24.924688 266.238371)scale(0.1 -0.1)">
       <defs>
        <path id="DejaVuSans-37" d="M 525 4666 
L 3525 4666 
L 3525 4397 
L 1831 0 
L 1172 0 
L 2766 4134 
L 525 4134 
L 525 4666 
z
" transform="scale(0.015625)"/>
       </defs>
       <use xlink:href="#DejaVuSans-2212"/>
       <use xlink:href="#DejaVuSans-30" x="83.789062"/>
       <use xlink:href="#DejaVuSans-2e" x="147.412109"/>
       <use xlink:href="#DejaVuSans-37" x="179.199219"/>
       <use xlink:href="#DejaVuSans-35" x="242.822266"/>
      </g>
     </g>
    </g>
    <g id="ytick_3">
     <g id="line2d_19">
      <path d="M 62.57 230.973661 
L 391.84 230.973661 
" clip-path="url(#p41a2805980)" style="fill: none; stroke: #b0b0b0; stroke-width: 0.8; stroke-linecap: square"/>
     </g>
     <g id="line2d_20">
      <g>
       <use xlink:href="#m62224c6da8" x="62.57" y="230.973661" style="stroke: #000000; stroke-width: 0.8"/>
      </g>
     </g>
     <g id="text_12">
      <!-- −0.50 -->
      <g style="fill: #d62728" transform="translate(24.924688 234.77288)scale(0.1 -0.1)">
       <use xlink:href="#DejaVuSans-2212"/>
       <use xlink:href="#DejaVuSans-30" x="83.789062"/>
       <use xlink:href="#DejaVuSans-2e" x="147.412109"/>
       <use xlink:href="#DejaVuSans-35" x="179.199219"/>
       <use xlink:href="#DejaVuSans-30" x="242.822266"/>
      </g>
     </g>
    </g>
    <g id="ytick_4">
     <g id="line2d_21">
      <path d="M 62.57 199.50817 
L 391.84 199.50817 
" clip-path="url(#p41a2805980)" style="fill: none; stroke: #b0b0b0; stroke-width: 0.8; stroke-linecap: square"/>
     </g>
     <g id="line2d_22">
      <g>
       <use xlink:href="#m62224c6da8" x="62.57" y="199.50817" style="stroke: #000000; stroke-width: 0.8"/>
      </g>
     </g>
     <g id="text_13">
      <!-- −0.25 -->
      <g style="fill: #d62728" transform="translate(24.924688 203.307388)scale(0.1 -0.1)">
       <use xlink:href="#DejaVuSans-2212"/>
       <use xlink:href="#DejaVuSans-30" x="83.789062"/>
       <use xlink:href="#DejaVuSans-2e" x="147.412109"/>
       <use xlink:href="#DejaVuSans-32" x="179.199219"/>
       <use xlink:href="#DejaVuSans-35" x="242.822266"/>
      </g>
     </g>
    </g>
    <g id="ytick_5">
     <g id="line2d_23">
      <path d="M 62.57 168.042678 
L 391.84 168.042678 
" clip-path="url(#p41a2805980)" style="fill: none; stroke: #b0b0b0; stroke-width: 0.8; stroke-linecap: square"/>
     </g>
     <g id="line2d_24">
      <g>
       <use xlink:href="#m62224c6da8" x="62.57" y="168.042678" style="stroke: #000000; stroke-width: 0.8"/>
      </g>
     </g>
     <g id="text_14">
      <!-- 0.00 -->
      <g style="fill: #d62728" transform="translate(33.304375 171.841897)scale(0.1 -0.1)">
       <use xlink:href="#DejaVuSans-30"/>
       <use xlink:href="#DejaVuSans-2e" x="63.623047"/>
       <use xlink:href="#DejaVuSans-30" x="95.410156"/>
       <use xlink:href="#DejaVuSans-30" x="159.033203"/>
      </g>
     </g>
    </g>
    <g id="ytick_6">
     <g id="line2d_25">
      <path d="M 62.57 136.577187 
L 391.84 136.577187 
" clip-path="url(#p41a2805980)" style="fill: none; stroke: #b0b0b0; stroke-width: 0.8; stroke-linecap: square"/>
     </g>
     <g id="line2d_26">
      <g>
       <use xlink:href="#m62224c6da8" x="62.57" y="136.577187" style="stroke: #000000; stroke-width: 0.8"/>
      </g>
     </g>
     <g id="text_15">
      <!-- 0.25 -->
      <g style="fill: #d62728" transform="translate(33.304375 140.376405)scale(0.1 -0.1)">
       <use xlink:href="#DejaVuSans-30"/>
       <use xlink:href="#DejaVuSans-2e" x="63.623047"/>
       <use xlink:href="#DejaVuSans-32" x="95.410156"/>
       <use xlink:href="#DejaVuSans-35" x="159.033203"/>
      </g>
     </g>
    </g>
    <g id="ytick_7">
     <g id="line2d_27">
      <path d="M 62.57 105.111695 
L 391.84 105.111695 
" clip-path="url(#p41a2805980)" style="fill: none; stroke: #b0b0b0; stroke-width: 0.8; stroke-linecap: square"/>
     </g>
     <g id="line2d_28">
      <g>
       <use xlink:href="#m62224c6da8" x="62.57" y="105.111695" style="stroke: #000000; stroke-width: 0.8"/>
      </g>
     </g>
     <g id="text_16">
      <!-- 0.50 -->
      <g style="fill: #d62728" transform="translate(33.304375 108.910914)scale(0.1 -0.1)">
       <use xlink:href="#DejaVuSans-30"/>
       <use xlink:href="#DejaVuSans-2e" x="63.623047"/>
       <use xlink:href="#DejaVuSans-35" x="95.410156"/>
       <use xlink:href="#DejaVuSans-30" x="159.033203"/>
      </g>
     </g>
    </g>
    <g id="ytick_8">
     <g id="line2d_29">
      <path d="M 62.57 73.646204 
L 391.84 73.646204 
" clip-path="url(#p41a2805980)" style="fill: none; stroke: #b0b0b0; stroke-width: 0.8; stroke-linecap: square"/>
     </g>
     <g id="line2d_30">
      <g>
       <use xlink:href="#m62224c6da8" x="62.57" y="73.646204" style="stroke: #000000; stroke-width: 0.8"/>
      </g>
     </g>
     <g id="text_17">
      <!-- 0.75 -->
      <g style="fill: #d62728" transform="translate(33.304375 77.445422)scale(0.1 -0.1)">
       <use xlink:href="#DejaVuSans-30"/>
       <use xlink:href="#DejaVuSans-2e" x="63.623047"/>
       <use xlink:href="#DejaVuSans-37" x="95.410156"/>
       <use xlink:href="#DejaVuSans-35" x="159.033203"/>
      </g>
     </g>
    </g>
    <g id="ytick_9">
     <g id="line2d_31">
      <path d="M 62.57 42.180712 
L 391.84 42.180712 
" clip-path="url(#p41a2805980)" style="fill: none; stroke: #b0b0b0; stroke-width: 0.8; stroke-linecap: square"/>
     </g>
     <g id="line2d_32">
      <g>
       <use xlink:href="#m62224c6da8" x="62.57" y="42.180712" style="stroke: #000000; stroke-width: 0.8"/>
      </g>
     </g>
     <g id="text_18">
      <!-- 1.00 -->
      <g style="fill: #d62728" transform="translate(33.304375 45.979931)scale(0.1 -0.1)">
       <use xlink:href="#DejaVuSans-31"/>
       <use xlink:href="#DejaVuSans-2e" x="63.623047"/>
       <use xlink:href="#DejaVuSans-30" x="95.410156"/>
       <use xlink:href="#DejaVuSans-30" x="159.033203"/>
      </g>
     </g>
    </g>
    <g id="text_19">
     <!-- e(t) en V -->
     <g style="fill: #d62728" transform="translate(18.845 189.802031)rotate(-90)scale(0.1 -0.1)">
      <defs>
       <path id="DejaVuSans-28" d="M 1984 4856 
Q 1566 4138 1362 3434 
Q 1159 2731 1159 2009 
Q 1159 1288 1364 580 
Q 1569 -128 1984 -844 
L 1484 -844 
Q 1016 -109 783 600 
Q 550 1309 550 2009 
Q 550 2706 781 3412 
Q 1013 4119 1484 4856 
L 1984 4856 
z
" transform="scale(0.015625)"/>
       <path id="DejaVuSans-29" d="M 513 4856 
L 1013 4856 
Q 1481 4119 1714 3412 
Q 1947 2706 1947 2009 
Q 1947 1309 1714 600 
Q 1481 -109 1013 -844 
L 513 -844 
Q 928 -128 1133 580 
Q 1338 1288 1338 2009 
Q 1338 2731 1133 3434 
Q 928 4138 513 4856 
z
" transform="scale(0.015625)"/>
       <path id="DejaVuSans-56" d="M 1831 0 
L 50 4666 
L 709 4666 
L 2188 738 
L 3669 4666 
L 4325 4666 
L 2547 0 
L 1831 0 
z
" transform="scale(0.015625)"/>
      </defs>
      <use xlink:href="#DejaVuSans-65"/>
      <use xlink:href="#DejaVuSans-28" x="61.523438"/>
      <use xlink:href="#DejaVuSans-74" x="100.537109"/>
      <use xlink:href="#DejaVuSans-29" x="139.746094"/>
      <use xlink:href="#DejaVuSans-20" x="178.759766"/>
      <use xlink:href="#DejaVuSans-65" x="210.546875"/>
      <use xlink:href="#DejaVuSans-6e" x="272.070312"/>
      <use xlink:href="#DejaVuSans-20" x="335.449219"/>
      <use xlink:href="#DejaVuSans-56" x="367.236328"/>
     </g>
    </g>
   </g>
   <g id="line2d_33">
    <path d="M 77.536818 44.729091 
L 77.836454 44.909981 
L 78.13609 45.444172 
L 78.735362 47.459389 
L 79.63427 52.126042 
L 81.432086 62.299751 
L 89.821894 104.107807 
L 92.518618 117.781546 
L 95.215342 131.411643 
L 97.912066 144.923729 
L 100.60879 158.682436 
L 106.901146 190.426176 
L 110.496778 208.580321 
L 113.193502 221.955716 
L 115.890226 235.879131 
L 122.482218 268.834487 
L 123.980398 276.135469 
L 126.377486 289.235497 
L 126.976758 290.951261 
L 127.276394 291.310909 
L 127.57603 291.310909 
L 127.875666 290.951261 
L 128.175302 290.248741 
L 128.774574 287.956374 
L 129.673482 283.0814 
L 131.471298 273.040145 
L 135.366566 253.73961 
L 137.164382 244.677804 
L 139.56147 232.765353 
L 142.55783 217.577244 
L 144.954918 205.456075 
L 147.651642 191.894698 
L 150.348366 178.177585 
L 153.644362 161.744174 
L 167.727254 90.688812 
L 169.52507 81.543749 
L 171.622522 70.700122 
L 174.01961 59.127345 
L 176.117062 47.459389 
L 176.716334 45.444172 
L 177.01597 44.909981 
L 177.315606 44.729091 
L 177.615242 44.909981 
L 177.914878 45.444172 
L 178.51415 47.459389 
L 179.413058 52.126042 
L 181.210874 62.299751 
L 189.600682 104.107807 
L 192.297406 117.781546 
L 194.99413 131.411643 
L 197.690854 144.923729 
L 200.387578 158.682436 
L 206.679934 190.426176 
L 210.275566 208.580321 
L 212.97229 221.955716 
L 215.669014 235.879131 
L 222.261006 268.834487 
L 223.759186 276.135469 
L 226.156274 289.235497 
L 226.755546 290.951261 
L 227.055182 291.310909 
L 227.354818 291.310909 
L 227.654454 290.951261 
L 227.95409 290.248741 
L 228.553362 287.956374 
L 229.45227 283.0814 
L 231.250086 273.040145 
L 235.145354 253.73961 
L 236.94317 244.677804 
L 239.340258 232.765353 
L 242.336618 217.577244 
L 244.733706 205.456075 
L 247.43043 191.894698 
L 250.127154 178.177585 
L 253.42315 161.744174 
L 267.506042 90.688812 
L 269.303858 81.543749 
L 271.40131 70.700122 
L 273.798398 59.127345 
L 275.89585 47.459389 
L 276.495122 45.444172 
L 276.794758 44.909981 
L 277.094394 44.729091 
L 277.39403 44.909981 
L 277.693666 45.444172 
L 278.292938 47.459389 
L 279.191846 52.126042 
L 280.989662 62.299751 
L 289.37947 104.107807 
L 292.076194 117.781546 
L 294.772918 131.411643 
L 297.469642 144.923729 
L 300.166366 158.682436 
L 306.458722 190.426176 
L 310.054354 208.580321 
L 312.751078 221.955716 
L 315.447802 235.879131 
L 322.039794 268.834487 
L 323.537974 276.135469 
L 325.935062 289.235497 
L 326.534334 290.951261 
L 326.83397 291.310909 
L 327.133606 291.310909 
L 327.433242 290.951261 
L 327.732878 290.248741 
L 328.33215 287.956374 
L 329.231058 283.0814 
L 331.028874 273.040145 
L 334.924142 253.73961 
L 336.721958 244.677804 
L 339.119046 232.765353 
L 342.115406 217.577244 
L 344.512494 205.456075 
L 347.209218 191.894698 
L 349.905942 178.177585 
L 353.201938 161.744174 
L 367.28483 90.688812 
L 369.082646 81.543749 
L 371.180098 70.700122 
L 373.577186 59.127345 
L 375.674638 47.459389 
L 376.27391 45.444172 
L 376.573546 44.909981 
L 376.873182 44.729091 
L 376.873182 44.729091 
" clip-path="url(#p41a2805980)" style="fill: none; stroke: #ff0000; stroke-width: 1.5; stroke-linecap: square"/>
   </g>
   <g id="patch_3">
    <path d="M 62.57 303.64 
L 62.57 32.4 
" style="fill: none; stroke: #000000; stroke-width: 0.8; stroke-linejoin: miter; stroke-linecap: square"/>
   </g>
   <g id="patch_4">
    <path d="M 391.84 303.64 
L 391.84 32.4 
" style="fill: none; stroke: #000000; stroke-width: 0.8; stroke-linejoin: miter; stroke-linecap: square"/>
   </g>
   <g id="patch_5">
    <path d="M 62.57 303.64 
L 391.84 303.64 
" style="fill: none; stroke: #000000; stroke-width: 0.8; stroke-linejoin: miter; stroke-linecap: square"/>
   </g>
   <g id="patch_6">
    <path d="M 62.57 32.4 
L 391.84 32.4 
" style="fill: none; stroke: #000000; stroke-width: 0.8; stroke-linejoin: miter; stroke-linecap: square"/>
   </g>
  </g>
  <g id="axes_2">
   <g id="matplotlib.axis_3">
    <g id="ytick_10">
     <g id="line2d_34">
      <defs>
       <path id="m5978b92c79" d="M 0 0 
L 3.5 0 
" style="stroke: #000000; stroke-width: 0.8"/>
      </defs>
      <g>
       <use xlink:href="#m5978b92c79" x="391.84" y="293.616112" style="stroke: #000000; stroke-width: 0.8"/>
      </g>
     </g>
     <g id="text_20">
      <!-- −0.008 -->
      <g style="fill: #1f77b4" transform="translate(398.84 297.415331)scale(0.1 -0.1)">
       <defs>
        <path id="DejaVuSans-38" d="M 2034 2216 
Q 1584 2216 1326 1975 
Q 1069 1734 1069 1313 
Q 1069 891 1326 650 
Q 1584 409 2034 409 
Q 2484 409 2743 651 
Q 3003 894 3003 1313 
Q 3003 1734 2745 1975 
Q 2488 2216 2034 2216 
z
M 1403 2484 
Q 997 2584 770 2862 
Q 544 3141 544 3541 
Q 544 4100 942 4425 
Q 1341 4750 2034 4750 
Q 2731 4750 3128 4425 
Q 3525 4100 3525 3541 
Q 3525 3141 3298 2862 
Q 3072 2584 2669 2484 
Q 3125 2378 3379 2068 
Q 3634 1759 3634 1313 
Q 3634 634 3220 271 
Q 2806 -91 2034 -91 
Q 1263 -91 848 271 
Q 434 634 434 1313 
Q 434 1759 690 2068 
Q 947 2378 1403 2484 
z
M 1172 3481 
Q 1172 3119 1398 2916 
Q 1625 2713 2034 2713 
Q 2441 2713 2670 2916 
Q 2900 3119 2900 3481 
Q 2900 3844 2670 4047 
Q 2441 4250 2034 4250 
Q 1625 4250 1398 4047 
Q 1172 3844 1172 3481 
z
" transform="scale(0.015625)"/>
       </defs>
       <use xlink:href="#DejaVuSans-2212"/>
       <use xlink:href="#DejaVuSans-30" x="83.789062"/>
       <use xlink:href="#DejaVuSans-2e" x="147.412109"/>
       <use xlink:href="#DejaVuSans-30" x="179.199219"/>
       <use xlink:href="#DejaVuSans-30" x="242.822266"/>
       <use xlink:href="#DejaVuSans-38" x="306.445312"/>
      </g>
     </g>
    </g>
    <g id="ytick_11">
     <g id="line2d_35">
      <g>
       <use xlink:href="#m5978b92c79" x="391.84" y="262.216707" style="stroke: #000000; stroke-width: 0.8"/>
      </g>
     </g>
     <g id="text_21">
      <!-- −0.006 -->
      <g style="fill: #1f77b4" transform="translate(398.84 266.015926)scale(0.1 -0.1)">
       <use xlink:href="#DejaVuSans-2212"/>
       <use xlink:href="#DejaVuSans-30" x="83.789062"/>
       <use xlink:href="#DejaVuSans-2e" x="147.412109"/>
       <use xlink:href="#DejaVuSans-30" x="179.199219"/>
       <use xlink:href="#DejaVuSans-30" x="242.822266"/>
       <use xlink:href="#DejaVuSans-36" x="306.445312"/>
      </g>
     </g>
    </g>
    <g id="ytick_12">
     <g id="line2d_36">
      <g>
       <use xlink:href="#m5978b92c79" x="391.84" y="230.817302" style="stroke: #000000; stroke-width: 0.8"/>
      </g>
     </g>
     <g id="text_22">
      <!-- −0.004 -->
      <g style="fill: #1f77b4" transform="translate(398.84 234.616521)scale(0.1 -0.1)">
       <use xlink:href="#DejaVuSans-2212"/>
       <use xlink:href="#DejaVuSans-30" x="83.789062"/>
       <use xlink:href="#DejaVuSans-2e" x="147.412109"/>
       <use xlink:href="#DejaVuSans-30" x="179.199219"/>
       <use xlink:href="#DejaVuSans-30" x="242.822266"/>
       <use xlink:href="#DejaVuSans-34" x="306.445312"/>
      </g>
     </g>
    </g>
    <g id="ytick_13">
     <g id="line2d_37">
      <g>
       <use xlink:href="#m5978b92c79" x="391.84" y="199.417897" style="stroke: #000000; stroke-width: 0.8"/>
      </g>
     </g>
     <g id="text_23">
      <!-- −0.002 -->
      <g style="fill: #1f77b4" transform="translate(398.84 203.217116)scale(0.1 -0.1)">
       <use xlink:href="#DejaVuSans-2212"/>
       <use xlink:href="#DejaVuSans-30" x="83.789062"/>
       <use xlink:href="#DejaVuSans-2e" x="147.412109"/>
       <use xlink:href="#DejaVuSans-30" x="179.199219"/>
       <use xlink:href="#DejaVuSans-30" x="242.822266"/>
       <use xlink:href="#DejaVuSans-32" x="306.445312"/>
      </g>
     </g>
    </g>
    <g id="ytick_14">
     <g id="line2d_38">
      <g>
       <use xlink:href="#m5978b92c79" x="391.84" y="168.018492" style="stroke: #000000; stroke-width: 0.8"/>
      </g>
     </g>
     <g id="text_24">
      <!-- 0.000 -->
      <g style="fill: #1f77b4" transform="translate(398.84 171.817711)scale(0.1 -0.1)">
       <use xlink:href="#DejaVuSans-30"/>
       <use xlink:href="#DejaVuSans-2e" x="63.623047"/>
       <use xlink:href="#DejaVuSans-30" x="95.410156"/>
       <use xlink:href="#DejaVuSans-30" x="159.033203"/>
       <use xlink:href="#DejaVuSans-30" x="222.65625"/>
      </g>
     </g>
    </g>
    <g id="ytick_15">
     <g id="line2d_39">
      <g>
       <use xlink:href="#m5978b92c79" x="391.84" y="136.619087" style="stroke: #000000; stroke-width: 0.8"/>
      </g>
     </g>
     <g id="text_25">
      <!-- 0.002 -->
      <g style="fill: #1f77b4" transform="translate(398.84 140.418306)scale(0.1 -0.1)">
       <use xlink:href="#DejaVuSans-30"/>
       <use xlink:href="#DejaVuSans-2e" x="63.623047"/>
       <use xlink:href="#DejaVuSans-30" x="95.410156"/>
       <use xlink:href="#DejaVuSans-30" x="159.033203"/>
       <use xlink:href="#DejaVuSans-32" x="222.65625"/>
      </g>
     </g>
    </g>
    <g id="ytick_16">
     <g id="line2d_40">
      <g>
       <use xlink:href="#m5978b92c79" x="391.84" y="105.219682" style="stroke: #000000; stroke-width: 0.8"/>
      </g>
     </g>
     <g id="text_26">
      <!-- 0.004 -->
      <g style="fill: #1f77b4" transform="translate(398.84 109.0189)scale(0.1 -0.1)">
       <use xlink:href="#DejaVuSans-30"/>
       <use xlink:href="#DejaVuSans-2e" x="63.623047"/>
       <use xlink:href="#DejaVuSans-30" x="95.410156"/>
       <use xlink:href="#DejaVuSans-30" x="159.033203"/>
       <use xlink:href="#DejaVuSans-34" x="222.65625"/>
      </g>
     </g>
    </g>
    <g id="ytick_17">
     <g id="line2d_41">
      <g>
       <use xlink:href="#m5978b92c79" x="391.84" y="73.820277" style="stroke: #000000; stroke-width: 0.8"/>
      </g>
     </g>
     <g id="text_27">
      <!-- 0.006 -->
      <g style="fill: #1f77b4" transform="translate(398.84 77.619495)scale(0.1 -0.1)">
       <use xlink:href="#DejaVuSans-30"/>
       <use xlink:href="#DejaVuSans-2e" x="63.623047"/>
       <use xlink:href="#DejaVuSans-30" x="95.410156"/>
       <use xlink:href="#DejaVuSans-30" x="159.033203"/>
       <use xlink:href="#DejaVuSans-36" x="222.65625"/>
      </g>
     </g>
    </g>
    <g id="ytick_18">
     <g id="line2d_42">
      <g>
       <use xlink:href="#m5978b92c79" x="391.84" y="42.420872" style="stroke: #000000; stroke-width: 0.8"/>
      </g>
     </g>
     <g id="text_28">
      <!-- 0.008 -->
      <g style="fill: #1f77b4" transform="translate(398.84 46.22009)scale(0.1 -0.1)">
       <use xlink:href="#DejaVuSans-30"/>
       <use xlink:href="#DejaVuSans-2e" x="63.623047"/>
       <use xlink:href="#DejaVuSans-30" x="95.410156"/>
       <use xlink:href="#DejaVuSans-30" x="159.033203"/>
       <use xlink:href="#DejaVuSans-38" x="222.65625"/>
      </g>
     </g>
    </g>
    <g id="text_29">
     <!-- u(t) en V -->
     <g style="fill: #1f77b4" transform="translate(447.44625 189.894219)rotate(-90)scale(0.1 -0.1)">
      <defs>
       <path id="DejaVuSans-75" d="M 544 1381 
L 544 3500 
L 1119 3500 
L 1119 1403 
Q 1119 906 1312 657 
Q 1506 409 1894 409 
Q 2359 409 2629 706 
Q 2900 1003 2900 1516 
L 2900 3500 
L 3475 3500 
L 3475 0 
L 2900 0 
L 2900 538 
Q 2691 219 2414 64 
Q 2138 -91 1772 -91 
Q 1169 -91 856 284 
Q 544 659 544 1381 
z
M 1991 3584 
L 1991 3584 
z
" transform="scale(0.015625)"/>
      </defs>
      <use xlink:href="#DejaVuSans-75"/>
      <use xlink:href="#DejaVuSans-28" x="63.378906"/>
      <use xlink:href="#DejaVuSans-74" x="102.392578"/>
      <use xlink:href="#DejaVuSans-29" x="141.601562"/>
      <use xlink:href="#DejaVuSans-20" x="180.615234"/>
      <use xlink:href="#DejaVuSans-65" x="212.402344"/>
      <use xlink:href="#DejaVuSans-6e" x="273.925781"/>
      <use xlink:href="#DejaVuSans-20" x="337.304688"/>
      <use xlink:href="#DejaVuSans-56" x="369.091797"/>
     </g>
    </g>
   </g>
   <g id="line2d_43">
    <path d="M 77.536818 166.727397 
L 80.233542 141.499264 
L 82.330994 123.974761 
L 84.428446 108.137187 
L 86.226262 95.994145 
L 88.024078 85.155288 
L 89.821894 75.572474 
L 91.61971 67.315697 
L 93.11789 61.412879 
L 94.61607 56.386028 
L 95.814614 53.022664 
L 97.013158 50.239782 
L 98.211702 48.015333 
L 99.11061 46.71395 
L 100.009518 45.737553 
L 100.908426 45.091096 
L 101.807334 44.76887 
L 102.706242 44.760967 
L 103.60515 45.064467 
L 104.504058 45.686573 
L 105.402966 46.636143 
L 106.301874 47.913246 
L 107.500418 50.109615 
L 108.698962 52.85782 
L 109.897506 56.173146 
L 111.09605 60.071712 
L 112.59423 65.740619 
L 114.09241 72.268239 
L 115.59059 79.693594 
L 117.388406 89.788356 
L 119.186222 101.108444 
L 120.984038 113.732509 
L 123.08149 130.05329 
L 125.178942 148.05834 
L 127.875666 173.657285 
L 130.272754 195.852316 
L 132.370206 213.248141 
L 134.467658 228.964119 
L 136.265474 240.993984 
L 138.06329 251.729198 
L 139.861106 261.203495 
L 141.359286 268.083206 
L 142.857466 274.072674 
L 144.355646 279.188996 
L 145.55419 282.626107 
L 146.752734 285.480214 
L 147.951278 287.773894 
L 148.850186 289.128437 
L 149.749094 290.159609 
L 150.648002 290.860929 
L 151.54691 291.236471 
L 152.445818 291.296262 
L 153.344726 291.044944 
L 154.243634 290.476665 
L 155.142542 289.581993 
L 156.04145 288.359002 
L 157.239994 286.232106 
L 158.438538 283.553174 
L 159.637082 280.310087 
L 160.835626 276.484235 
L 162.333806 270.90179 
L 163.831986 264.46103 
L 165.330166 257.127256 
L 167.127982 247.136829 
L 168.925798 235.920086 
L 170.723614 223.407363 
L 172.821066 207.20182 
L 174.918518 189.329149 
L 177.315606 166.727397 
L 180.01233 141.499264 
L 182.109782 123.974761 
L 184.207234 108.137187 
L 186.00505 95.994145 
L 187.802866 85.155288 
L 189.600682 75.572474 
L 191.398498 67.315697 
L 192.896678 61.412879 
L 194.394858 56.386028 
L 195.593402 53.022664 
L 196.791946 50.239782 
L 197.99049 48.015333 
L 198.889398 46.71395 
L 199.788306 45.737553 
L 200.687214 45.091096 
L 201.586122 44.76887 
L 202.48503 44.760967 
L 203.383938 45.064467 
L 204.282846 45.686573 
L 205.181754 46.636143 
L 206.080662 47.913246 
L 207.279206 50.109615 
L 208.47775 52.85782 
L 209.676294 56.173146 
L 210.874838 60.071712 
L 212.373018 65.740619 
L 213.871198 72.268239 
L 215.369378 79.693594 
L 217.167194 89.788356 
L 218.96501 101.108444 
L 220.762826 113.732509 
L 222.860278 130.05329 
L 224.95773 148.05834 
L 227.654454 173.657285 
L 230.051542 195.852316 
L 232.148994 213.248141 
L 234.246446 228.964119 
L 236.044262 240.993984 
L 237.842078 251.729198 
L 239.639894 261.203495 
L 241.138074 268.083206 
L 242.636254 274.072674 
L 244.134434 279.188996 
L 245.332978 282.626107 
L 246.531522 285.480214 
L 247.730066 287.773894 
L 248.628974 289.128437 
L 249.527882 290.159609 
L 250.42679 290.860929 
L 251.325698 291.236471 
L 252.224606 291.296262 
L 253.123514 291.044944 
L 254.022422 290.476665 
L 254.92133 289.581993 
L 255.820238 288.359002 
L 257.018782 286.232106 
L 258.217326 283.553174 
L 259.41587 280.310087 
L 260.614414 276.484235 
L 262.112594 270.90179 
L 263.610774 264.46103 
L 265.108954 257.127256 
L 266.90677 247.136829 
L 268.704586 235.920086 
L 270.502402 223.407363 
L 272.599854 207.20182 
L 274.697306 189.329149 
L 277.094394 166.727397 
L 279.791118 141.499264 
L 281.88857 123.974761 
L 283.986022 108.137187 
L 285.783838 95.994145 
L 287.581654 85.155288 
L 289.37947 75.572474 
L 291.177286 67.315697 
L 292.675466 61.412879 
L 294.173646 56.386028 
L 295.37219 53.022664 
L 296.570734 50.239782 
L 297.769278 48.015333 
L 298.668186 46.71395 
L 299.567094 45.737553 
L 300.466002 45.091096 
L 301.36491 44.76887 
L 302.263818 44.760967 
L 303.162726 45.064467 
L 304.061634 45.686573 
L 304.960542 46.636143 
L 305.85945 47.913246 
L 307.057994 50.109615 
L 308.256538 52.85782 
L 309.455082 56.173146 
L 310.653626 60.071712 
L 312.151806 65.740619 
L 313.649986 72.268239 
L 315.148166 79.693594 
L 316.945982 89.788356 
L 318.743798 101.108444 
L 320.541614 113.732509 
L 322.639066 130.05329 
L 324.736518 148.05834 
L 327.433242 173.657285 
L 329.83033 195.852316 
L 331.927782 213.248141 
L 334.025234 228.964119 
L 335.82305 240.993984 
L 337.620866 251.729198 
L 339.418682 261.203495 
L 340.916862 268.083206 
L 342.415042 274.072674 
L 343.913222 279.188996 
L 345.111766 282.626107 
L 346.31031 285.480214 
L 347.508854 287.773894 
L 348.407762 289.128437 
L 349.30667 290.159609 
L 350.205578 290.860929 
L 351.104486 291.236471 
L 352.003394 291.296262 
L 352.902302 291.044944 
L 353.80121 290.476665 
L 354.700118 289.581993 
L 355.599026 288.359002 
L 356.79757 286.232106 
L 357.996114 283.553174 
L 359.194658 280.310087 
L 360.393202 276.484235 
L 361.891382 270.90179 
L 363.389562 264.46103 
L 364.887742 257.127256 
L 366.685558 247.136829 
L 368.483374 235.920086 
L 370.28119 223.407363 
L 372.378642 207.20182 
L 374.476094 189.329149 
L 376.873182 166.727397 
L 376.873182 166.727397 
" clip-path="url(#p41a2805980)" style="fill: none; stroke: #0000ff; stroke-width: 1.5; stroke-linecap: square"/>
   </g>
   <g id="patch_7">
    <path d="M 62.57 303.64 
L 62.57 32.4 
" style="fill: none; stroke: #000000; stroke-width: 0.8; stroke-linejoin: miter; stroke-linecap: square"/>
   </g>
   <g id="patch_8">
    <path d="M 391.84 303.64 
L 391.84 32.4 
" style="fill: none; stroke: #000000; stroke-width: 0.8; stroke-linejoin: miter; stroke-linecap: square"/>
   </g>
   <g id="patch_9">
    <path d="M 62.57 303.64 
L 391.84 303.64 
" style="fill: none; stroke: #000000; stroke-width: 0.8; stroke-linejoin: miter; stroke-linecap: square"/>
   </g>
   <g id="patch_10">
    <path d="M 62.57 32.4 
L 391.84 32.4 
" style="fill: none; stroke: #000000; stroke-width: 0.8; stroke-linejoin: miter; stroke-linecap: square"/>
   </g>
   <g id="legend_1">
    <g id="patch_11">
     <path d="M 69.57 184.198125 
L 199.31375 184.198125 
Q 201.31375 184.198125 201.31375 182.198125 
L 201.31375 153.841875 
Q 201.31375 151.841875 199.31375 151.841875 
L 69.57 151.841875 
Q 67.57 151.841875 67.57 153.841875 
L 67.57 182.198125 
Q 67.57 184.198125 69.57 184.198125 
z
" style="fill: #ffffff; opacity: 0.8; stroke: #cccccc; stroke-linejoin: miter"/>
    </g>
    <g id="line2d_44">
     <path d="M 71.57 159.940312 
L 81.57 159.940312 
L 91.57 159.940312 
" style="fill: none; stroke: #ff0000; stroke-width: 1.5; stroke-linecap: square"/>
    </g>
    <g id="text_30">
     <!-- e(t) pour f/f0 = 100 -->
     <g transform="translate(99.57 163.440312)scale(0.1 -0.1)">
      <defs>
       <path id="DejaVuSans-6f" d="M 1959 3097 
Q 1497 3097 1228 2736 
Q 959 2375 959 1747 
Q 959 1119 1226 758 
Q 1494 397 1959 397 
Q 2419 397 2687 759 
Q 2956 1122 2956 1747 
Q 2956 2369 2687 2733 
Q 2419 3097 1959 3097 
z
M 1959 3584 
Q 2709 3584 3137 3096 
Q 3566 2609 3566 1747 
Q 3566 888 3137 398 
Q 2709 -91 1959 -91 
Q 1206 -91 779 398 
Q 353 888 353 1747 
Q 353 2609 779 3096 
Q 1206 3584 1959 3584 
z
" transform="scale(0.015625)"/>
       <path id="DejaVuSans-72" d="M 2631 2963 
Q 2534 3019 2420 3045 
Q 2306 3072 2169 3072 
Q 1681 3072 1420 2755 
Q 1159 2438 1159 1844 
L 1159 0 
L 581 0 
L 581 3500 
L 1159 3500 
L 1159 2956 
Q 1341 3275 1631 3429 
Q 1922 3584 2338 3584 
Q 2397 3584 2469 3576 
Q 2541 3569 2628 3553 
L 2631 2963 
z
" transform="scale(0.015625)"/>
       <path id="DejaVuSans-66" d="M 2375 4863 
L 2375 4384 
L 1825 4384 
Q 1516 4384 1395 4259 
Q 1275 4134 1275 3809 
L 1275 3500 
L 2222 3500 
L 2222 3053 
L 1275 3053 
L 1275 0 
L 697 0 
L 697 3053 
L 147 3053 
L 147 3500 
L 697 3500 
L 697 3744 
Q 697 4328 969 4595 
Q 1241 4863 1831 4863 
L 2375 4863 
z
" transform="scale(0.015625)"/>
       <path id="DejaVuSans-2f" d="M 1625 4666 
L 2156 4666 
L 531 -594 
L 0 -594 
L 1625 4666 
z
" transform="scale(0.015625)"/>
       <path id="DejaVuSans-3d" d="M 678 2906 
L 4684 2906 
L 4684 2381 
L 678 2381 
L 678 2906 
z
M 678 1631 
L 4684 1631 
L 4684 1100 
L 678 1100 
L 678 1631 
z
" transform="scale(0.015625)"/>
      </defs>
      <use xlink:href="#DejaVuSans-65"/>
      <use xlink:href="#DejaVuSans-28" x="61.523438"/>
      <use xlink:href="#DejaVuSans-74" x="100.537109"/>
      <use xlink:href="#DejaVuSans-29" x="139.746094"/>
      <use xlink:href="#DejaVuSans-20" x="178.759766"/>
      <use xlink:href="#DejaVuSans-70" x="210.546875"/>
      <use xlink:href="#DejaVuSans-6f" x="274.023438"/>
      <use xlink:href="#DejaVuSans-75" x="335.205078"/>
      <use xlink:href="#DejaVuSans-72" x="398.583984"/>
      <use xlink:href="#DejaVuSans-20" x="439.697266"/>
      <use xlink:href="#DejaVuSans-66" x="471.484375"/>
      <use xlink:href="#DejaVuSans-2f" x="506.689453"/>
      <use xlink:href="#DejaVuSans-66" x="540.380859"/>
      <use xlink:href="#DejaVuSans-30" x="575.585938"/>
      <use xlink:href="#DejaVuSans-20" x="639.208984"/>
      <use xlink:href="#DejaVuSans-3d" x="670.996094"/>
      <use xlink:href="#DejaVuSans-20" x="754.785156"/>
      <use xlink:href="#DejaVuSans-31" x="786.572266"/>
      <use xlink:href="#DejaVuSans-30" x="850.195312"/>
      <use xlink:href="#DejaVuSans-30" x="913.818359"/>
     </g>
    </g>
    <g id="line2d_45">
     <path d="M 71.57 174.618437 
L 81.57 174.618437 
L 91.57 174.618437 
" style="fill: none; stroke: #0000ff; stroke-width: 1.5; stroke-linecap: square"/>
    </g>
    <g id="text_31">
     <!--  u(t) -->
     <g transform="translate(99.57 178.118437)scale(0.1 -0.1)">
      <use xlink:href="#DejaVuSans-20"/>
      <use xlink:href="#DejaVuSans-75" x="31.787109"/>
      <use xlink:href="#DejaVuSans-28" x="95.166016"/>
      <use xlink:href="#DejaVuSans-74" x="134.179688"/>
      <use xlink:href="#DejaVuSans-29" x="173.388672"/>
     </g>
    </g>
   </g>
  </g>
  <g id="text_32">
   <!-- Effet d'un passe-bas d'ordre 1 sur un signal triangulaire -->
   <g transform="translate(63.317813 16.030125)scale(0.12 -0.12)">
    <defs>
     <path id="DejaVuSans-45" d="M 628 4666 
L 3578 4666 
L 3578 4134 
L 1259 4134 
L 1259 2753 
L 3481 2753 
L 3481 2222 
L 1259 2222 
L 1259 531 
L 3634 531 
L 3634 0 
L 628 0 
L 628 4666 
z
" transform="scale(0.015625)"/>
     <path id="DejaVuSans-64" d="M 2906 2969 
L 2906 4863 
L 3481 4863 
L 3481 0 
L 2906 0 
L 2906 525 
Q 2725 213 2448 61 
Q 2172 -91 1784 -91 
Q 1150 -91 751 415 
Q 353 922 353 1747 
Q 353 2572 751 3078 
Q 1150 3584 1784 3584 
Q 2172 3584 2448 3432 
Q 2725 3281 2906 2969 
z
M 947 1747 
Q 947 1113 1208 752 
Q 1469 391 1925 391 
Q 2381 391 2643 752 
Q 2906 1113 2906 1747 
Q 2906 2381 2643 2742 
Q 2381 3103 1925 3103 
Q 1469 3103 1208 2742 
Q 947 2381 947 1747 
z
" transform="scale(0.015625)"/>
     <path id="DejaVuSans-27" d="M 1147 4666 
L 1147 2931 
L 616 2931 
L 616 4666 
L 1147 4666 
z
" transform="scale(0.015625)"/>
     <path id="DejaVuSans-61" d="M 2194 1759 
Q 1497 1759 1228 1600 
Q 959 1441 959 1056 
Q 959 750 1161 570 
Q 1363 391 1709 391 
Q 2188 391 2477 730 
Q 2766 1069 2766 1631 
L 2766 1759 
L 2194 1759 
z
M 3341 1997 
L 3341 0 
L 2766 0 
L 2766 531 
Q 2569 213 2275 61 
Q 1981 -91 1556 -91 
Q 1019 -91 701 211 
Q 384 513 384 1019 
Q 384 1609 779 1909 
Q 1175 2209 1959 2209 
L 2766 2209 
L 2766 2266 
Q 2766 2663 2505 2880 
Q 2244 3097 1772 3097 
Q 1472 3097 1187 3025 
Q 903 2953 641 2809 
L 641 3341 
Q 956 3463 1253 3523 
Q 1550 3584 1831 3584 
Q 2591 3584 2966 3190 
Q 3341 2797 3341 1997 
z
" transform="scale(0.015625)"/>
     <path id="DejaVuSans-2d" d="M 313 2009 
L 1997 2009 
L 1997 1497 
L 313 1497 
L 313 2009 
z
" transform="scale(0.015625)"/>
     <path id="DejaVuSans-62" d="M 3116 1747 
Q 3116 2381 2855 2742 
Q 2594 3103 2138 3103 
Q 1681 3103 1420 2742 
Q 1159 2381 1159 1747 
Q 1159 1113 1420 752 
Q 1681 391 2138 391 
Q 2594 391 2855 752 
Q 3116 1113 3116 1747 
z
M 1159 2969 
Q 1341 3281 1617 3432 
Q 1894 3584 2278 3584 
Q 2916 3584 3314 3078 
Q 3713 2572 3713 1747 
Q 3713 922 3314 415 
Q 2916 -91 2278 -91 
Q 1894 -91 1617 61 
Q 1341 213 1159 525 
L 1159 0 
L 581 0 
L 581 4863 
L 1159 4863 
L 1159 2969 
z
" transform="scale(0.015625)"/>
     <path id="DejaVuSans-69" d="M 603 3500 
L 1178 3500 
L 1178 0 
L 603 0 
L 603 3500 
z
M 603 4863 
L 1178 4863 
L 1178 4134 
L 603 4134 
L 603 4863 
z
" transform="scale(0.015625)"/>
     <path id="DejaVuSans-67" d="M 2906 1791 
Q 2906 2416 2648 2759 
Q 2391 3103 1925 3103 
Q 1463 3103 1205 2759 
Q 947 2416 947 1791 
Q 947 1169 1205 825 
Q 1463 481 1925 481 
Q 2391 481 2648 825 
Q 2906 1169 2906 1791 
z
M 3481 434 
Q 3481 -459 3084 -895 
Q 2688 -1331 1869 -1331 
Q 1566 -1331 1297 -1286 
Q 1028 -1241 775 -1147 
L 775 -588 
Q 1028 -725 1275 -790 
Q 1522 -856 1778 -856 
Q 2344 -856 2625 -561 
Q 2906 -266 2906 331 
L 2906 616 
Q 2728 306 2450 153 
Q 2172 0 1784 0 
Q 1141 0 747 490 
Q 353 981 353 1791 
Q 353 2603 747 3093 
Q 1141 3584 1784 3584 
Q 2172 3584 2450 3431 
Q 2728 3278 2906 2969 
L 2906 3500 
L 3481 3500 
L 3481 434 
z
" transform="scale(0.015625)"/>
     <path id="DejaVuSans-6c" d="M 603 4863 
L 1178 4863 
L 1178 0 
L 603 0 
L 603 4863 
z
" transform="scale(0.015625)"/>
    </defs>
    <use xlink:href="#DejaVuSans-45"/>
    <use xlink:href="#DejaVuSans-66" x="63.183594"/>
    <use xlink:href="#DejaVuSans-66" x="98.388672"/>
    <use xlink:href="#DejaVuSans-65" x="133.59375"/>
    <use xlink:href="#DejaVuSans-74" x="195.117188"/>
    <use xlink:href="#DejaVuSans-20" x="234.326172"/>
    <use xlink:href="#DejaVuSans-64" x="266.113281"/>
    <use xlink:href="#DejaVuSans-27" x="329.589844"/>
    <use xlink:href="#DejaVuSans-75" x="357.080078"/>
    <use xlink:href="#DejaVuSans-6e" x="420.458984"/>
    <use xlink:href="#DejaVuSans-20" x="483.837891"/>
    <use xlink:href="#DejaVuSans-70" x="515.625"/>
    <use xlink:href="#DejaVuSans-61" x="579.101562"/>
    <use xlink:href="#DejaVuSans-73" x="640.380859"/>
    <use xlink:href="#DejaVuSans-73" x="692.480469"/>
    <use xlink:href="#DejaVuSans-65" x="744.580078"/>
    <use xlink:href="#DejaVuSans-2d" x="806.103516"/>
    <use xlink:href="#DejaVuSans-62" x="842.1875"/>
    <use xlink:href="#DejaVuSans-61" x="905.664062"/>
    <use xlink:href="#DejaVuSans-73" x="966.943359"/>
    <use xlink:href="#DejaVuSans-20" x="1019.042969"/>
    <use xlink:href="#DejaVuSans-64" x="1050.830078"/>
    <use xlink:href="#DejaVuSans-27" x="1114.306641"/>
    <use xlink:href="#DejaVuSans-6f" x="1141.796875"/>
    <use xlink:href="#DejaVuSans-72" x="1202.978516"/>
    <use xlink:href="#DejaVuSans-64" x="1242.341797"/>
    <use xlink:href="#DejaVuSans-72" x="1305.818359"/>
    <use xlink:href="#DejaVuSans-65" x="1344.681641"/>
    <use xlink:href="#DejaVuSans-20" x="1406.205078"/>
    <use xlink:href="#DejaVuSans-31" x="1437.992188"/>
    <use xlink:href="#DejaVuSans-20" x="1501.615234"/>
    <use xlink:href="#DejaVuSans-73" x="1533.402344"/>
    <use xlink:href="#DejaVuSans-75" x="1585.501953"/>
    <use xlink:href="#DejaVuSans-72" x="1648.880859"/>
    <use xlink:href="#DejaVuSans-20" x="1689.994141"/>
    <use xlink:href="#DejaVuSans-75" x="1721.78125"/>
    <use xlink:href="#DejaVuSans-6e" x="1785.160156"/>
    <use xlink:href="#DejaVuSans-20" x="1848.539062"/>
    <use xlink:href="#DejaVuSans-73" x="1880.326172"/>
    <use xlink:href="#DejaVuSans-69" x="1932.425781"/>
    <use xlink:href="#DejaVuSans-67" x="1960.208984"/>
    <use xlink:href="#DejaVuSans-6e" x="2023.685547"/>
    <use xlink:href="#DejaVuSans-61" x="2087.064453"/>
    <use xlink:href="#DejaVuSans-6c" x="2148.34375"/>
    <use xlink:href="#DejaVuSans-20" x="2176.126953"/>
    <use xlink:href="#DejaVuSans-74" x="2207.914062"/>
    <use xlink:href="#DejaVuSans-72" x="2247.123047"/>
    <use xlink:href="#DejaVuSans-69" x="2288.236328"/>
    <use xlink:href="#DejaVuSans-61" x="2316.019531"/>
    <use xlink:href="#DejaVuSans-6e" x="2377.298828"/>
    <use xlink:href="#DejaVuSans-67" x="2440.677734"/>
    <use xlink:href="#DejaVuSans-75" x="2504.154297"/>
    <use xlink:href="#DejaVuSans-6c" x="2567.533203"/>
    <use xlink:href="#DejaVuSans-61" x="2595.316406"/>
    <use xlink:href="#DejaVuSans-69" x="2656.595703"/>
    <use xlink:href="#DejaVuSans-72" x="2684.378906"/>
    <use xlink:href="#DejaVuSans-65" x="2723.242188"/>
   </g>
  </g>
 </g>
 <defs>
  <clipPath id="p41a2805980">
   <rect x="62.57" y="32.4" width="329.27" height="271.24"/>
  </clipPath>
 </defs>
</svg>
