<?xml version="1.0" encoding="utf-8" standalone="no"?>
<!DOCTYPE svg PUBLIC "-//W3C//DTD SVG 1.1//EN"
  "http://www.w3.org/Graphics/SVG/1.1/DTD/svg11.dtd">
<svg xmlns:xlink="http://www.w3.org/1999/xlink" width="983.52pt" height="473.04pt" viewBox="0 0 983.52 473.04" xmlns="http://www.w3.org/2000/svg" version="1.1">
 <metadata>
  <rdf:RDF xmlns:dc="http://purl.org/dc/elements/1.1/" xmlns:cc="http://creativecommons.org/ns#" xmlns:rdf="http://www.w3.org/1999/02/22-rdf-syntax-ns#">
   <cc:Work>
    <dc:type rdf:resource="http://purl.org/dc/dcmitype/StillImage"/>
    <dc:date>2022-12-27T18:13:17.400617</dc:date>
    <dc:format>image/svg+xml</dc:format>
    <dc:creator>
     <cc:Agent>
      <dc:title>Matplotlib v3.5.1, https://matplotlib.org/</dc:title>
     </cc:Agent>
    </dc:creator>
   </cc:Work>
  </rdf:RDF>
 </metadata>
 <defs>
  <style type="text/css">*{stroke-linejoin: round; stroke-linecap: butt}</style>
 </defs>
 <g id="figure_1">
  <g id="patch_1">
   <path d="M 0 473.04 
L 983.52 473.04 
L 983.52 0 
L 0 0 
z
" style="fill: #ffffff"/>
  </g>
  <g id="axes_1">
   <g id="patch_2">
    <path d="M 122.94 101.23606 
L 885.168 101.23606 
L 885.168 56.7648 
L 122.94 56.7648 
z
" style="fill: #ffffff"/>
   </g>
   <g id="matplotlib.axis_1">
    <g id="xtick_1">
     <g id="line2d_1">
      <path d="M 157.586727 101.23606 
L 157.586727 56.7648 
" clip-path="url(#p465957d21a)" style="fill: none; stroke: #b0b0b0; stroke-width: 0.8; stroke-linecap: square"/>
     </g>
     <g id="line2d_2">
      <defs>
       <path id="md8ae67880b" d="M 0 0 
L 0 3.5 
" style="stroke: #000000; stroke-width: 0.8"/>
      </defs>
      <g>
       <use xlink:href="#md8ae67880b" x="157.586727" y="101.23606" style="stroke: #000000; stroke-width: 0.8"/>
      </g>
     </g>
     <g id="text_1">
      <!-- 0.000 -->
      <g transform="translate(143.272665 115.834498)scale(0.1 -0.1)">
       <defs>
        <path id="DejaVuSans-30" d="M 2034 4250 
Q 1547 4250 1301 3770 
Q 1056 3291 1056 2328 
Q 1056 1369 1301 889 
Q 1547 409 2034 409 
Q 2525 409 2770 889 
Q 3016 1369 3016 2328 
Q 3016 3291 2770 3770 
Q 2525 4250 2034 4250 
z
M 2034 4750 
Q 2819 4750 3233 4129 
Q 3647 3509 3647 2328 
Q 3647 1150 3233 529 
Q 2819 -91 2034 -91 
Q 1250 -91 836 529 
Q 422 1150 422 2328 
Q 422 3509 836 4129 
Q 1250 4750 2034 4750 
z
" transform="scale(0.015625)"/>
        <path id="DejaVuSans-2e" d="M 684 794 
L 1344 794 
L 1344 0 
L 684 0 
L 684 794 
z
" transform="scale(0.015625)"/>
       </defs>
       <use xlink:href="#DejaVuSans-30"/>
       <use xlink:href="#DejaVuSans-2e" x="63.623047"/>
       <use xlink:href="#DejaVuSans-30" x="95.410156"/>
       <use xlink:href="#DejaVuSans-30" x="159.033203"/>
       <use xlink:href="#DejaVuSans-30" x="222.65625"/>
      </g>
     </g>
    </g>
    <g id="xtick_2">
     <g id="line2d_3">
      <path d="M 273.075818 101.23606 
L 273.075818 56.7648 
" clip-path="url(#p465957d21a)" style="fill: none; stroke: #b0b0b0; stroke-width: 0.8; stroke-linecap: square"/>
     </g>
     <g id="line2d_4">
      <g>
       <use xlink:href="#md8ae67880b" x="273.075818" y="101.23606" style="stroke: #000000; stroke-width: 0.8"/>
      </g>
     </g>
     <g id="text_2">
      <!-- 0.005 -->
      <g transform="translate(258.761756 115.834498)scale(0.1 -0.1)">
       <defs>
        <path id="DejaVuSans-35" d="M 691 4666 
L 3169 4666 
L 3169 4134 
L 1269 4134 
L 1269 2991 
Q 1406 3038 1543 3061 
Q 1681 3084 1819 3084 
Q 2600 3084 3056 2656 
Q 3513 2228 3513 1497 
Q 3513 744 3044 326 
Q 2575 -91 1722 -91 
Q 1428 -91 1123 -41 
Q 819 9 494 109 
L 494 744 
Q 775 591 1075 516 
Q 1375 441 1709 441 
Q 2250 441 2565 725 
Q 2881 1009 2881 1497 
Q 2881 1984 2565 2268 
Q 2250 2553 1709 2553 
Q 1456 2553 1204 2497 
Q 953 2441 691 2322 
L 691 4666 
z
" transform="scale(0.015625)"/>
       </defs>
       <use xlink:href="#DejaVuSans-30"/>
       <use xlink:href="#DejaVuSans-2e" x="63.623047"/>
       <use xlink:href="#DejaVuSans-30" x="95.410156"/>
       <use xlink:href="#DejaVuSans-30" x="159.033203"/>
       <use xlink:href="#DejaVuSans-35" x="222.65625"/>
      </g>
     </g>
    </g>
    <g id="xtick_3">
     <g id="line2d_5">
      <path d="M 388.564909 101.23606 
L 388.564909 56.7648 
" clip-path="url(#p465957d21a)" style="fill: none; stroke: #b0b0b0; stroke-width: 0.8; stroke-linecap: square"/>
     </g>
     <g id="line2d_6">
      <g>
       <use xlink:href="#md8ae67880b" x="388.564909" y="101.23606" style="stroke: #000000; stroke-width: 0.8"/>
      </g>
     </g>
     <g id="text_3">
      <!-- 0.010 -->
      <g transform="translate(374.250847 115.834498)scale(0.1 -0.1)">
       <defs>
        <path id="DejaVuSans-31" d="M 794 531 
L 1825 531 
L 1825 4091 
L 703 3866 
L 703 4441 
L 1819 4666 
L 2450 4666 
L 2450 531 
L 3481 531 
L 3481 0 
L 794 0 
L 794 531 
z
" transform="scale(0.015625)"/>
       </defs>
       <use xlink:href="#DejaVuSans-30"/>
       <use xlink:href="#DejaVuSans-2e" x="63.623047"/>
       <use xlink:href="#DejaVuSans-30" x="95.410156"/>
       <use xlink:href="#DejaVuSans-31" x="159.033203"/>
       <use xlink:href="#DejaVuSans-30" x="222.65625"/>
      </g>
     </g>
    </g>
    <g id="xtick_4">
     <g id="line2d_7">
      <path d="M 504.054 101.23606 
L 504.054 56.7648 
" clip-path="url(#p465957d21a)" style="fill: none; stroke: #b0b0b0; stroke-width: 0.8; stroke-linecap: square"/>
     </g>
     <g id="line2d_8">
      <g>
       <use xlink:href="#md8ae67880b" x="504.054" y="101.23606" style="stroke: #000000; stroke-width: 0.8"/>
      </g>
     </g>
     <g id="text_4">
      <!-- 0.015 -->
      <g transform="translate(489.739938 115.834498)scale(0.1 -0.1)">
       <use xlink:href="#DejaVuSans-30"/>
       <use xlink:href="#DejaVuSans-2e" x="63.623047"/>
       <use xlink:href="#DejaVuSans-30" x="95.410156"/>
       <use xlink:href="#DejaVuSans-31" x="159.033203"/>
       <use xlink:href="#DejaVuSans-35" x="222.65625"/>
      </g>
     </g>
    </g>
    <g id="xtick_5">
     <g id="line2d_9">
      <path d="M 619.543091 101.23606 
L 619.543091 56.7648 
" clip-path="url(#p465957d21a)" style="fill: none; stroke: #b0b0b0; stroke-width: 0.8; stroke-linecap: square"/>
     </g>
     <g id="line2d_10">
      <g>
       <use xlink:href="#md8ae67880b" x="619.543091" y="101.23606" style="stroke: #000000; stroke-width: 0.8"/>
      </g>
     </g>
     <g id="text_5">
      <!-- 0.020 -->
      <g transform="translate(605.229028 115.834498)scale(0.1 -0.1)">
       <defs>
        <path id="DejaVuSans-32" d="M 1228 531 
L 3431 531 
L 3431 0 
L 469 0 
L 469 531 
Q 828 903 1448 1529 
Q 2069 2156 2228 2338 
Q 2531 2678 2651 2914 
Q 2772 3150 2772 3378 
Q 2772 3750 2511 3984 
Q 2250 4219 1831 4219 
Q 1534 4219 1204 4116 
Q 875 4013 500 3803 
L 500 4441 
Q 881 4594 1212 4672 
Q 1544 4750 1819 4750 
Q 2544 4750 2975 4387 
Q 3406 4025 3406 3419 
Q 3406 3131 3298 2873 
Q 3191 2616 2906 2266 
Q 2828 2175 2409 1742 
Q 1991 1309 1228 531 
z
" transform="scale(0.015625)"/>
       </defs>
       <use xlink:href="#DejaVuSans-30"/>
       <use xlink:href="#DejaVuSans-2e" x="63.623047"/>
       <use xlink:href="#DejaVuSans-30" x="95.410156"/>
       <use xlink:href="#DejaVuSans-32" x="159.033203"/>
       <use xlink:href="#DejaVuSans-30" x="222.65625"/>
      </g>
     </g>
    </g>
    <g id="xtick_6">
     <g id="line2d_11">
      <path d="M 735.032182 101.23606 
L 735.032182 56.7648 
" clip-path="url(#p465957d21a)" style="fill: none; stroke: #b0b0b0; stroke-width: 0.8; stroke-linecap: square"/>
     </g>
     <g id="line2d_12">
      <g>
       <use xlink:href="#md8ae67880b" x="735.032182" y="101.23606" style="stroke: #000000; stroke-width: 0.8"/>
      </g>
     </g>
     <g id="text_6">
      <!-- 0.025 -->
      <g transform="translate(720.718119 115.834498)scale(0.1 -0.1)">
       <use xlink:href="#DejaVuSans-30"/>
       <use xlink:href="#DejaVuSans-2e" x="63.623047"/>
       <use xlink:href="#DejaVuSans-30" x="95.410156"/>
       <use xlink:href="#DejaVuSans-32" x="159.033203"/>
       <use xlink:href="#DejaVuSans-35" x="222.65625"/>
      </g>
     </g>
    </g>
    <g id="xtick_7">
     <g id="line2d_13">
      <path d="M 850.521273 101.23606 
L 850.521273 56.7648 
" clip-path="url(#p465957d21a)" style="fill: none; stroke: #b0b0b0; stroke-width: 0.8; stroke-linecap: square"/>
     </g>
     <g id="line2d_14">
      <g>
       <use xlink:href="#md8ae67880b" x="850.521273" y="101.23606" style="stroke: #000000; stroke-width: 0.8"/>
      </g>
     </g>
     <g id="text_7">
      <!-- 0.030 -->
      <g transform="translate(836.20721 115.834498)scale(0.1 -0.1)">
       <defs>
        <path id="DejaVuSans-33" d="M 2597 2516 
Q 3050 2419 3304 2112 
Q 3559 1806 3559 1356 
Q 3559 666 3084 287 
Q 2609 -91 1734 -91 
Q 1441 -91 1130 -33 
Q 819 25 488 141 
L 488 750 
Q 750 597 1062 519 
Q 1375 441 1716 441 
Q 2309 441 2620 675 
Q 2931 909 2931 1356 
Q 2931 1769 2642 2001 
Q 2353 2234 1838 2234 
L 1294 2234 
L 1294 2753 
L 1863 2753 
Q 2328 2753 2575 2939 
Q 2822 3125 2822 3475 
Q 2822 3834 2567 4026 
Q 2313 4219 1838 4219 
Q 1578 4219 1281 4162 
Q 984 4106 628 3988 
L 628 4550 
Q 988 4650 1302 4700 
Q 1616 4750 1894 4750 
Q 2613 4750 3031 4423 
Q 3450 4097 3450 3541 
Q 3450 3153 3228 2886 
Q 3006 2619 2597 2516 
z
" transform="scale(0.015625)"/>
       </defs>
       <use xlink:href="#DejaVuSans-30"/>
       <use xlink:href="#DejaVuSans-2e" x="63.623047"/>
       <use xlink:href="#DejaVuSans-30" x="95.410156"/>
       <use xlink:href="#DejaVuSans-33" x="159.033203"/>
       <use xlink:href="#DejaVuSans-30" x="222.65625"/>
      </g>
     </g>
    </g>
    <g id="text_8">
     <!-- temps en s -->
     <g transform="translate(476.339938 129.512623)scale(0.1 -0.1)">
      <defs>
       <path id="DejaVuSans-74" d="M 1172 4494 
L 1172 3500 
L 2356 3500 
L 2356 3053 
L 1172 3053 
L 1172 1153 
Q 1172 725 1289 603 
Q 1406 481 1766 481 
L 2356 481 
L 2356 0 
L 1766 0 
Q 1100 0 847 248 
Q 594 497 594 1153 
L 594 3053 
L 172 3053 
L 172 3500 
L 594 3500 
L 594 4494 
L 1172 4494 
z
" transform="scale(0.015625)"/>
       <path id="DejaVuSans-65" d="M 3597 1894 
L 3597 1613 
L 953 1613 
Q 991 1019 1311 708 
Q 1631 397 2203 397 
Q 2534 397 2845 478 
Q 3156 559 3463 722 
L 3463 178 
Q 3153 47 2828 -22 
Q 2503 -91 2169 -91 
Q 1331 -91 842 396 
Q 353 884 353 1716 
Q 353 2575 817 3079 
Q 1281 3584 2069 3584 
Q 2775 3584 3186 3129 
Q 3597 2675 3597 1894 
z
M 3022 2063 
Q 3016 2534 2758 2815 
Q 2500 3097 2075 3097 
Q 1594 3097 1305 2825 
Q 1016 2553 972 2059 
L 3022 2063 
z
" transform="scale(0.015625)"/>
       <path id="DejaVuSans-6d" d="M 3328 2828 
Q 3544 3216 3844 3400 
Q 4144 3584 4550 3584 
Q 5097 3584 5394 3201 
Q 5691 2819 5691 2113 
L 5691 0 
L 5113 0 
L 5113 2094 
Q 5113 2597 4934 2840 
Q 4756 3084 4391 3084 
Q 3944 3084 3684 2787 
Q 3425 2491 3425 1978 
L 3425 0 
L 2847 0 
L 2847 2094 
Q 2847 2600 2669 2842 
Q 2491 3084 2119 3084 
Q 1678 3084 1418 2786 
Q 1159 2488 1159 1978 
L 1159 0 
L 581 0 
L 581 3500 
L 1159 3500 
L 1159 2956 
Q 1356 3278 1631 3431 
Q 1906 3584 2284 3584 
Q 2666 3584 2933 3390 
Q 3200 3197 3328 2828 
z
" transform="scale(0.015625)"/>
       <path id="DejaVuSans-70" d="M 1159 525 
L 1159 -1331 
L 581 -1331 
L 581 3500 
L 1159 3500 
L 1159 2969 
Q 1341 3281 1617 3432 
Q 1894 3584 2278 3584 
Q 2916 3584 3314 3078 
Q 3713 2572 3713 1747 
Q 3713 922 3314 415 
Q 2916 -91 2278 -91 
Q 1894 -91 1617 61 
Q 1341 213 1159 525 
z
M 3116 1747 
Q 3116 2381 2855 2742 
Q 2594 3103 2138 3103 
Q 1681 3103 1420 2742 
Q 1159 2381 1159 1747 
Q 1159 1113 1420 752 
Q 1681 391 2138 391 
Q 2594 391 2855 752 
Q 3116 1113 3116 1747 
z
" transform="scale(0.015625)"/>
       <path id="DejaVuSans-73" d="M 2834 3397 
L 2834 2853 
Q 2591 2978 2328 3040 
Q 2066 3103 1784 3103 
Q 1356 3103 1142 2972 
Q 928 2841 928 2578 
Q 928 2378 1081 2264 
Q 1234 2150 1697 2047 
L 1894 2003 
Q 2506 1872 2764 1633 
Q 3022 1394 3022 966 
Q 3022 478 2636 193 
Q 2250 -91 1575 -91 
Q 1294 -91 989 -36 
Q 684 19 347 128 
L 347 722 
Q 666 556 975 473 
Q 1284 391 1588 391 
Q 1994 391 2212 530 
Q 2431 669 2431 922 
Q 2431 1156 2273 1281 
Q 2116 1406 1581 1522 
L 1381 1569 
Q 847 1681 609 1914 
Q 372 2147 372 2553 
Q 372 3047 722 3315 
Q 1072 3584 1716 3584 
Q 2034 3584 2315 3537 
Q 2597 3491 2834 3397 
z
" transform="scale(0.015625)"/>
       <path id="DejaVuSans-20" transform="scale(0.015625)"/>
       <path id="DejaVuSans-6e" d="M 3513 2113 
L 3513 0 
L 2938 0 
L 2938 2094 
Q 2938 2591 2744 2837 
Q 2550 3084 2163 3084 
Q 1697 3084 1428 2787 
Q 1159 2491 1159 1978 
L 1159 0 
L 581 0 
L 581 3500 
L 1159 3500 
L 1159 2956 
Q 1366 3272 1645 3428 
Q 1925 3584 2291 3584 
Q 2894 3584 3203 3211 
Q 3513 2838 3513 2113 
z
" transform="scale(0.015625)"/>
      </defs>
      <use xlink:href="#DejaVuSans-74"/>
      <use xlink:href="#DejaVuSans-65" x="39.208984"/>
      <use xlink:href="#DejaVuSans-6d" x="100.732422"/>
      <use xlink:href="#DejaVuSans-70" x="198.144531"/>
      <use xlink:href="#DejaVuSans-73" x="261.621094"/>
      <use xlink:href="#DejaVuSans-20" x="313.720703"/>
      <use xlink:href="#DejaVuSans-65" x="345.507812"/>
      <use xlink:href="#DejaVuSans-6e" x="407.03125"/>
      <use xlink:href="#DejaVuSans-20" x="470.410156"/>
      <use xlink:href="#DejaVuSans-73" x="502.197266"/>
     </g>
    </g>
   </g>
   <g id="matplotlib.axis_2">
    <g id="ytick_1">
     <g id="line2d_15">
      <path d="M 122.94 91.470298 
L 885.168 91.470298 
" clip-path="url(#p465957d21a)" style="fill: none; stroke: #b0b0b0; stroke-width: 0.8; stroke-linecap: square"/>
     </g>
     <g id="line2d_16">
      <defs>
       <path id="m99b31651b8" d="M 0 0 
L -3.5 0 
" style="stroke: #000000; stroke-width: 0.8"/>
      </defs>
      <g>
       <use xlink:href="#m99b31651b8" x="122.94" y="91.470298" style="stroke: #000000; stroke-width: 0.8"/>
      </g>
     </g>
     <g id="text_9">
      <!-- −0.5 -->
      <g transform="translate(91.657187 95.269517)scale(0.1 -0.1)">
       <defs>
        <path id="DejaVuSans-2212" d="M 678 2272 
L 4684 2272 
L 4684 1741 
L 678 1741 
L 678 2272 
z
" transform="scale(0.015625)"/>
       </defs>
       <use xlink:href="#DejaVuSans-2212"/>
       <use xlink:href="#DejaVuSans-30" x="83.789062"/>
       <use xlink:href="#DejaVuSans-2e" x="147.412109"/>
       <use xlink:href="#DejaVuSans-35" x="179.199219"/>
      </g>
     </g>
    </g>
    <g id="ytick_2">
     <g id="line2d_17">
      <path d="M 122.94 79.00088 
L 885.168 79.00088 
" clip-path="url(#p465957d21a)" style="fill: none; stroke: #b0b0b0; stroke-width: 0.8; stroke-linecap: square"/>
     </g>
     <g id="line2d_18">
      <g>
       <use xlink:href="#m99b31651b8" x="122.94" y="79.00088" style="stroke: #000000; stroke-width: 0.8"/>
      </g>
     </g>
     <g id="text_10">
      <!-- 0.0 -->
      <g transform="translate(100.036875 82.800099)scale(0.1 -0.1)">
       <use xlink:href="#DejaVuSans-30"/>
       <use xlink:href="#DejaVuSans-2e" x="63.623047"/>
       <use xlink:href="#DejaVuSans-30" x="95.410156"/>
      </g>
     </g>
    </g>
    <g id="ytick_3">
     <g id="line2d_19">
      <path d="M 122.94 66.531462 
L 885.168 66.531462 
" clip-path="url(#p465957d21a)" style="fill: none; stroke: #b0b0b0; stroke-width: 0.8; stroke-linecap: square"/>
     </g>
     <g id="line2d_20">
      <g>
       <use xlink:href="#m99b31651b8" x="122.94" y="66.531462" style="stroke: #000000; stroke-width: 0.8"/>
      </g>
     </g>
     <g id="text_11">
      <!-- 0.5 -->
      <g transform="translate(100.036875 70.330681)scale(0.1 -0.1)">
       <use xlink:href="#DejaVuSans-30"/>
       <use xlink:href="#DejaVuSans-2e" x="63.623047"/>
       <use xlink:href="#DejaVuSans-35" x="95.410156"/>
      </g>
     </g>
    </g>
    <g id="text_12">
     <!-- e(t) en V -->
     <g transform="translate(85.5775 100.782461)rotate(-90)scale(0.1 -0.1)">
      <defs>
       <path id="DejaVuSans-28" d="M 1984 4856 
Q 1566 4138 1362 3434 
Q 1159 2731 1159 2009 
Q 1159 1288 1364 580 
Q 1569 -128 1984 -844 
L 1484 -844 
Q 1016 -109 783 600 
Q 550 1309 550 2009 
Q 550 2706 781 3412 
Q 1013 4119 1484 4856 
L 1984 4856 
z
" transform="scale(0.015625)"/>
       <path id="DejaVuSans-29" d="M 513 4856 
L 1013 4856 
Q 1481 4119 1714 3412 
Q 1947 2706 1947 2009 
Q 1947 1309 1714 600 
Q 1481 -109 1013 -844 
L 513 -844 
Q 928 -128 1133 580 
Q 1338 1288 1338 2009 
Q 1338 2731 1133 3434 
Q 928 4138 513 4856 
z
" transform="scale(0.015625)"/>
       <path id="DejaVuSans-56" d="M 1831 0 
L 50 4666 
L 709 4666 
L 2188 738 
L 3669 4666 
L 4325 4666 
L 2547 0 
L 1831 0 
z
" transform="scale(0.015625)"/>
      </defs>
      <use xlink:href="#DejaVuSans-65"/>
      <use xlink:href="#DejaVuSans-28" x="61.523438"/>
      <use xlink:href="#DejaVuSans-74" x="100.537109"/>
      <use xlink:href="#DejaVuSans-29" x="139.746094"/>
      <use xlink:href="#DejaVuSans-20" x="178.759766"/>
      <use xlink:href="#DejaVuSans-65" x="210.546875"/>
      <use xlink:href="#DejaVuSans-6e" x="272.070312"/>
      <use xlink:href="#DejaVuSans-20" x="335.449219"/>
      <use xlink:href="#DejaVuSans-56" x="367.236328"/>
     </g>
    </g>
   </g>
   <g id="line2d_21">
    <path d="M 157.586727 58.786221 
L 161.748496 58.915625 
L 165.910265 59.302179 
L 170.072034 59.940934 
L 174.233803 60.823713 
L 178.395572 61.939213 
L 182.557342 63.273152 
L 187.412739 65.082569 
L 192.268136 67.134436 
L 197.817161 69.730283 
L 204.059815 72.899484 
L 213.076981 77.762046 
L 227.643173 85.645205 
L 233.885826 88.776112 
L 239.434852 91.325689 
L 244.290249 93.328476 
L 249.145646 95.081683 
L 253.307415 96.362508 
L 257.469184 97.421053 
L 261.630953 98.243766 
L 265.792722 98.820113 
L 269.954491 99.142716 
L 274.11626 99.207443 
L 278.278029 99.013467 
L 282.439799 98.563272 
L 286.601568 97.86262 
L 290.763337 96.920482 
L 294.925106 95.74892 
L 299.086875 94.362934 
L 303.942272 92.498758 
L 308.797669 90.399455 
L 314.346695 87.759417 
L 321.282976 84.186752 
L 331.687399 78.524151 
L 342.78545 72.536961 
L 349.721731 69.059157 
L 355.270757 66.525459 
L 360.126154 64.53939 
L 364.981551 62.805234 
L 369.14332 61.542344 
L 373.305089 60.502974 
L 377.466858 59.700432 
L 381.628627 59.144993 
L 385.790396 58.843768 
L 389.952165 58.800613 
L 394.113934 59.016081 
L 398.275704 59.487413 
L 402.437473 60.208575 
L 406.599242 61.170334 
L 410.761011 62.360376 
L 414.92278 63.763466 
L 419.778177 65.645566 
L 424.633574 67.760309 
L 430.1826 70.414609 
L 437.118881 73.999564 
L 448.216932 80.049311 
L 458.621355 85.645205 
L 464.864008 88.776112 
L 470.413034 91.325689 
L 475.268431 93.328476 
L 480.123828 95.081683 
L 484.285597 96.362508 
L 488.447366 97.421053 
L 492.609135 98.243766 
L 496.770904 98.820113 
L 500.932673 99.142716 
L 505.094442 99.207443 
L 509.256211 99.013467 
L 513.41798 98.563272 
L 517.579749 97.86262 
L 521.741518 96.920482 
L 525.903287 95.74892 
L 530.065057 94.362934 
L 534.920454 92.498758 
L 539.775851 90.399455 
L 545.324876 87.759417 
L 552.261158 84.186752 
L 562.665581 78.524151 
L 573.763631 72.536961 
L 580.699913 69.059157 
L 586.248939 66.525459 
L 591.104336 64.53939 
L 595.959733 62.805234 
L 600.121502 61.542344 
L 604.283271 60.502974 
L 608.44504 59.700432 
L 612.606809 59.144993 
L 616.768578 58.843768 
L 620.930347 58.800613 
L 625.092116 59.016081 
L 629.253885 59.487413 
L 633.415654 60.208575 
L 637.577423 61.170334 
L 641.739192 62.360376 
L 645.900962 63.763466 
L 650.756359 65.645566 
L 655.611756 67.760309 
L 661.160781 70.414609 
L 668.097063 73.999564 
L 679.195114 80.049311 
L 689.599536 85.645205 
L 695.84219 88.776112 
L 701.391215 91.325689 
L 706.246613 93.328476 
L 711.10201 95.081683 
L 715.263779 96.362508 
L 719.425548 97.421053 
L 723.587317 98.243766 
L 727.749086 98.820113 
L 731.910855 99.142716 
L 736.072624 99.207443 
L 740.234393 99.013467 
L 744.396162 98.563272 
L 748.557931 97.86262 
L 752.7197 96.920482 
L 756.881469 95.74892 
L 761.043238 94.362934 
L 765.898636 92.498758 
L 770.754033 90.399455 
L 776.303058 87.759417 
L 783.23934 84.186752 
L 793.643762 78.524151 
L 804.741813 72.536961 
L 811.678095 69.059157 
L 817.22712 66.525459 
L 822.082518 64.53939 
L 826.937915 62.805234 
L 831.099684 61.542344 
L 835.261453 60.502974 
L 839.423222 59.700432 
L 843.584991 59.144993 
L 847.74676 58.843768 
L 850.521273 58.786221 
L 850.521273 58.786221 
" clip-path="url(#p465957d21a)" style="fill: none; stroke: #ff0000; stroke-width: 1.5; stroke-linecap: square"/>
   </g>
   <g id="patch_3">
    <path d="M 122.94 101.23606 
L 122.94 56.7648 
" style="fill: none; stroke: #000000; stroke-width: 0.8; stroke-linejoin: miter; stroke-linecap: square"/>
   </g>
   <g id="patch_4">
    <path d="M 885.168 101.23606 
L 885.168 56.7648 
" style="fill: none; stroke: #000000; stroke-width: 0.8; stroke-linejoin: miter; stroke-linecap: square"/>
   </g>
   <g id="patch_5">
    <path d="M 122.94 101.23606 
L 885.168 101.23606 
" style="fill: none; stroke: #000000; stroke-width: 0.8; stroke-linejoin: miter; stroke-linecap: square"/>
   </g>
   <g id="patch_6">
    <path d="M 122.94 56.7648 
L 885.168 56.7648 
" style="fill: none; stroke: #000000; stroke-width: 0.8; stroke-linejoin: miter; stroke-linecap: square"/>
   </g>
   <g id="legend_1">
    <g id="patch_7">
     <path d="M 129.94 96.23606 
L 192.554062 96.23606 
Q 194.554062 96.23606 194.554062 94.23606 
L 194.554062 80.557935 
Q 194.554062 78.557935 192.554062 78.557935 
L 129.94 78.557935 
Q 127.94 78.557935 127.94 80.557935 
L 127.94 94.23606 
Q 127.94 96.23606 129.94 96.23606 
z
" style="fill: #ffffff; opacity: 0.8; stroke: #cccccc; stroke-linejoin: miter"/>
    </g>
    <g id="line2d_22">
     <path d="M 131.94 86.656373 
L 141.94 86.656373 
L 151.94 86.656373 
" style="fill: none; stroke: #ff0000; stroke-width: 1.5; stroke-linecap: square"/>
    </g>
    <g id="text_13">
     <!--  n = 1 -->
     <g transform="translate(159.94 90.156373)scale(0.1 -0.1)">
      <defs>
       <path id="DejaVuSans-3d" d="M 678 2906 
L 4684 2906 
L 4684 2381 
L 678 2381 
L 678 2906 
z
M 678 1631 
L 4684 1631 
L 4684 1100 
L 678 1100 
L 678 1631 
z
" transform="scale(0.015625)"/>
      </defs>
      <use xlink:href="#DejaVuSans-20"/>
      <use xlink:href="#DejaVuSans-6e" x="31.787109"/>
      <use xlink:href="#DejaVuSans-20" x="95.166016"/>
      <use xlink:href="#DejaVuSans-3d" x="126.953125"/>
      <use xlink:href="#DejaVuSans-20" x="210.742188"/>
      <use xlink:href="#DejaVuSans-31" x="242.529297"/>
     </g>
    </g>
   </g>
  </g>
  <g id="axes_2">
   <g id="patch_8">
    <path d="M 122.94 165.189968 
L 885.168 165.189968 
L 885.168 120.718708 
L 122.94 120.718708 
z
" style="fill: #ffffff"/>
   </g>
   <g id="matplotlib.axis_3">
    <g id="xtick_8">
     <g id="line2d_23">
      <path d="M 157.586727 165.189968 
L 157.586727 120.718708 
" clip-path="url(#p375d533888)" style="fill: none; stroke: #b0b0b0; stroke-width: 0.8; stroke-linecap: square"/>
     </g>
     <g id="line2d_24">
      <g>
       <use xlink:href="#md8ae67880b" x="157.586727" y="165.189968" style="stroke: #000000; stroke-width: 0.8"/>
      </g>
     </g>
     <g id="text_14">
      <!-- 0.000 -->
      <g transform="translate(143.272665 179.788406)scale(0.1 -0.1)">
       <use xlink:href="#DejaVuSans-30"/>
       <use xlink:href="#DejaVuSans-2e" x="63.623047"/>
       <use xlink:href="#DejaVuSans-30" x="95.410156"/>
       <use xlink:href="#DejaVuSans-30" x="159.033203"/>
       <use xlink:href="#DejaVuSans-30" x="222.65625"/>
      </g>
     </g>
    </g>
    <g id="xtick_9">
     <g id="line2d_25">
      <path d="M 273.075818 165.189968 
L 273.075818 120.718708 
" clip-path="url(#p375d533888)" style="fill: none; stroke: #b0b0b0; stroke-width: 0.8; stroke-linecap: square"/>
     </g>
     <g id="line2d_26">
      <g>
       <use xlink:href="#md8ae67880b" x="273.075818" y="165.189968" style="stroke: #000000; stroke-width: 0.8"/>
      </g>
     </g>
     <g id="text_15">
      <!-- 0.005 -->
      <g transform="translate(258.761756 179.788406)scale(0.1 -0.1)">
       <use xlink:href="#DejaVuSans-30"/>
       <use xlink:href="#DejaVuSans-2e" x="63.623047"/>
       <use xlink:href="#DejaVuSans-30" x="95.410156"/>
       <use xlink:href="#DejaVuSans-30" x="159.033203"/>
       <use xlink:href="#DejaVuSans-35" x="222.65625"/>
      </g>
     </g>
    </g>
    <g id="xtick_10">
     <g id="line2d_27">
      <path d="M 388.564909 165.189968 
L 388.564909 120.718708 
" clip-path="url(#p375d533888)" style="fill: none; stroke: #b0b0b0; stroke-width: 0.8; stroke-linecap: square"/>
     </g>
     <g id="line2d_28">
      <g>
       <use xlink:href="#md8ae67880b" x="388.564909" y="165.189968" style="stroke: #000000; stroke-width: 0.8"/>
      </g>
     </g>
     <g id="text_16">
      <!-- 0.010 -->
      <g transform="translate(374.250847 179.788406)scale(0.1 -0.1)">
       <use xlink:href="#DejaVuSans-30"/>
       <use xlink:href="#DejaVuSans-2e" x="63.623047"/>
       <use xlink:href="#DejaVuSans-30" x="95.410156"/>
       <use xlink:href="#DejaVuSans-31" x="159.033203"/>
       <use xlink:href="#DejaVuSans-30" x="222.65625"/>
      </g>
     </g>
    </g>
    <g id="xtick_11">
     <g id="line2d_29">
      <path d="M 504.054 165.189968 
L 504.054 120.718708 
" clip-path="url(#p375d533888)" style="fill: none; stroke: #b0b0b0; stroke-width: 0.8; stroke-linecap: square"/>
     </g>
     <g id="line2d_30">
      <g>
       <use xlink:href="#md8ae67880b" x="504.054" y="165.189968" style="stroke: #000000; stroke-width: 0.8"/>
      </g>
     </g>
     <g id="text_17">
      <!-- 0.015 -->
      <g transform="translate(489.739938 179.788406)scale(0.1 -0.1)">
       <use xlink:href="#DejaVuSans-30"/>
       <use xlink:href="#DejaVuSans-2e" x="63.623047"/>
       <use xlink:href="#DejaVuSans-30" x="95.410156"/>
       <use xlink:href="#DejaVuSans-31" x="159.033203"/>
       <use xlink:href="#DejaVuSans-35" x="222.65625"/>
      </g>
     </g>
    </g>
    <g id="xtick_12">
     <g id="line2d_31">
      <path d="M 619.543091 165.189968 
L 619.543091 120.718708 
" clip-path="url(#p375d533888)" style="fill: none; stroke: #b0b0b0; stroke-width: 0.8; stroke-linecap: square"/>
     </g>
     <g id="line2d_32">
      <g>
       <use xlink:href="#md8ae67880b" x="619.543091" y="165.189968" style="stroke: #000000; stroke-width: 0.8"/>
      </g>
     </g>
     <g id="text_18">
      <!-- 0.020 -->
      <g transform="translate(605.229028 179.788406)scale(0.1 -0.1)">
       <use xlink:href="#DejaVuSans-30"/>
       <use xlink:href="#DejaVuSans-2e" x="63.623047"/>
       <use xlink:href="#DejaVuSans-30" x="95.410156"/>
       <use xlink:href="#DejaVuSans-32" x="159.033203"/>
       <use xlink:href="#DejaVuSans-30" x="222.65625"/>
      </g>
     </g>
    </g>
    <g id="xtick_13">
     <g id="line2d_33">
      <path d="M 735.032182 165.189968 
L 735.032182 120.718708 
" clip-path="url(#p375d533888)" style="fill: none; stroke: #b0b0b0; stroke-width: 0.8; stroke-linecap: square"/>
     </g>
     <g id="line2d_34">
      <g>
       <use xlink:href="#md8ae67880b" x="735.032182" y="165.189968" style="stroke: #000000; stroke-width: 0.8"/>
      </g>
     </g>
     <g id="text_19">
      <!-- 0.025 -->
      <g transform="translate(720.718119 179.788406)scale(0.1 -0.1)">
       <use xlink:href="#DejaVuSans-30"/>
       <use xlink:href="#DejaVuSans-2e" x="63.623047"/>
       <use xlink:href="#DejaVuSans-30" x="95.410156"/>
       <use xlink:href="#DejaVuSans-32" x="159.033203"/>
       <use xlink:href="#DejaVuSans-35" x="222.65625"/>
      </g>
     </g>
    </g>
    <g id="xtick_14">
     <g id="line2d_35">
      <path d="M 850.521273 165.189968 
L 850.521273 120.718708 
" clip-path="url(#p375d533888)" style="fill: none; stroke: #b0b0b0; stroke-width: 0.8; stroke-linecap: square"/>
     </g>
     <g id="line2d_36">
      <g>
       <use xlink:href="#md8ae67880b" x="850.521273" y="165.189968" style="stroke: #000000; stroke-width: 0.8"/>
      </g>
     </g>
     <g id="text_20">
      <!-- 0.030 -->
      <g transform="translate(836.20721 179.788406)scale(0.1 -0.1)">
       <use xlink:href="#DejaVuSans-30"/>
       <use xlink:href="#DejaVuSans-2e" x="63.623047"/>
       <use xlink:href="#DejaVuSans-30" x="95.410156"/>
       <use xlink:href="#DejaVuSans-33" x="159.033203"/>
       <use xlink:href="#DejaVuSans-30" x="222.65625"/>
      </g>
     </g>
    </g>
    <g id="text_21">
     <!-- temps en s -->
     <g transform="translate(476.339938 193.466531)scale(0.1 -0.1)">
      <use xlink:href="#DejaVuSans-74"/>
      <use xlink:href="#DejaVuSans-65" x="39.208984"/>
      <use xlink:href="#DejaVuSans-6d" x="100.732422"/>
      <use xlink:href="#DejaVuSans-70" x="198.144531"/>
      <use xlink:href="#DejaVuSans-73" x="261.621094"/>
      <use xlink:href="#DejaVuSans-20" x="313.720703"/>
      <use xlink:href="#DejaVuSans-65" x="345.507812"/>
      <use xlink:href="#DejaVuSans-6e" x="407.03125"/>
      <use xlink:href="#DejaVuSans-20" x="470.410156"/>
      <use xlink:href="#DejaVuSans-73" x="502.197266"/>
     </g>
    </g>
   </g>
   <g id="matplotlib.axis_4">
    <g id="ytick_4">
     <g id="line2d_37">
      <path d="M 122.94 154.177824 
L 885.168 154.177824 
" clip-path="url(#p375d533888)" style="fill: none; stroke: #b0b0b0; stroke-width: 0.8; stroke-linecap: square"/>
     </g>
     <g id="line2d_38">
      <g>
       <use xlink:href="#m99b31651b8" x="122.94" y="154.177824" style="stroke: #000000; stroke-width: 0.8"/>
      </g>
     </g>
     <g id="text_22">
      <!-- −0.5 -->
      <g transform="translate(91.657187 157.977042)scale(0.1 -0.1)">
       <use xlink:href="#DejaVuSans-2212"/>
       <use xlink:href="#DejaVuSans-30" x="83.789062"/>
       <use xlink:href="#DejaVuSans-2e" x="147.412109"/>
       <use xlink:href="#DejaVuSans-35" x="179.199219"/>
      </g>
     </g>
    </g>
    <g id="ytick_5">
     <g id="line2d_39">
      <path d="M 122.94 142.955148 
L 885.168 142.955148 
" clip-path="url(#p375d533888)" style="fill: none; stroke: #b0b0b0; stroke-width: 0.8; stroke-linecap: square"/>
     </g>
     <g id="line2d_40">
      <g>
       <use xlink:href="#m99b31651b8" x="122.94" y="142.955148" style="stroke: #000000; stroke-width: 0.8"/>
      </g>
     </g>
     <g id="text_23">
      <!-- 0.0 -->
      <g transform="translate(100.036875 146.754367)scale(0.1 -0.1)">
       <use xlink:href="#DejaVuSans-30"/>
       <use xlink:href="#DejaVuSans-2e" x="63.623047"/>
       <use xlink:href="#DejaVuSans-30" x="95.410156"/>
      </g>
     </g>
    </g>
    <g id="ytick_6">
     <g id="line2d_41">
      <path d="M 122.94 131.732472 
L 885.168 131.732472 
" clip-path="url(#p375d533888)" style="fill: none; stroke: #b0b0b0; stroke-width: 0.8; stroke-linecap: square"/>
     </g>
     <g id="line2d_42">
      <g>
       <use xlink:href="#m99b31651b8" x="122.94" y="131.732472" style="stroke: #000000; stroke-width: 0.8"/>
      </g>
     </g>
     <g id="text_24">
      <!-- 0.5 -->
      <g transform="translate(100.036875 135.531691)scale(0.1 -0.1)">
       <use xlink:href="#DejaVuSans-30"/>
       <use xlink:href="#DejaVuSans-2e" x="63.623047"/>
       <use xlink:href="#DejaVuSans-35" x="95.410156"/>
      </g>
     </g>
    </g>
    <g id="text_25">
     <!-- e(t) en V -->
     <g transform="translate(85.5775 164.736369)rotate(-90)scale(0.1 -0.1)">
      <use xlink:href="#DejaVuSans-65"/>
      <use xlink:href="#DejaVuSans-28" x="61.523438"/>
      <use xlink:href="#DejaVuSans-74" x="100.537109"/>
      <use xlink:href="#DejaVuSans-29" x="139.746094"/>
      <use xlink:href="#DejaVuSans-20" x="178.759766"/>
      <use xlink:href="#DejaVuSans-65" x="210.546875"/>
      <use xlink:href="#DejaVuSans-6e" x="272.070312"/>
      <use xlink:href="#DejaVuSans-20" x="335.449219"/>
      <use xlink:href="#DejaVuSans-56" x="367.236328"/>
     </g>
    </g>
   </g>
   <g id="line2d_43">
    <path d="M 157.586727 122.740129 
L 160.36124 122.843519 
L 163.135753 123.150759 
L 165.910265 123.6532 
L 169.378406 124.534013 
L 172.846547 125.660333 
L 177.008316 127.270791 
L 182.557342 129.710029 
L 197.817161 136.612756 
L 203.366187 138.812351 
L 209.60884 141.044574 
L 229.030429 147.761406 
L 234.579455 150.030404 
L 241.515736 153.139568 
L 253.307415 158.495096 
L 257.469184 160.125541 
L 260.937325 161.273997 
L 264.405466 162.181207 
L 267.179979 162.707169 
L 269.954491 163.039396 
L 272.729004 163.168547 
L 275.503517 163.090965 
L 278.278029 162.808847 
L 281.052542 162.330146 
L 284.520683 161.476105 
L 287.988824 160.372385 
L 292.150593 158.782537 
L 297.00599 156.674398 
L 315.040323 148.586123 
L 320.589348 146.455025 
L 327.52563 144.046554 
L 341.398193 139.328257 
L 346.947219 137.183641 
L 353.189872 134.511228 
L 362.900667 130.028856 
L 369.14332 127.270791 
L 373.305089 125.660333 
L 376.77323 124.534013 
L 380.241371 123.6532 
L 383.015884 123.150759 
L 385.790396 122.843519 
L 388.564909 122.740129 
L 391.339422 122.843519 
L 394.113934 123.150759 
L 396.888447 123.6532 
L 400.356588 124.534013 
L 403.824729 125.660333 
L 407.986498 127.270791 
L 413.535523 129.710029 
L 428.795343 136.612756 
L 434.344369 138.812351 
L 440.587022 141.044574 
L 460.008611 147.761406 
L 465.557636 150.030404 
L 472.493918 153.139568 
L 484.285597 158.495096 
L 488.447366 160.125541 
L 491.915507 161.273997 
L 495.383648 162.181207 
L 498.158161 162.707169 
L 500.932673 163.039396 
L 503.707186 163.168547 
L 506.481699 163.090965 
L 509.256211 162.808847 
L 512.030724 162.330146 
L 515.498865 161.476105 
L 518.967006 160.372385 
L 523.128775 158.782537 
L 527.984172 156.674398 
L 546.018505 148.586123 
L 551.56753 146.455025 
L 558.503812 144.046554 
L 572.376375 139.328257 
L 577.9254 137.183641 
L 584.168054 134.511228 
L 593.878848 130.028856 
L 600.121502 127.270791 
L 604.283271 125.660333 
L 607.751412 124.534013 
L 611.219553 123.6532 
L 613.994066 123.150759 
L 616.768578 122.843519 
L 619.543091 122.740129 
L 622.317604 122.843519 
L 625.092116 123.150759 
L 627.866629 123.6532 
L 631.33477 124.534013 
L 634.802911 125.660333 
L 638.96468 127.270791 
L 644.513705 129.710029 
L 659.773525 136.612756 
L 665.32255 138.812351 
L 671.565204 141.044574 
L 690.986793 147.761406 
L 696.535818 150.030404 
L 703.4721 153.139568 
L 715.263779 158.495096 
L 719.425548 160.125541 
L 722.893689 161.273997 
L 726.36183 162.181207 
L 729.136342 162.707169 
L 731.910855 163.039396 
L 734.685368 163.168547 
L 737.45988 163.090965 
L 740.234393 162.808847 
L 743.008906 162.330146 
L 746.477047 161.476105 
L 749.945188 160.372385 
L 754.106957 158.782537 
L 758.962354 156.674398 
L 776.996686 148.586123 
L 782.545712 146.455025 
L 789.481993 144.046554 
L 803.354557 139.328257 
L 808.903582 137.183641 
L 815.146236 134.511228 
L 824.85703 130.028856 
L 831.099684 127.270791 
L 835.261453 125.660333 
L 838.729594 124.534013 
L 842.197735 123.6532 
L 844.972247 123.150759 
L 847.74676 122.843519 
L 850.521273 122.740129 
L 850.521273 122.740129 
" clip-path="url(#p375d533888)" style="fill: none; stroke: #ff0000; stroke-width: 1.5; stroke-linecap: square"/>
   </g>
   <g id="patch_9">
    <path d="M 122.94 165.189968 
L 122.94 120.718708 
" style="fill: none; stroke: #000000; stroke-width: 0.8; stroke-linejoin: miter; stroke-linecap: square"/>
   </g>
   <g id="patch_10">
    <path d="M 885.168 165.189968 
L 885.168 120.718708 
" style="fill: none; stroke: #000000; stroke-width: 0.8; stroke-linejoin: miter; stroke-linecap: square"/>
   </g>
   <g id="patch_11">
    <path d="M 122.94 165.189968 
L 885.168 165.189968 
" style="fill: none; stroke: #000000; stroke-width: 0.8; stroke-linejoin: miter; stroke-linecap: square"/>
   </g>
   <g id="patch_12">
    <path d="M 122.94 120.718708 
L 885.168 120.718708 
" style="fill: none; stroke: #000000; stroke-width: 0.8; stroke-linejoin: miter; stroke-linecap: square"/>
   </g>
   <g id="legend_2">
    <g id="patch_13">
     <path d="M 129.94 160.189968 
L 192.554062 160.189968 
Q 194.554062 160.189968 194.554062 158.189968 
L 194.554062 144.511843 
Q 194.554062 142.511843 192.554062 142.511843 
L 129.94 142.511843 
Q 127.94 142.511843 127.94 144.511843 
L 127.94 158.189968 
Q 127.94 160.189968 129.94 160.189968 
z
" style="fill: #ffffff; opacity: 0.8; stroke: #cccccc; stroke-linejoin: miter"/>
    </g>
    <g id="line2d_44">
     <path d="M 131.94 150.610281 
L 141.94 150.610281 
L 151.94 150.610281 
" style="fill: none; stroke: #ff0000; stroke-width: 1.5; stroke-linecap: square"/>
    </g>
    <g id="text_26">
     <!--  n = 2 -->
     <g transform="translate(159.94 154.110281)scale(0.1 -0.1)">
      <use xlink:href="#DejaVuSans-20"/>
      <use xlink:href="#DejaVuSans-6e" x="31.787109"/>
      <use xlink:href="#DejaVuSans-20" x="95.166016"/>
      <use xlink:href="#DejaVuSans-3d" x="126.953125"/>
      <use xlink:href="#DejaVuSans-20" x="210.742188"/>
      <use xlink:href="#DejaVuSans-32" x="242.529297"/>
     </g>
    </g>
   </g>
  </g>
  <g id="axes_3">
   <g id="patch_14">
    <path d="M 122.94 229.143876 
L 885.168 229.143876 
L 885.168 184.672616 
L 122.94 184.672616 
z
" style="fill: #ffffff"/>
   </g>
   <g id="matplotlib.axis_5">
    <g id="xtick_15">
     <g id="line2d_45">
      <path d="M 157.586727 229.143876 
L 157.586727 184.672616 
" clip-path="url(#p9a6d84b497)" style="fill: none; stroke: #b0b0b0; stroke-width: 0.8; stroke-linecap: square"/>
     </g>
     <g id="line2d_46">
      <g>
       <use xlink:href="#md8ae67880b" x="157.586727" y="229.143876" style="stroke: #000000; stroke-width: 0.8"/>
      </g>
     </g>
     <g id="text_27">
      <!-- 0.000 -->
      <g transform="translate(143.272665 243.742314)scale(0.1 -0.1)">
       <use xlink:href="#DejaVuSans-30"/>
       <use xlink:href="#DejaVuSans-2e" x="63.623047"/>
       <use xlink:href="#DejaVuSans-30" x="95.410156"/>
       <use xlink:href="#DejaVuSans-30" x="159.033203"/>
       <use xlink:href="#DejaVuSans-30" x="222.65625"/>
      </g>
     </g>
    </g>
    <g id="xtick_16">
     <g id="line2d_47">
      <path d="M 273.075818 229.143876 
L 273.075818 184.672616 
" clip-path="url(#p9a6d84b497)" style="fill: none; stroke: #b0b0b0; stroke-width: 0.8; stroke-linecap: square"/>
     </g>
     <g id="line2d_48">
      <g>
       <use xlink:href="#md8ae67880b" x="273.075818" y="229.143876" style="stroke: #000000; stroke-width: 0.8"/>
      </g>
     </g>
     <g id="text_28">
      <!-- 0.005 -->
      <g transform="translate(258.761756 243.742314)scale(0.1 -0.1)">
       <use xlink:href="#DejaVuSans-30"/>
       <use xlink:href="#DejaVuSans-2e" x="63.623047"/>
       <use xlink:href="#DejaVuSans-30" x="95.410156"/>
       <use xlink:href="#DejaVuSans-30" x="159.033203"/>
       <use xlink:href="#DejaVuSans-35" x="222.65625"/>
      </g>
     </g>
    </g>
    <g id="xtick_17">
     <g id="line2d_49">
      <path d="M 388.564909 229.143876 
L 388.564909 184.672616 
" clip-path="url(#p9a6d84b497)" style="fill: none; stroke: #b0b0b0; stroke-width: 0.8; stroke-linecap: square"/>
     </g>
     <g id="line2d_50">
      <g>
       <use xlink:href="#md8ae67880b" x="388.564909" y="229.143876" style="stroke: #000000; stroke-width: 0.8"/>
      </g>
     </g>
     <g id="text_29">
      <!-- 0.010 -->
      <g transform="translate(374.250847 243.742314)scale(0.1 -0.1)">
       <use xlink:href="#DejaVuSans-30"/>
       <use xlink:href="#DejaVuSans-2e" x="63.623047"/>
       <use xlink:href="#DejaVuSans-30" x="95.410156"/>
       <use xlink:href="#DejaVuSans-31" x="159.033203"/>
       <use xlink:href="#DejaVuSans-30" x="222.65625"/>
      </g>
     </g>
    </g>
    <g id="xtick_18">
     <g id="line2d_51">
      <path d="M 504.054 229.143876 
L 504.054 184.672616 
" clip-path="url(#p9a6d84b497)" style="fill: none; stroke: #b0b0b0; stroke-width: 0.8; stroke-linecap: square"/>
     </g>
     <g id="line2d_52">
      <g>
       <use xlink:href="#md8ae67880b" x="504.054" y="229.143876" style="stroke: #000000; stroke-width: 0.8"/>
      </g>
     </g>
     <g id="text_30">
      <!-- 0.015 -->
      <g transform="translate(489.739938 243.742314)scale(0.1 -0.1)">
       <use xlink:href="#DejaVuSans-30"/>
       <use xlink:href="#DejaVuSans-2e" x="63.623047"/>
       <use xlink:href="#DejaVuSans-30" x="95.410156"/>
       <use xlink:href="#DejaVuSans-31" x="159.033203"/>
       <use xlink:href="#DejaVuSans-35" x="222.65625"/>
      </g>
     </g>
    </g>
    <g id="xtick_19">
     <g id="line2d_53">
      <path d="M 619.543091 229.143876 
L 619.543091 184.672616 
" clip-path="url(#p9a6d84b497)" style="fill: none; stroke: #b0b0b0; stroke-width: 0.8; stroke-linecap: square"/>
     </g>
     <g id="line2d_54">
      <g>
       <use xlink:href="#md8ae67880b" x="619.543091" y="229.143876" style="stroke: #000000; stroke-width: 0.8"/>
      </g>
     </g>
     <g id="text_31">
      <!-- 0.020 -->
      <g transform="translate(605.229028 243.742314)scale(0.1 -0.1)">
       <use xlink:href="#DejaVuSans-30"/>
       <use xlink:href="#DejaVuSans-2e" x="63.623047"/>
       <use xlink:href="#DejaVuSans-30" x="95.410156"/>
       <use xlink:href="#DejaVuSans-32" x="159.033203"/>
       <use xlink:href="#DejaVuSans-30" x="222.65625"/>
      </g>
     </g>
    </g>
    <g id="xtick_20">
     <g id="line2d_55">
      <path d="M 735.032182 229.143876 
L 735.032182 184.672616 
" clip-path="url(#p9a6d84b497)" style="fill: none; stroke: #b0b0b0; stroke-width: 0.8; stroke-linecap: square"/>
     </g>
     <g id="line2d_56">
      <g>
       <use xlink:href="#md8ae67880b" x="735.032182" y="229.143876" style="stroke: #000000; stroke-width: 0.8"/>
      </g>
     </g>
     <g id="text_32">
      <!-- 0.025 -->
      <g transform="translate(720.718119 243.742314)scale(0.1 -0.1)">
       <use xlink:href="#DejaVuSans-30"/>
       <use xlink:href="#DejaVuSans-2e" x="63.623047"/>
       <use xlink:href="#DejaVuSans-30" x="95.410156"/>
       <use xlink:href="#DejaVuSans-32" x="159.033203"/>
       <use xlink:href="#DejaVuSans-35" x="222.65625"/>
      </g>
     </g>
    </g>
    <g id="xtick_21">
     <g id="line2d_57">
      <path d="M 850.521273 229.143876 
L 850.521273 184.672616 
" clip-path="url(#p9a6d84b497)" style="fill: none; stroke: #b0b0b0; stroke-width: 0.8; stroke-linecap: square"/>
     </g>
     <g id="line2d_58">
      <g>
       <use xlink:href="#md8ae67880b" x="850.521273" y="229.143876" style="stroke: #000000; stroke-width: 0.8"/>
      </g>
     </g>
     <g id="text_33">
      <!-- 0.030 -->
      <g transform="translate(836.20721 243.742314)scale(0.1 -0.1)">
       <use xlink:href="#DejaVuSans-30"/>
       <use xlink:href="#DejaVuSans-2e" x="63.623047"/>
       <use xlink:href="#DejaVuSans-30" x="95.410156"/>
       <use xlink:href="#DejaVuSans-33" x="159.033203"/>
       <use xlink:href="#DejaVuSans-30" x="222.65625"/>
      </g>
     </g>
    </g>
    <g id="text_34">
     <!-- temps en s -->
     <g transform="translate(476.339938 257.420439)scale(0.1 -0.1)">
      <use xlink:href="#DejaVuSans-74"/>
      <use xlink:href="#DejaVuSans-65" x="39.208984"/>
      <use xlink:href="#DejaVuSans-6d" x="100.732422"/>
      <use xlink:href="#DejaVuSans-70" x="198.144531"/>
      <use xlink:href="#DejaVuSans-73" x="261.621094"/>
      <use xlink:href="#DejaVuSans-20" x="313.720703"/>
      <use xlink:href="#DejaVuSans-65" x="345.507812"/>
      <use xlink:href="#DejaVuSans-6e" x="407.03125"/>
      <use xlink:href="#DejaVuSans-20" x="470.410156"/>
      <use xlink:href="#DejaVuSans-73" x="502.197266"/>
     </g>
    </g>
   </g>
   <g id="matplotlib.axis_6">
    <g id="ytick_7">
     <g id="line2d_59">
      <path d="M 122.94 228.575204 
L 885.168 228.575204 
" clip-path="url(#p9a6d84b497)" style="fill: none; stroke: #b0b0b0; stroke-width: 0.8; stroke-linecap: square"/>
     </g>
     <g id="line2d_60">
      <g>
       <use xlink:href="#m99b31651b8" x="122.94" y="228.575204" style="stroke: #000000; stroke-width: 0.8"/>
      </g>
     </g>
     <g id="text_35">
      <!-- −1 -->
      <g transform="translate(101.197812 232.374423)scale(0.1 -0.1)">
       <use xlink:href="#DejaVuSans-2212"/>
       <use xlink:href="#DejaVuSans-31" x="83.789062"/>
      </g>
     </g>
    </g>
    <g id="ytick_8">
     <g id="line2d_61">
      <path d="M 122.94 206.909418 
L 885.168 206.909418 
" clip-path="url(#p9a6d84b497)" style="fill: none; stroke: #b0b0b0; stroke-width: 0.8; stroke-linecap: square"/>
     </g>
     <g id="line2d_62">
      <g>
       <use xlink:href="#m99b31651b8" x="122.94" y="206.909418" style="stroke: #000000; stroke-width: 0.8"/>
      </g>
     </g>
     <g id="text_36">
      <!-- 0 -->
      <g transform="translate(109.5775 210.708637)scale(0.1 -0.1)">
       <use xlink:href="#DejaVuSans-30"/>
      </g>
     </g>
    </g>
    <g id="ytick_9">
     <g id="line2d_63">
      <path d="M 122.94 185.243632 
L 885.168 185.243632 
" clip-path="url(#p9a6d84b497)" style="fill: none; stroke: #b0b0b0; stroke-width: 0.8; stroke-linecap: square"/>
     </g>
     <g id="line2d_64">
      <g>
       <use xlink:href="#m99b31651b8" x="122.94" y="185.243632" style="stroke: #000000; stroke-width: 0.8"/>
      </g>
     </g>
     <g id="text_37">
      <!-- 1 -->
      <g transform="translate(109.5775 189.042851)scale(0.1 -0.1)">
       <use xlink:href="#DejaVuSans-31"/>
      </g>
     </g>
    </g>
    <g id="text_38">
     <!-- e(t) en V -->
     <g transform="translate(95.118125 228.690277)rotate(-90)scale(0.1 -0.1)">
      <use xlink:href="#DejaVuSans-65"/>
      <use xlink:href="#DejaVuSans-28" x="61.523438"/>
      <use xlink:href="#DejaVuSans-74" x="100.537109"/>
      <use xlink:href="#DejaVuSans-29" x="139.746094"/>
      <use xlink:href="#DejaVuSans-20" x="178.759766"/>
      <use xlink:href="#DejaVuSans-65" x="210.546875"/>
      <use xlink:href="#DejaVuSans-6e" x="272.070312"/>
      <use xlink:href="#DejaVuSans-20" x="335.449219"/>
      <use xlink:href="#DejaVuSans-56" x="367.236328"/>
     </g>
    </g>
   </g>
   <g id="line2d_65">
    <path d="M 157.586727 186.694037 
L 159.667612 186.77818 
L 162.442124 187.145874 
L 165.216637 187.782647 
L 167.99115 188.648411 
L 171.459291 189.972987 
L 177.008316 192.386273 
L 183.944598 195.37603 
L 188.799995 197.239813 
L 195.042649 199.384074 
L 204.753443 202.712149 
L 210.996097 205.128624 
L 226.949545 211.485102 
L 233.885826 213.860531 
L 242.902993 216.960624 
L 247.75839 218.870171 
L 254.001043 221.587194 
L 260.243697 224.265612 
L 263.711838 225.518826 
L 266.486351 226.304277 
L 269.260863 226.844053 
L 272.035376 227.103715 
L 274.11626 227.103715 
L 276.890773 226.844053 
L 279.665286 226.304277 
L 282.439799 225.518826 
L 285.907939 224.265612 
L 290.763337 222.204344 
L 299.780503 218.302509 
L 304.6359 216.453792 
L 311.572182 214.090172 
L 319.89572 211.233622 
L 326.138373 208.830215 
L 342.78545 202.209168 
L 349.721731 199.84346 
L 358.045269 196.986425 
L 362.900667 195.09218 
L 369.14332 192.386273 
L 375.385974 189.691321 
L 378.854115 188.413187 
L 381.628627 187.600179 
L 384.40314 187.027487 
L 387.177653 186.731498 
L 389.258537 186.703412 
L 392.03305 186.926479 
L 394.807563 187.432795 
L 397.582075 188.189933 
L 401.050216 189.417107 
L 405.211985 191.155774 
L 416.310036 195.930567 
L 421.859061 197.977885 
L 439.893394 204.297401 
L 448.91056 207.983254 
L 455.846842 210.721044 
L 462.089495 212.934137 
L 475.268431 217.484101 
L 480.123828 219.454207 
L 493.996391 225.28948 
L 496.770904 226.129265 
L 499.545417 226.7343 
L 502.31993 227.066312 
L 504.400814 227.122455 
L 506.481699 227.0104 
L 509.256211 226.6074 
L 512.030724 225.93952 
L 514.805237 225.048595 
L 518.273378 223.702512 
L 524.516031 220.969271 
L 530.758685 218.302509 
L 535.614082 216.453792 
L 542.550364 214.090172 
L 550.873902 211.233622 
L 557.116555 208.830215 
L 573.763631 202.209168 
L 580.699913 199.84346 
L 589.023451 196.986425 
L 593.878848 195.09218 
L 600.121502 192.386273 
L 606.364156 189.691321 
L 609.832296 188.413187 
L 612.606809 187.600179 
L 615.381322 187.027487 
L 618.155835 186.731498 
L 620.236719 186.703412 
L 623.011232 186.926479 
L 625.785744 187.432795 
L 628.560257 188.189933 
L 632.028398 189.417107 
L 636.190167 191.155774 
L 647.288218 195.930567 
L 652.837243 197.977885 
L 670.871576 204.297401 
L 679.888742 207.983254 
L 686.825024 210.721044 
L 693.067677 212.934137 
L 706.246613 217.484101 
L 711.10201 219.454207 
L 724.974573 225.28948 
L 727.749086 226.129265 
L 730.523599 226.7343 
L 733.298111 227.066312 
L 735.378996 227.122455 
L 737.45988 227.0104 
L 740.234393 226.6074 
L 743.008906 225.93952 
L 745.783419 225.048595 
L 749.251559 223.702512 
L 755.494213 220.969271 
L 761.736867 218.302509 
L 766.592264 216.453792 
L 773.528545 214.090172 
L 781.852084 211.233622 
L 788.094737 208.830215 
L 804.741813 202.209168 
L 811.678095 199.84346 
L 820.001633 196.986425 
L 824.85703 195.09218 
L 831.099684 192.386273 
L 837.342337 189.691321 
L 840.810478 188.413187 
L 843.584991 187.600179 
L 846.359504 187.027487 
L 849.134016 186.731498 
L 850.521273 186.694037 
L 850.521273 186.694037 
" clip-path="url(#p9a6d84b497)" style="fill: none; stroke: #ff0000; stroke-width: 1.5; stroke-linecap: square"/>
   </g>
   <g id="patch_15">
    <path d="M 122.94 229.143876 
L 122.94 184.672616 
" style="fill: none; stroke: #000000; stroke-width: 0.8; stroke-linejoin: miter; stroke-linecap: square"/>
   </g>
   <g id="patch_16">
    <path d="M 885.168 229.143876 
L 885.168 184.672616 
" style="fill: none; stroke: #000000; stroke-width: 0.8; stroke-linejoin: miter; stroke-linecap: square"/>
   </g>
   <g id="patch_17">
    <path d="M 122.94 229.143876 
L 885.168 229.143876 
" style="fill: none; stroke: #000000; stroke-width: 0.8; stroke-linejoin: miter; stroke-linecap: square"/>
   </g>
   <g id="patch_18">
    <path d="M 122.94 184.672616 
L 885.168 184.672616 
" style="fill: none; stroke: #000000; stroke-width: 0.8; stroke-linejoin: miter; stroke-linecap: square"/>
   </g>
   <g id="legend_3">
    <g id="patch_19">
     <path d="M 129.94 224.143876 
L 192.554062 224.143876 
Q 194.554062 224.143876 194.554062 222.143876 
L 194.554062 208.465751 
Q 194.554062 206.465751 192.554062 206.465751 
L 129.94 206.465751 
Q 127.94 206.465751 127.94 208.465751 
L 127.94 222.143876 
Q 127.94 224.143876 129.94 224.143876 
z
" style="fill: #ffffff; opacity: 0.8; stroke: #cccccc; stroke-linejoin: miter"/>
    </g>
    <g id="line2d_66">
     <path d="M 131.94 214.564189 
L 141.94 214.564189 
L 151.94 214.564189 
" style="fill: none; stroke: #ff0000; stroke-width: 1.5; stroke-linecap: square"/>
    </g>
    <g id="text_39">
     <!--  n = 3 -->
     <g transform="translate(159.94 218.064189)scale(0.1 -0.1)">
      <use xlink:href="#DejaVuSans-20"/>
      <use xlink:href="#DejaVuSans-6e" x="31.787109"/>
      <use xlink:href="#DejaVuSans-20" x="95.166016"/>
      <use xlink:href="#DejaVuSans-3d" x="126.953125"/>
      <use xlink:href="#DejaVuSans-20" x="210.742188"/>
      <use xlink:href="#DejaVuSans-33" x="242.529297"/>
     </g>
    </g>
   </g>
  </g>
  <g id="axes_4">
   <g id="patch_20">
    <path d="M 122.94 293.097784 
L 885.168 293.097784 
L 885.168 248.626524 
L 122.94 248.626524 
z
" style="fill: #ffffff"/>
   </g>
   <g id="matplotlib.axis_7">
    <g id="xtick_22">
     <g id="line2d_67">
      <path d="M 157.586727 293.097784 
L 157.586727 248.626524 
" clip-path="url(#p0f59810f9e)" style="fill: none; stroke: #b0b0b0; stroke-width: 0.8; stroke-linecap: square"/>
     </g>
     <g id="line2d_68">
      <g>
       <use xlink:href="#md8ae67880b" x="157.586727" y="293.097784" style="stroke: #000000; stroke-width: 0.8"/>
      </g>
     </g>
     <g id="text_40">
      <!-- 0.000 -->
      <g transform="translate(143.272665 307.696222)scale(0.1 -0.1)">
       <use xlink:href="#DejaVuSans-30"/>
       <use xlink:href="#DejaVuSans-2e" x="63.623047"/>
       <use xlink:href="#DejaVuSans-30" x="95.410156"/>
       <use xlink:href="#DejaVuSans-30" x="159.033203"/>
       <use xlink:href="#DejaVuSans-30" x="222.65625"/>
      </g>
     </g>
    </g>
    <g id="xtick_23">
     <g id="line2d_69">
      <path d="M 273.075818 293.097784 
L 273.075818 248.626524 
" clip-path="url(#p0f59810f9e)" style="fill: none; stroke: #b0b0b0; stroke-width: 0.8; stroke-linecap: square"/>
     </g>
     <g id="line2d_70">
      <g>
       <use xlink:href="#md8ae67880b" x="273.075818" y="293.097784" style="stroke: #000000; stroke-width: 0.8"/>
      </g>
     </g>
     <g id="text_41">
      <!-- 0.005 -->
      <g transform="translate(258.761756 307.696222)scale(0.1 -0.1)">
       <use xlink:href="#DejaVuSans-30"/>
       <use xlink:href="#DejaVuSans-2e" x="63.623047"/>
       <use xlink:href="#DejaVuSans-30" x="95.410156"/>
       <use xlink:href="#DejaVuSans-30" x="159.033203"/>
       <use xlink:href="#DejaVuSans-35" x="222.65625"/>
      </g>
     </g>
    </g>
    <g id="xtick_24">
     <g id="line2d_71">
      <path d="M 388.564909 293.097784 
L 388.564909 248.626524 
" clip-path="url(#p0f59810f9e)" style="fill: none; stroke: #b0b0b0; stroke-width: 0.8; stroke-linecap: square"/>
     </g>
     <g id="line2d_72">
      <g>
       <use xlink:href="#md8ae67880b" x="388.564909" y="293.097784" style="stroke: #000000; stroke-width: 0.8"/>
      </g>
     </g>
     <g id="text_42">
      <!-- 0.010 -->
      <g transform="translate(374.250847 307.696222)scale(0.1 -0.1)">
       <use xlink:href="#DejaVuSans-30"/>
       <use xlink:href="#DejaVuSans-2e" x="63.623047"/>
       <use xlink:href="#DejaVuSans-30" x="95.410156"/>
       <use xlink:href="#DejaVuSans-31" x="159.033203"/>
       <use xlink:href="#DejaVuSans-30" x="222.65625"/>
      </g>
     </g>
    </g>
    <g id="xtick_25">
     <g id="line2d_73">
      <path d="M 504.054 293.097784 
L 504.054 248.626524 
" clip-path="url(#p0f59810f9e)" style="fill: none; stroke: #b0b0b0; stroke-width: 0.8; stroke-linecap: square"/>
     </g>
     <g id="line2d_74">
      <g>
       <use xlink:href="#md8ae67880b" x="504.054" y="293.097784" style="stroke: #000000; stroke-width: 0.8"/>
      </g>
     </g>
     <g id="text_43">
      <!-- 0.015 -->
      <g transform="translate(489.739938 307.696222)scale(0.1 -0.1)">
       <use xlink:href="#DejaVuSans-30"/>
       <use xlink:href="#DejaVuSans-2e" x="63.623047"/>
       <use xlink:href="#DejaVuSans-30" x="95.410156"/>
       <use xlink:href="#DejaVuSans-31" x="159.033203"/>
       <use xlink:href="#DejaVuSans-35" x="222.65625"/>
      </g>
     </g>
    </g>
    <g id="xtick_26">
     <g id="line2d_75">
      <path d="M 619.543091 293.097784 
L 619.543091 248.626524 
" clip-path="url(#p0f59810f9e)" style="fill: none; stroke: #b0b0b0; stroke-width: 0.8; stroke-linecap: square"/>
     </g>
     <g id="line2d_76">
      <g>
       <use xlink:href="#md8ae67880b" x="619.543091" y="293.097784" style="stroke: #000000; stroke-width: 0.8"/>
      </g>
     </g>
     <g id="text_44">
      <!-- 0.020 -->
      <g transform="translate(605.229028 307.696222)scale(0.1 -0.1)">
       <use xlink:href="#DejaVuSans-30"/>
       <use xlink:href="#DejaVuSans-2e" x="63.623047"/>
       <use xlink:href="#DejaVuSans-30" x="95.410156"/>
       <use xlink:href="#DejaVuSans-32" x="159.033203"/>
       <use xlink:href="#DejaVuSans-30" x="222.65625"/>
      </g>
     </g>
    </g>
    <g id="xtick_27">
     <g id="line2d_77">
      <path d="M 735.032182 293.097784 
L 735.032182 248.626524 
" clip-path="url(#p0f59810f9e)" style="fill: none; stroke: #b0b0b0; stroke-width: 0.8; stroke-linecap: square"/>
     </g>
     <g id="line2d_78">
      <g>
       <use xlink:href="#md8ae67880b" x="735.032182" y="293.097784" style="stroke: #000000; stroke-width: 0.8"/>
      </g>
     </g>
     <g id="text_45">
      <!-- 0.025 -->
      <g transform="translate(720.718119 307.696222)scale(0.1 -0.1)">
       <use xlink:href="#DejaVuSans-30"/>
       <use xlink:href="#DejaVuSans-2e" x="63.623047"/>
       <use xlink:href="#DejaVuSans-30" x="95.410156"/>
       <use xlink:href="#DejaVuSans-32" x="159.033203"/>
       <use xlink:href="#DejaVuSans-35" x="222.65625"/>
      </g>
     </g>
    </g>
    <g id="xtick_28">
     <g id="line2d_79">
      <path d="M 850.521273 293.097784 
L 850.521273 248.626524 
" clip-path="url(#p0f59810f9e)" style="fill: none; stroke: #b0b0b0; stroke-width: 0.8; stroke-linecap: square"/>
     </g>
     <g id="line2d_80">
      <g>
       <use xlink:href="#md8ae67880b" x="850.521273" y="293.097784" style="stroke: #000000; stroke-width: 0.8"/>
      </g>
     </g>
     <g id="text_46">
      <!-- 0.030 -->
      <g transform="translate(836.20721 307.696222)scale(0.1 -0.1)">
       <use xlink:href="#DejaVuSans-30"/>
       <use xlink:href="#DejaVuSans-2e" x="63.623047"/>
       <use xlink:href="#DejaVuSans-30" x="95.410156"/>
       <use xlink:href="#DejaVuSans-33" x="159.033203"/>
       <use xlink:href="#DejaVuSans-30" x="222.65625"/>
      </g>
     </g>
    </g>
    <g id="text_47">
     <!-- temps en s -->
     <g transform="translate(476.339938 321.374347)scale(0.1 -0.1)">
      <use xlink:href="#DejaVuSans-74"/>
      <use xlink:href="#DejaVuSans-65" x="39.208984"/>
      <use xlink:href="#DejaVuSans-6d" x="100.732422"/>
      <use xlink:href="#DejaVuSans-70" x="198.144531"/>
      <use xlink:href="#DejaVuSans-73" x="261.621094"/>
      <use xlink:href="#DejaVuSans-20" x="313.720703"/>
      <use xlink:href="#DejaVuSans-65" x="345.507812"/>
      <use xlink:href="#DejaVuSans-6e" x="407.03125"/>
      <use xlink:href="#DejaVuSans-20" x="470.410156"/>
      <use xlink:href="#DejaVuSans-73" x="502.197266"/>
     </g>
    </g>
   </g>
   <g id="matplotlib.axis_8">
    <g id="ytick_10">
     <g id="line2d_81">
      <path d="M 122.94 292.152435 
L 885.168 292.152435 
" clip-path="url(#p0f59810f9e)" style="fill: none; stroke: #b0b0b0; stroke-width: 0.8; stroke-linecap: square"/>
     </g>
     <g id="line2d_82">
      <g>
       <use xlink:href="#m99b31651b8" x="122.94" y="292.152435" style="stroke: #000000; stroke-width: 0.8"/>
      </g>
     </g>
     <g id="text_48">
      <!-- −1 -->
      <g transform="translate(101.197812 295.951654)scale(0.1 -0.1)">
       <use xlink:href="#DejaVuSans-2212"/>
       <use xlink:href="#DejaVuSans-31" x="83.789062"/>
      </g>
     </g>
    </g>
    <g id="ytick_11">
     <g id="line2d_83">
      <path d="M 122.94 270.86369 
L 885.168 270.86369 
" clip-path="url(#p0f59810f9e)" style="fill: none; stroke: #b0b0b0; stroke-width: 0.8; stroke-linecap: square"/>
     </g>
     <g id="line2d_84">
      <g>
       <use xlink:href="#m99b31651b8" x="122.94" y="270.86369" style="stroke: #000000; stroke-width: 0.8"/>
      </g>
     </g>
     <g id="text_49">
      <!-- 0 -->
      <g transform="translate(109.5775 274.662908)scale(0.1 -0.1)">
       <use xlink:href="#DejaVuSans-30"/>
      </g>
     </g>
    </g>
    <g id="ytick_12">
     <g id="line2d_85">
      <path d="M 122.94 249.574944 
L 885.168 249.574944 
" clip-path="url(#p0f59810f9e)" style="fill: none; stroke: #b0b0b0; stroke-width: 0.8; stroke-linecap: square"/>
     </g>
     <g id="line2d_86">
      <g>
       <use xlink:href="#m99b31651b8" x="122.94" y="249.574944" style="stroke: #000000; stroke-width: 0.8"/>
      </g>
     </g>
     <g id="text_50">
      <!-- 1 -->
      <g transform="translate(109.5775 253.374163)scale(0.1 -0.1)">
       <use xlink:href="#DejaVuSans-31"/>
      </g>
     </g>
    </g>
    <g id="text_51">
     <!-- e(t) en V -->
     <g transform="translate(95.118125 292.644185)rotate(-90)scale(0.1 -0.1)">
      <use xlink:href="#DejaVuSans-65"/>
      <use xlink:href="#DejaVuSans-28" x="61.523438"/>
      <use xlink:href="#DejaVuSans-74" x="100.537109"/>
      <use xlink:href="#DejaVuSans-29" x="139.746094"/>
      <use xlink:href="#DejaVuSans-20" x="178.759766"/>
      <use xlink:href="#DejaVuSans-65" x="210.546875"/>
      <use xlink:href="#DejaVuSans-6e" x="272.070312"/>
      <use xlink:href="#DejaVuSans-20" x="335.449219"/>
      <use xlink:href="#DejaVuSans-56" x="367.236328"/>
     </g>
    </g>
   </g>
   <g id="line2d_87">
    <path d="M 157.586727 250.647945 
L 159.667612 250.757909 
L 161.748496 251.080507 
L 163.829381 251.594704 
L 166.603894 252.521285 
L 170.072034 253.930037 
L 179.089201 257.70522 
L 183.944598 259.424718 
L 195.042649 263.23664 
L 202.672559 266.237828 
L 209.60884 268.879141 
L 218.626007 271.991193 
L 224.86866 274.267361 
L 241.515736 280.581032 
L 251.920159 284.154146 
L 256.775556 286.140203 
L 264.405466 289.334213 
L 267.179979 290.230425 
L 269.260863 290.714669 
L 271.341748 291.00294 
L 273.422632 291.076363 
L 275.503517 290.930063 
L 277.584401 290.573728 
L 280.358914 289.813483 
L 283.133427 288.805006 
L 287.988824 286.742262 
L 293.537849 284.42233 
L 298.393247 282.654426 
L 311.572182 278.095561 
L 328.912886 271.51337 
L 339.317309 267.856234 
L 347.640847 264.578637 
L 353.8835 262.221744 
L 360.819782 259.885632 
L 367.062436 257.70522 
L 371.917833 255.736222 
L 380.241371 252.26817 
L 383.015884 251.403815 
L 385.096768 250.950384 
L 387.177653 250.69697 
L 389.258537 250.660224 
L 391.339422 250.842589 
L 393.420306 251.232012 
L 396.194819 252.02834 
L 399.66296 253.344315 
L 412.148267 258.468898 
L 419.084549 260.799677 
L 425.327202 262.977445 
L 432.263484 265.684538 
L 439.893394 268.628053 
L 447.523304 271.276521 
L 454.459586 273.740566 
L 462.089495 276.735538 
L 469.025777 279.381989 
L 475.268431 281.499218 
L 482.204713 283.891562 
L 487.06011 285.842923 
L 495.383648 289.334213 
L 498.158161 290.230425 
L 500.239045 290.714669 
L 502.31993 291.00294 
L 504.400814 291.076363 
L 506.481699 290.930063 
L 508.562583 290.573728 
L 511.337096 289.813483 
L 514.111609 288.805006 
L 518.967006 286.742262 
L 524.516031 284.42233 
L 529.371428 282.654426 
L 542.550364 278.095561 
L 559.891068 271.51337 
L 570.295491 267.856234 
L 578.619029 264.578637 
L 584.861682 262.221744 
L 591.797964 259.885632 
L 598.040618 257.70522 
L 602.896015 255.736222 
L 611.219553 252.26817 
L 613.994066 251.403815 
L 616.07495 250.950384 
L 618.155835 250.69697 
L 620.236719 250.660224 
L 622.317604 250.842589 
L 624.398488 251.232012 
L 627.173001 252.02834 
L 630.641142 253.344315 
L 643.126449 258.468898 
L 650.062731 260.799677 
L 656.305384 262.977445 
L 663.241666 265.684538 
L 670.871576 268.628053 
L 678.501486 271.276521 
L 685.437767 273.740566 
L 693.067677 276.735538 
L 700.003959 279.381989 
L 706.246613 281.499218 
L 713.182894 283.891562 
L 718.038292 285.842923 
L 726.36183 289.334213 
L 729.136342 290.230425 
L 731.217227 290.714669 
L 733.298111 291.00294 
L 735.378996 291.076363 
L 737.45988 290.930063 
L 739.540765 290.573728 
L 742.315278 289.813483 
L 745.08979 288.805006 
L 749.945188 286.742262 
L 755.494213 284.42233 
L 760.34961 282.654426 
L 773.528545 278.095561 
L 790.86925 271.51337 
L 801.273672 267.856234 
L 809.59721 264.578637 
L 815.839864 262.221744 
L 822.776146 259.885632 
L 829.018799 257.70522 
L 833.874197 255.736222 
L 842.197735 252.26817 
L 844.972247 251.403815 
L 847.053132 250.950384 
L 849.134016 250.69697 
L 850.521273 250.647945 
L 850.521273 250.647945 
" clip-path="url(#p0f59810f9e)" style="fill: none; stroke: #ff0000; stroke-width: 1.5; stroke-linecap: square"/>
   </g>
   <g id="patch_21">
    <path d="M 122.94 293.097784 
L 122.94 248.626524 
" style="fill: none; stroke: #000000; stroke-width: 0.8; stroke-linejoin: miter; stroke-linecap: square"/>
   </g>
   <g id="patch_22">
    <path d="M 885.168 293.097784 
L 885.168 248.626524 
" style="fill: none; stroke: #000000; stroke-width: 0.8; stroke-linejoin: miter; stroke-linecap: square"/>
   </g>
   <g id="patch_23">
    <path d="M 122.94 293.097784 
L 885.168 293.097784 
" style="fill: none; stroke: #000000; stroke-width: 0.8; stroke-linejoin: miter; stroke-linecap: square"/>
   </g>
   <g id="patch_24">
    <path d="M 122.94 248.626524 
L 885.168 248.626524 
" style="fill: none; stroke: #000000; stroke-width: 0.8; stroke-linejoin: miter; stroke-linecap: square"/>
   </g>
   <g id="legend_4">
    <g id="patch_25">
     <path d="M 129.94 288.097784 
L 192.554062 288.097784 
Q 194.554062 288.097784 194.554062 286.097784 
L 194.554062 272.419659 
Q 194.554062 270.419659 192.554062 270.419659 
L 129.94 270.419659 
Q 127.94 270.419659 127.94 272.419659 
L 127.94 286.097784 
Q 127.94 288.097784 129.94 288.097784 
z
" style="fill: #ffffff; opacity: 0.8; stroke: #cccccc; stroke-linejoin: miter"/>
    </g>
    <g id="line2d_88">
     <path d="M 131.94 278.518097 
L 141.94 278.518097 
L 151.94 278.518097 
" style="fill: none; stroke: #ff0000; stroke-width: 1.5; stroke-linecap: square"/>
    </g>
    <g id="text_52">
     <!--  n = 4 -->
     <g transform="translate(159.94 282.018097)scale(0.1 -0.1)">
      <defs>
       <path id="DejaVuSans-34" d="M 2419 4116 
L 825 1625 
L 2419 1625 
L 2419 4116 
z
M 2253 4666 
L 3047 4666 
L 3047 1625 
L 3713 1625 
L 3713 1100 
L 3047 1100 
L 3047 0 
L 2419 0 
L 2419 1100 
L 313 1100 
L 313 1709 
L 2253 4666 
z
" transform="scale(0.015625)"/>
      </defs>
      <use xlink:href="#DejaVuSans-20"/>
      <use xlink:href="#DejaVuSans-6e" x="31.787109"/>
      <use xlink:href="#DejaVuSans-20" x="95.166016"/>
      <use xlink:href="#DejaVuSans-3d" x="126.953125"/>
      <use xlink:href="#DejaVuSans-20" x="210.742188"/>
      <use xlink:href="#DejaVuSans-34" x="242.529297"/>
     </g>
    </g>
   </g>
  </g>
  <g id="axes_5">
   <g id="patch_26">
    <path d="M 122.94 357.051692 
L 885.168 357.051692 
L 885.168 312.580432 
L 122.94 312.580432 
z
" style="fill: #ffffff"/>
   </g>
   <g id="matplotlib.axis_9">
    <g id="xtick_29">
     <g id="line2d_89">
      <path d="M 157.586727 357.051692 
L 157.586727 312.580432 
" clip-path="url(#p2e8c8de593)" style="fill: none; stroke: #b0b0b0; stroke-width: 0.8; stroke-linecap: square"/>
     </g>
     <g id="line2d_90">
      <g>
       <use xlink:href="#md8ae67880b" x="157.586727" y="357.051692" style="stroke: #000000; stroke-width: 0.8"/>
      </g>
     </g>
     <g id="text_53">
      <!-- 0.000 -->
      <g transform="translate(143.272665 371.65013)scale(0.1 -0.1)">
       <use xlink:href="#DejaVuSans-30"/>
       <use xlink:href="#DejaVuSans-2e" x="63.623047"/>
       <use xlink:href="#DejaVuSans-30" x="95.410156"/>
       <use xlink:href="#DejaVuSans-30" x="159.033203"/>
       <use xlink:href="#DejaVuSans-30" x="222.65625"/>
      </g>
     </g>
    </g>
    <g id="xtick_30">
     <g id="line2d_91">
      <path d="M 273.075818 357.051692 
L 273.075818 312.580432 
" clip-path="url(#p2e8c8de593)" style="fill: none; stroke: #b0b0b0; stroke-width: 0.8; stroke-linecap: square"/>
     </g>
     <g id="line2d_92">
      <g>
       <use xlink:href="#md8ae67880b" x="273.075818" y="357.051692" style="stroke: #000000; stroke-width: 0.8"/>
      </g>
     </g>
     <g id="text_54">
      <!-- 0.005 -->
      <g transform="translate(258.761756 371.65013)scale(0.1 -0.1)">
       <use xlink:href="#DejaVuSans-30"/>
       <use xlink:href="#DejaVuSans-2e" x="63.623047"/>
       <use xlink:href="#DejaVuSans-30" x="95.410156"/>
       <use xlink:href="#DejaVuSans-30" x="159.033203"/>
       <use xlink:href="#DejaVuSans-35" x="222.65625"/>
      </g>
     </g>
    </g>
    <g id="xtick_31">
     <g id="line2d_93">
      <path d="M 388.564909 357.051692 
L 388.564909 312.580432 
" clip-path="url(#p2e8c8de593)" style="fill: none; stroke: #b0b0b0; stroke-width: 0.8; stroke-linecap: square"/>
     </g>
     <g id="line2d_94">
      <g>
       <use xlink:href="#md8ae67880b" x="388.564909" y="357.051692" style="stroke: #000000; stroke-width: 0.8"/>
      </g>
     </g>
     <g id="text_55">
      <!-- 0.010 -->
      <g transform="translate(374.250847 371.65013)scale(0.1 -0.1)">
       <use xlink:href="#DejaVuSans-30"/>
       <use xlink:href="#DejaVuSans-2e" x="63.623047"/>
       <use xlink:href="#DejaVuSans-30" x="95.410156"/>
       <use xlink:href="#DejaVuSans-31" x="159.033203"/>
       <use xlink:href="#DejaVuSans-30" x="222.65625"/>
      </g>
     </g>
    </g>
    <g id="xtick_32">
     <g id="line2d_95">
      <path d="M 504.054 357.051692 
L 504.054 312.580432 
" clip-path="url(#p2e8c8de593)" style="fill: none; stroke: #b0b0b0; stroke-width: 0.8; stroke-linecap: square"/>
     </g>
     <g id="line2d_96">
      <g>
       <use xlink:href="#md8ae67880b" x="504.054" y="357.051692" style="stroke: #000000; stroke-width: 0.8"/>
      </g>
     </g>
     <g id="text_56">
      <!-- 0.015 -->
      <g transform="translate(489.739938 371.65013)scale(0.1 -0.1)">
       <use xlink:href="#DejaVuSans-30"/>
       <use xlink:href="#DejaVuSans-2e" x="63.623047"/>
       <use xlink:href="#DejaVuSans-30" x="95.410156"/>
       <use xlink:href="#DejaVuSans-31" x="159.033203"/>
       <use xlink:href="#DejaVuSans-35" x="222.65625"/>
      </g>
     </g>
    </g>
    <g id="xtick_33">
     <g id="line2d_97">
      <path d="M 619.543091 357.051692 
L 619.543091 312.580432 
" clip-path="url(#p2e8c8de593)" style="fill: none; stroke: #b0b0b0; stroke-width: 0.8; stroke-linecap: square"/>
     </g>
     <g id="line2d_98">
      <g>
       <use xlink:href="#md8ae67880b" x="619.543091" y="357.051692" style="stroke: #000000; stroke-width: 0.8"/>
      </g>
     </g>
     <g id="text_57">
      <!-- 0.020 -->
      <g transform="translate(605.229028 371.65013)scale(0.1 -0.1)">
       <use xlink:href="#DejaVuSans-30"/>
       <use xlink:href="#DejaVuSans-2e" x="63.623047"/>
       <use xlink:href="#DejaVuSans-30" x="95.410156"/>
       <use xlink:href="#DejaVuSans-32" x="159.033203"/>
       <use xlink:href="#DejaVuSans-30" x="222.65625"/>
      </g>
     </g>
    </g>
    <g id="xtick_34">
     <g id="line2d_99">
      <path d="M 735.032182 357.051692 
L 735.032182 312.580432 
" clip-path="url(#p2e8c8de593)" style="fill: none; stroke: #b0b0b0; stroke-width: 0.8; stroke-linecap: square"/>
     </g>
     <g id="line2d_100">
      <g>
       <use xlink:href="#md8ae67880b" x="735.032182" y="357.051692" style="stroke: #000000; stroke-width: 0.8"/>
      </g>
     </g>
     <g id="text_58">
      <!-- 0.025 -->
      <g transform="translate(720.718119 371.65013)scale(0.1 -0.1)">
       <use xlink:href="#DejaVuSans-30"/>
       <use xlink:href="#DejaVuSans-2e" x="63.623047"/>
       <use xlink:href="#DejaVuSans-30" x="95.410156"/>
       <use xlink:href="#DejaVuSans-32" x="159.033203"/>
       <use xlink:href="#DejaVuSans-35" x="222.65625"/>
      </g>
     </g>
    </g>
    <g id="xtick_35">
     <g id="line2d_101">
      <path d="M 850.521273 357.051692 
L 850.521273 312.580432 
" clip-path="url(#p2e8c8de593)" style="fill: none; stroke: #b0b0b0; stroke-width: 0.8; stroke-linecap: square"/>
     </g>
     <g id="line2d_102">
      <g>
       <use xlink:href="#md8ae67880b" x="850.521273" y="357.051692" style="stroke: #000000; stroke-width: 0.8"/>
      </g>
     </g>
     <g id="text_59">
      <!-- 0.030 -->
      <g transform="translate(836.20721 371.65013)scale(0.1 -0.1)">
       <use xlink:href="#DejaVuSans-30"/>
       <use xlink:href="#DejaVuSans-2e" x="63.623047"/>
       <use xlink:href="#DejaVuSans-30" x="95.410156"/>
       <use xlink:href="#DejaVuSans-33" x="159.033203"/>
       <use xlink:href="#DejaVuSans-30" x="222.65625"/>
      </g>
     </g>
    </g>
    <g id="text_60">
     <!-- temps en s -->
     <g transform="translate(476.339938 385.328255)scale(0.1 -0.1)">
      <use xlink:href="#DejaVuSans-74"/>
      <use xlink:href="#DejaVuSans-65" x="39.208984"/>
      <use xlink:href="#DejaVuSans-6d" x="100.732422"/>
      <use xlink:href="#DejaVuSans-70" x="198.144531"/>
      <use xlink:href="#DejaVuSans-73" x="261.621094"/>
      <use xlink:href="#DejaVuSans-20" x="313.720703"/>
      <use xlink:href="#DejaVuSans-65" x="345.507812"/>
      <use xlink:href="#DejaVuSans-6e" x="407.03125"/>
      <use xlink:href="#DejaVuSans-20" x="470.410156"/>
      <use xlink:href="#DejaVuSans-73" x="502.197266"/>
     </g>
    </g>
   </g>
   <g id="matplotlib.axis_10">
    <g id="ytick_13">
     <g id="line2d_103">
      <path d="M 122.94 355.885081 
L 885.168 355.885081 
" clip-path="url(#p2e8c8de593)" style="fill: none; stroke: #b0b0b0; stroke-width: 0.8; stroke-linecap: square"/>
     </g>
     <g id="line2d_104">
      <g>
       <use xlink:href="#m99b31651b8" x="122.94" y="355.885081" style="stroke: #000000; stroke-width: 0.8"/>
      </g>
     </g>
     <g id="text_61">
      <!-- −1 -->
      <g transform="translate(101.197812 359.684299)scale(0.1 -0.1)">
       <use xlink:href="#DejaVuSans-2212"/>
       <use xlink:href="#DejaVuSans-31" x="83.789062"/>
      </g>
     </g>
    </g>
    <g id="ytick_14">
     <g id="line2d_105">
      <path d="M 122.94 334.817961 
L 885.168 334.817961 
" clip-path="url(#p2e8c8de593)" style="fill: none; stroke: #b0b0b0; stroke-width: 0.8; stroke-linecap: square"/>
     </g>
     <g id="line2d_106">
      <g>
       <use xlink:href="#m99b31651b8" x="122.94" y="334.817961" style="stroke: #000000; stroke-width: 0.8"/>
      </g>
     </g>
     <g id="text_62">
      <!-- 0 -->
      <g transform="translate(109.5775 338.61718)scale(0.1 -0.1)">
       <use xlink:href="#DejaVuSans-30"/>
      </g>
     </g>
    </g>
    <g id="ytick_15">
     <g id="line2d_107">
      <path d="M 122.94 313.750842 
L 885.168 313.750842 
" clip-path="url(#p2e8c8de593)" style="fill: none; stroke: #b0b0b0; stroke-width: 0.8; stroke-linecap: square"/>
     </g>
     <g id="line2d_108">
      <g>
       <use xlink:href="#m99b31651b8" x="122.94" y="313.750842" style="stroke: #000000; stroke-width: 0.8"/>
      </g>
     </g>
     <g id="text_63">
      <!-- 1 -->
      <g transform="translate(109.5775 317.550061)scale(0.1 -0.1)">
       <use xlink:href="#DejaVuSans-31"/>
      </g>
     </g>
    </g>
    <g id="text_64">
     <!-- e(t) en V -->
     <g transform="translate(95.118125 356.598093)rotate(-90)scale(0.1 -0.1)">
      <use xlink:href="#DejaVuSans-65"/>
      <use xlink:href="#DejaVuSans-28" x="61.523438"/>
      <use xlink:href="#DejaVuSans-74" x="100.537109"/>
      <use xlink:href="#DejaVuSans-29" x="139.746094"/>
      <use xlink:href="#DejaVuSans-20" x="178.759766"/>
      <use xlink:href="#DejaVuSans-65" x="210.546875"/>
      <use xlink:href="#DejaVuSans-6e" x="272.070312"/>
      <use xlink:href="#DejaVuSans-20" x="335.449219"/>
      <use xlink:href="#DejaVuSans-56" x="367.236328"/>
     </g>
    </g>
   </g>
   <g id="line2d_109">
    <path d="M 157.586727 314.601853 
L 159.667612 314.737443 
L 161.748496 315.130197 
L 163.829381 315.740628 
L 166.603894 316.79187 
L 176.314688 320.739783 
L 183.25097 323.055921 
L 188.799995 325.04254 
L 201.97893 329.993649 
L 211.689725 333.418822 
L 225.562288 338.576427 
L 234.579455 341.763726 
L 247.75839 346.696011 
L 256.775556 349.796156 
L 261.630953 351.813333 
L 265.792722 353.526063 
L 268.567235 354.417721 
L 270.64812 354.8501 
L 272.729004 355.030271 
L 274.809889 354.939657 
L 276.890773 354.587643 
L 278.971658 354.009857 
L 281.74617 352.985664 
L 292.844221 348.533171 
L 305.329528 344.193825 
L 315.733951 340.244241 
L 329.606514 335.288228 
L 338.623681 331.900715 
L 352.496244 326.935553 
L 360.819782 323.770142 
L 374.692346 318.859365 
L 382.322256 315.740628 
L 384.40314 315.130197 
L 386.484025 314.737443 
L 388.564909 314.601853 
L 390.645794 314.737443 
L 392.726678 315.130197 
L 394.807563 315.740628 
L 397.582075 316.79187 
L 407.29287 320.739783 
L 414.229152 323.055921 
L 419.778177 325.04254 
L 432.957112 329.993649 
L 442.667907 333.418822 
L 456.54047 338.576427 
L 465.557636 341.763726 
L 478.736572 346.696011 
L 487.753738 349.796156 
L 492.609135 351.813333 
L 496.770904 353.526063 
L 499.545417 354.417721 
L 501.626301 354.8501 
L 503.707186 355.030271 
L 505.78807 354.939657 
L 507.868955 354.587643 
L 509.949839 354.009857 
L 512.724352 352.985664 
L 523.822403 348.533171 
L 536.30771 344.193825 
L 546.712133 340.244241 
L 560.584696 335.288228 
L 569.601862 331.900715 
L 583.474426 326.935553 
L 591.797964 323.770142 
L 605.670527 318.859365 
L 613.300437 315.740628 
L 615.381322 315.130197 
L 617.462206 314.737443 
L 619.543091 314.601853 
L 621.623975 314.737443 
L 623.70486 315.130197 
L 625.785744 315.740628 
L 628.560257 316.79187 
L 638.271052 320.739783 
L 645.207333 323.055921 
L 650.756359 325.04254 
L 663.935294 329.993649 
L 673.646088 333.418822 
L 687.518652 338.576427 
L 696.535818 341.763726 
L 709.714753 346.696011 
L 718.73192 349.796156 
L 723.587317 351.813333 
L 727.749086 353.526063 
L 730.523599 354.417721 
L 732.604483 354.8501 
L 734.685368 355.030271 
L 736.766252 354.939657 
L 738.847137 354.587643 
L 740.928021 354.009857 
L 743.702534 352.985664 
L 754.800585 348.533171 
L 767.285892 344.193825 
L 777.690314 340.244241 
L 791.562878 335.288228 
L 800.580044 331.900715 
L 814.452608 326.935553 
L 822.776146 323.770142 
L 836.648709 318.859365 
L 844.278619 315.740628 
L 846.359504 315.130197 
L 848.440388 314.737443 
L 850.521273 314.601853 
L 850.521273 314.601853 
" clip-path="url(#p2e8c8de593)" style="fill: none; stroke: #ff0000; stroke-width: 1.5; stroke-linecap: square"/>
   </g>
   <g id="patch_27">
    <path d="M 122.94 357.051692 
L 122.94 312.580432 
" style="fill: none; stroke: #000000; stroke-width: 0.8; stroke-linejoin: miter; stroke-linecap: square"/>
   </g>
   <g id="patch_28">
    <path d="M 885.168 357.051692 
L 885.168 312.580432 
" style="fill: none; stroke: #000000; stroke-width: 0.8; stroke-linejoin: miter; stroke-linecap: square"/>
   </g>
   <g id="patch_29">
    <path d="M 122.94 357.051692 
L 885.168 357.051692 
" style="fill: none; stroke: #000000; stroke-width: 0.8; stroke-linejoin: miter; stroke-linecap: square"/>
   </g>
   <g id="patch_30">
    <path d="M 122.94 312.580432 
L 885.168 312.580432 
" style="fill: none; stroke: #000000; stroke-width: 0.8; stroke-linejoin: miter; stroke-linecap: square"/>
   </g>
   <g id="legend_5">
    <g id="patch_31">
     <path d="M 129.94 352.051692 
L 192.554062 352.051692 
Q 194.554062 352.051692 194.554062 350.051692 
L 194.554062 336.373567 
Q 194.554062 334.373567 192.554062 334.373567 
L 129.94 334.373567 
Q 127.94 334.373567 127.94 336.373567 
L 127.94 350.051692 
Q 127.94 352.051692 129.94 352.051692 
z
" style="fill: #ffffff; opacity: 0.8; stroke: #cccccc; stroke-linejoin: miter"/>
    </g>
    <g id="line2d_110">
     <path d="M 131.94 342.472005 
L 141.94 342.472005 
L 151.94 342.472005 
" style="fill: none; stroke: #ff0000; stroke-width: 1.5; stroke-linecap: square"/>
    </g>
    <g id="text_65">
     <!--  n = 5 -->
     <g transform="translate(159.94 345.972005)scale(0.1 -0.1)">
      <use xlink:href="#DejaVuSans-20"/>
      <use xlink:href="#DejaVuSans-6e" x="31.787109"/>
      <use xlink:href="#DejaVuSans-20" x="95.166016"/>
      <use xlink:href="#DejaVuSans-3d" x="126.953125"/>
      <use xlink:href="#DejaVuSans-20" x="210.742188"/>
      <use xlink:href="#DejaVuSans-35" x="242.529297"/>
     </g>
    </g>
   </g>
  </g>
  <g id="axes_6">
   <g id="patch_32">
    <path d="M 122.94 421.0056 
L 885.168 421.0056 
L 885.168 376.53434 
L 122.94 376.53434 
z
" style="fill: #ffffff"/>
   </g>
   <g id="matplotlib.axis_11">
    <g id="xtick_36">
     <g id="line2d_111">
      <path d="M 157.586727 421.0056 
L 157.586727 376.53434 
" clip-path="url(#p63db87341e)" style="fill: none; stroke: #b0b0b0; stroke-width: 0.8; stroke-linecap: square"/>
     </g>
     <g id="line2d_112">
      <g>
       <use xlink:href="#md8ae67880b" x="157.586727" y="421.0056" style="stroke: #000000; stroke-width: 0.8"/>
      </g>
     </g>
     <g id="text_66">
      <!-- 0.000 -->
      <g transform="translate(143.272665 435.604038)scale(0.1 -0.1)">
       <use xlink:href="#DejaVuSans-30"/>
       <use xlink:href="#DejaVuSans-2e" x="63.623047"/>
       <use xlink:href="#DejaVuSans-30" x="95.410156"/>
       <use xlink:href="#DejaVuSans-30" x="159.033203"/>
       <use xlink:href="#DejaVuSans-30" x="222.65625"/>
      </g>
     </g>
    </g>
    <g id="xtick_37">
     <g id="line2d_113">
      <path d="M 273.075818 421.0056 
L 273.075818 376.53434 
" clip-path="url(#p63db87341e)" style="fill: none; stroke: #b0b0b0; stroke-width: 0.8; stroke-linecap: square"/>
     </g>
     <g id="line2d_114">
      <g>
       <use xlink:href="#md8ae67880b" x="273.075818" y="421.0056" style="stroke: #000000; stroke-width: 0.8"/>
      </g>
     </g>
     <g id="text_67">
      <!-- 0.005 -->
      <g transform="translate(258.761756 435.604038)scale(0.1 -0.1)">
       <use xlink:href="#DejaVuSans-30"/>
       <use xlink:href="#DejaVuSans-2e" x="63.623047"/>
       <use xlink:href="#DejaVuSans-30" x="95.410156"/>
       <use xlink:href="#DejaVuSans-30" x="159.033203"/>
       <use xlink:href="#DejaVuSans-35" x="222.65625"/>
      </g>
     </g>
    </g>
    <g id="xtick_38">
     <g id="line2d_115">
      <path d="M 388.564909 421.0056 
L 388.564909 376.53434 
" clip-path="url(#p63db87341e)" style="fill: none; stroke: #b0b0b0; stroke-width: 0.8; stroke-linecap: square"/>
     </g>
     <g id="line2d_116">
      <g>
       <use xlink:href="#md8ae67880b" x="388.564909" y="421.0056" style="stroke: #000000; stroke-width: 0.8"/>
      </g>
     </g>
     <g id="text_68">
      <!-- 0.010 -->
      <g transform="translate(374.250847 435.604038)scale(0.1 -0.1)">
       <use xlink:href="#DejaVuSans-30"/>
       <use xlink:href="#DejaVuSans-2e" x="63.623047"/>
       <use xlink:href="#DejaVuSans-30" x="95.410156"/>
       <use xlink:href="#DejaVuSans-31" x="159.033203"/>
       <use xlink:href="#DejaVuSans-30" x="222.65625"/>
      </g>
     </g>
    </g>
    <g id="xtick_39">
     <g id="line2d_117">
      <path d="M 504.054 421.0056 
L 504.054 376.53434 
" clip-path="url(#p63db87341e)" style="fill: none; stroke: #b0b0b0; stroke-width: 0.8; stroke-linecap: square"/>
     </g>
     <g id="line2d_118">
      <g>
       <use xlink:href="#md8ae67880b" x="504.054" y="421.0056" style="stroke: #000000; stroke-width: 0.8"/>
      </g>
     </g>
     <g id="text_69">
      <!-- 0.015 -->
      <g transform="translate(489.739938 435.604038)scale(0.1 -0.1)">
       <use xlink:href="#DejaVuSans-30"/>
       <use xlink:href="#DejaVuSans-2e" x="63.623047"/>
       <use xlink:href="#DejaVuSans-30" x="95.410156"/>
       <use xlink:href="#DejaVuSans-31" x="159.033203"/>
       <use xlink:href="#DejaVuSans-35" x="222.65625"/>
      </g>
     </g>
    </g>
    <g id="xtick_40">
     <g id="line2d_119">
      <path d="M 619.543091 421.0056 
L 619.543091 376.53434 
" clip-path="url(#p63db87341e)" style="fill: none; stroke: #b0b0b0; stroke-width: 0.8; stroke-linecap: square"/>
     </g>
     <g id="line2d_120">
      <g>
       <use xlink:href="#md8ae67880b" x="619.543091" y="421.0056" style="stroke: #000000; stroke-width: 0.8"/>
      </g>
     </g>
     <g id="text_70">
      <!-- 0.020 -->
      <g transform="translate(605.229028 435.604038)scale(0.1 -0.1)">
       <use xlink:href="#DejaVuSans-30"/>
       <use xlink:href="#DejaVuSans-2e" x="63.623047"/>
       <use xlink:href="#DejaVuSans-30" x="95.410156"/>
       <use xlink:href="#DejaVuSans-32" x="159.033203"/>
       <use xlink:href="#DejaVuSans-30" x="222.65625"/>
      </g>
     </g>
    </g>
    <g id="xtick_41">
     <g id="line2d_121">
      <path d="M 735.032182 421.0056 
L 735.032182 376.53434 
" clip-path="url(#p63db87341e)" style="fill: none; stroke: #b0b0b0; stroke-width: 0.8; stroke-linecap: square"/>
     </g>
     <g id="line2d_122">
      <g>
       <use xlink:href="#md8ae67880b" x="735.032182" y="421.0056" style="stroke: #000000; stroke-width: 0.8"/>
      </g>
     </g>
     <g id="text_71">
      <!-- 0.025 -->
      <g transform="translate(720.718119 435.604038)scale(0.1 -0.1)">
       <use xlink:href="#DejaVuSans-30"/>
       <use xlink:href="#DejaVuSans-2e" x="63.623047"/>
       <use xlink:href="#DejaVuSans-30" x="95.410156"/>
       <use xlink:href="#DejaVuSans-32" x="159.033203"/>
       <use xlink:href="#DejaVuSans-35" x="222.65625"/>
      </g>
     </g>
    </g>
    <g id="xtick_42">
     <g id="line2d_123">
      <path d="M 850.521273 421.0056 
L 850.521273 376.53434 
" clip-path="url(#p63db87341e)" style="fill: none; stroke: #b0b0b0; stroke-width: 0.8; stroke-linecap: square"/>
     </g>
     <g id="line2d_124">
      <g>
       <use xlink:href="#md8ae67880b" x="850.521273" y="421.0056" style="stroke: #000000; stroke-width: 0.8"/>
      </g>
     </g>
     <g id="text_72">
      <!-- 0.030 -->
      <g transform="translate(836.20721 435.604038)scale(0.1 -0.1)">
       <use xlink:href="#DejaVuSans-30"/>
       <use xlink:href="#DejaVuSans-2e" x="63.623047"/>
       <use xlink:href="#DejaVuSans-30" x="95.410156"/>
       <use xlink:href="#DejaVuSans-33" x="159.033203"/>
       <use xlink:href="#DejaVuSans-30" x="222.65625"/>
      </g>
     </g>
    </g>
    <g id="text_73">
     <!-- temps en s -->
     <g transform="translate(476.339938 449.282163)scale(0.1 -0.1)">
      <use xlink:href="#DejaVuSans-74"/>
      <use xlink:href="#DejaVuSans-65" x="39.208984"/>
      <use xlink:href="#DejaVuSans-6d" x="100.732422"/>
      <use xlink:href="#DejaVuSans-70" x="198.144531"/>
      <use xlink:href="#DejaVuSans-73" x="261.621094"/>
      <use xlink:href="#DejaVuSans-20" x="313.720703"/>
      <use xlink:href="#DejaVuSans-65" x="345.507812"/>
      <use xlink:href="#DejaVuSans-6e" x="407.03125"/>
      <use xlink:href="#DejaVuSans-20" x="470.410156"/>
      <use xlink:href="#DejaVuSans-73" x="502.197266"/>
     </g>
    </g>
   </g>
   <g id="matplotlib.axis_12">
    <g id="ytick_16">
     <g id="line2d_125">
      <path d="M 122.94 419.409436 
L 885.168 419.409436 
" clip-path="url(#p63db87341e)" style="fill: none; stroke: #b0b0b0; stroke-width: 0.8; stroke-linecap: square"/>
     </g>
     <g id="line2d_126">
      <g>
       <use xlink:href="#m99b31651b8" x="122.94" y="419.409436" style="stroke: #000000; stroke-width: 0.8"/>
      </g>
     </g>
     <g id="text_74">
      <!-- −1 -->
      <g transform="translate(101.197812 423.208655)scale(0.1 -0.1)">
       <use xlink:href="#DejaVuSans-2212"/>
       <use xlink:href="#DejaVuSans-31" x="83.789062"/>
      </g>
     </g>
    </g>
    <g id="ytick_17">
     <g id="line2d_127">
      <path d="M 122.94 398.773688 
L 885.168 398.773688 
" clip-path="url(#p63db87341e)" style="fill: none; stroke: #b0b0b0; stroke-width: 0.8; stroke-linecap: square"/>
     </g>
     <g id="line2d_128">
      <g>
       <use xlink:href="#m99b31651b8" x="122.94" y="398.773688" style="stroke: #000000; stroke-width: 0.8"/>
      </g>
     </g>
     <g id="text_75">
      <!-- 0 -->
      <g transform="translate(109.5775 402.572907)scale(0.1 -0.1)">
       <use xlink:href="#DejaVuSans-30"/>
      </g>
     </g>
    </g>
    <g id="ytick_18">
     <g id="line2d_129">
      <path d="M 122.94 378.13794 
L 885.168 378.13794 
" clip-path="url(#p63db87341e)" style="fill: none; stroke: #b0b0b0; stroke-width: 0.8; stroke-linecap: square"/>
     </g>
     <g id="line2d_130">
      <g>
       <use xlink:href="#m99b31651b8" x="122.94" y="378.13794" style="stroke: #000000; stroke-width: 0.8"/>
      </g>
     </g>
     <g id="text_76">
      <!-- 1 -->
      <g transform="translate(109.5775 381.937159)scale(0.1 -0.1)">
       <use xlink:href="#DejaVuSans-31"/>
      </g>
     </g>
    </g>
    <g id="text_77">
     <!-- e(t) en V -->
     <g transform="translate(95.118125 420.552001)rotate(-90)scale(0.1 -0.1)">
      <use xlink:href="#DejaVuSans-65"/>
      <use xlink:href="#DejaVuSans-28" x="61.523438"/>
      <use xlink:href="#DejaVuSans-74" x="100.537109"/>
      <use xlink:href="#DejaVuSans-29" x="139.746094"/>
      <use xlink:href="#DejaVuSans-20" x="178.759766"/>
      <use xlink:href="#DejaVuSans-65" x="210.546875"/>
      <use xlink:href="#DejaVuSans-6e" x="272.070312"/>
      <use xlink:href="#DejaVuSans-20" x="335.449219"/>
      <use xlink:href="#DejaVuSans-56" x="367.236328"/>
     </g>
    </g>
   </g>
   <g id="line2d_131">
    <path d="M 157.586727 378.55576 
L 158.973984 378.673002 
L 160.36124 379.003408 
L 162.442124 379.768531 
L 167.297522 381.678274 
L 174.927432 384.327237 
L 180.476457 386.326403 
L 186.719111 388.550097 
L 192.961764 390.771541 
L 199.898046 393.277326 
L 217.23875 399.437397 
L 243.596621 408.867962 
L 250.532903 411.33843 
L 255.3883 413.087739 
L 260.243697 414.848745 
L 265.792722 416.768852 
L 270.64812 418.643904 
L 272.035376 418.925213 
L 273.422632 418.984179 
L 274.809889 418.810031 
L 276.197145 418.434185 
L 278.971658 417.343168 
L 282.439799 415.988589 
L 292.150593 412.563915 
L 297.699618 410.631266 
L 303.942272 408.35566 
L 319.89572 402.684355 
L 328.912886 399.437397 
L 347.640847 392.767832 
L 355.270757 390.055066 
L 369.836948 384.853864 
L 376.079602 382.584804 
L 380.934999 380.916432 
L 385.790396 379.003408 
L 387.177653 378.673002 
L 388.564909 378.55576 
L 389.952165 378.673002 
L 391.339422 379.003408 
L 393.420306 379.768531 
L 398.275704 381.678274 
L 405.905613 384.327237 
L 411.454639 386.326403 
L 417.697292 388.550097 
L 423.939946 390.771541 
L 430.876228 393.277326 
L 448.216932 399.437397 
L 474.574803 408.867962 
L 481.511084 411.33843 
L 486.366482 413.087739 
L 491.221879 414.848745 
L 496.770904 416.768852 
L 501.626301 418.643904 
L 503.013558 418.925213 
L 504.400814 418.984179 
L 505.78807 418.810031 
L 507.175327 418.434185 
L 509.949839 417.343168 
L 513.41798 415.988589 
L 523.128775 412.563915 
L 528.6778 410.631266 
L 534.920454 408.35566 
L 550.873902 402.684355 
L 559.891068 399.437397 
L 578.619029 392.767832 
L 586.248939 390.055066 
L 600.81513 384.853864 
L 607.057784 382.584804 
L 611.913181 380.916432 
L 616.768578 379.003408 
L 618.155835 378.673002 
L 619.543091 378.55576 
L 620.930347 378.673002 
L 622.317604 379.003408 
L 624.398488 379.768531 
L 629.253885 381.678274 
L 636.883795 384.327237 
L 642.432821 386.326403 
L 648.675474 388.550097 
L 654.918128 390.771541 
L 661.85441 393.277326 
L 679.195114 399.437397 
L 705.552984 408.867962 
L 712.489266 411.33843 
L 717.344663 413.087739 
L 722.200061 414.848745 
L 727.749086 416.768852 
L 732.604483 418.643904 
L 733.99174 418.925213 
L 735.378996 418.984179 
L 736.766252 418.810031 
L 738.153509 418.434185 
L 740.928021 417.343168 
L 744.396162 415.988589 
L 754.106957 412.563915 
L 759.655982 410.631266 
L 765.898636 408.35566 
L 781.852084 402.684355 
L 790.86925 399.437397 
L 809.59721 392.767832 
L 817.22712 390.055066 
L 831.793312 384.853864 
L 838.035966 382.584804 
L 842.891363 380.916432 
L 847.74676 379.003408 
L 849.134016 378.673002 
L 850.521273 378.55576 
L 850.521273 378.55576 
" clip-path="url(#p63db87341e)" style="fill: none; stroke: #ff0000; stroke-width: 1.5; stroke-linecap: square"/>
   </g>
   <g id="patch_33">
    <path d="M 122.94 421.0056 
L 122.94 376.53434 
" style="fill: none; stroke: #000000; stroke-width: 0.8; stroke-linejoin: miter; stroke-linecap: square"/>
   </g>
   <g id="patch_34">
    <path d="M 885.168 421.0056 
L 885.168 376.53434 
" style="fill: none; stroke: #000000; stroke-width: 0.8; stroke-linejoin: miter; stroke-linecap: square"/>
   </g>
   <g id="patch_35">
    <path d="M 122.94 421.0056 
L 885.168 421.0056 
" style="fill: none; stroke: #000000; stroke-width: 0.8; stroke-linejoin: miter; stroke-linecap: square"/>
   </g>
   <g id="patch_36">
    <path d="M 122.94 376.53434 
L 885.168 376.53434 
" style="fill: none; stroke: #000000; stroke-width: 0.8; stroke-linejoin: miter; stroke-linecap: square"/>
   </g>
   <g id="legend_6">
    <g id="patch_37">
     <path d="M 129.94 416.0056 
L 198.916562 416.0056 
Q 200.916562 416.0056 200.916562 414.0056 
L 200.916562 400.327475 
Q 200.916562 398.327475 198.916562 398.327475 
L 129.94 398.327475 
Q 127.94 398.327475 127.94 400.327475 
L 127.94 414.0056 
Q 127.94 416.0056 129.94 416.0056 
z
" style="fill: #ffffff; opacity: 0.8; stroke: #cccccc; stroke-linejoin: miter"/>
    </g>
    <g id="line2d_132">
     <path d="M 131.94 406.425913 
L 141.94 406.425913 
L 151.94 406.425913 
" style="fill: none; stroke: #ff0000; stroke-width: 1.5; stroke-linecap: square"/>
    </g>
    <g id="text_78">
     <!--  n = 10 -->
     <g transform="translate(159.94 409.925913)scale(0.1 -0.1)">
      <use xlink:href="#DejaVuSans-20"/>
      <use xlink:href="#DejaVuSans-6e" x="31.787109"/>
      <use xlink:href="#DejaVuSans-20" x="95.166016"/>
      <use xlink:href="#DejaVuSans-3d" x="126.953125"/>
      <use xlink:href="#DejaVuSans-20" x="210.742188"/>
      <use xlink:href="#DejaVuSans-31" x="242.529297"/>
      <use xlink:href="#DejaVuSans-30" x="306.152344"/>
     </g>
    </g>
   </g>
  </g>
 </g>
 <defs>
  <clipPath id="p465957d21a">
   <rect x="122.94" y="56.7648" width="762.228" height="44.47126"/>
  </clipPath>
  <clipPath id="p375d533888">
   <rect x="122.94" y="120.718708" width="762.228" height="44.47126"/>
  </clipPath>
  <clipPath id="p9a6d84b497">
   <rect x="122.94" y="184.672616" width="762.228" height="44.47126"/>
  </clipPath>
  <clipPath id="p0f59810f9e">
   <rect x="122.94" y="248.626524" width="762.228" height="44.47126"/>
  </clipPath>
  <clipPath id="p2e8c8de593">
   <rect x="122.94" y="312.580432" width="762.228" height="44.47126"/>
  </clipPath>
  <clipPath id="p63db87341e">
   <rect x="122.94" y="376.53434" width="762.228" height="44.47126"/>
  </clipPath>
 </defs>
</svg>
