<?xml version="1.0" encoding="utf-8" standalone="no"?>
<!DOCTYPE svg PUBLIC "-//W3C//DTD SVG 1.1//EN"
  "http://www.w3.org/Graphics/SVG/1.1/DTD/svg11.dtd">
<svg xmlns:xlink="http://www.w3.org/1999/xlink" width="983.52pt" height="473.04pt" viewBox="0 0 983.52 473.04" xmlns="http://www.w3.org/2000/svg" version="1.1">
 <metadata>
  <rdf:RDF xmlns:dc="http://purl.org/dc/elements/1.1/" xmlns:cc="http://creativecommons.org/ns#" xmlns:rdf="http://www.w3.org/1999/02/22-rdf-syntax-ns#">
   <cc:Work>
    <dc:type rdf:resource="http://purl.org/dc/dcmitype/StillImage"/>
    <dc:date>2022-12-27T17:14:45.160681</dc:date>
    <dc:format>image/svg+xml</dc:format>
    <dc:creator>
     <cc:Agent>
      <dc:title>Matplotlib v3.5.1, https://matplotlib.org/</dc:title>
     </cc:Agent>
    </dc:creator>
   </cc:Work>
  </rdf:RDF>
 </metadata>
 <defs>
  <style type="text/css">*{stroke-linejoin: round; stroke-linecap: butt}</style>
 </defs>
 <g id="figure_1">
  <g id="patch_1">
   <path d="M 0 473.04 
L 983.52 473.04 
L 983.52 0 
L 0 0 
z
" style="fill: #ffffff"/>
  </g>
  <g id="axes_1">
   <g id="patch_2">
    <path d="M 122.94 421.0056 
L 885.168 421.0056 
L 885.168 56.7648 
L 122.94 56.7648 
z
" style="fill: #ffffff"/>
   </g>
   <g id="matplotlib.axis_1">
    <g id="xtick_1">
     <g id="line2d_1">
      <path d="M 157.586727 421.0056 
L 157.586727 56.7648 
" clip-path="url(#pe8ef0455bd)" style="fill: none; stroke: #b0b0b0; stroke-width: 0.8; stroke-linecap: square"/>
     </g>
     <g id="line2d_2">
      <defs>
       <path id="m7f06cb718b" d="M 0 0 
L 0 3.5 
" style="stroke: #000000; stroke-width: 0.8"/>
      </defs>
      <g>
       <use xlink:href="#m7f06cb718b" x="157.586727" y="421.0056" style="stroke: #000000; stroke-width: 0.8"/>
      </g>
     </g>
     <g id="text_1">
      <!-- 0.0000 -->
      <g transform="translate(140.091415 435.604038)scale(0.1 -0.1)">
       <defs>
        <path id="DejaVuSans-30" d="M 2034 4250 
Q 1547 4250 1301 3770 
Q 1056 3291 1056 2328 
Q 1056 1369 1301 889 
Q 1547 409 2034 409 
Q 2525 409 2770 889 
Q 3016 1369 3016 2328 
Q 3016 3291 2770 3770 
Q 2525 4250 2034 4250 
z
M 2034 4750 
Q 2819 4750 3233 4129 
Q 3647 3509 3647 2328 
Q 3647 1150 3233 529 
Q 2819 -91 2034 -91 
Q 1250 -91 836 529 
Q 422 1150 422 2328 
Q 422 3509 836 4129 
Q 1250 4750 2034 4750 
z
" transform="scale(0.015625)"/>
        <path id="DejaVuSans-2e" d="M 684 794 
L 1344 794 
L 1344 0 
L 684 0 
L 684 794 
z
" transform="scale(0.015625)"/>
       </defs>
       <use xlink:href="#DejaVuSans-30"/>
       <use xlink:href="#DejaVuSans-2e" x="63.623047"/>
       <use xlink:href="#DejaVuSans-30" x="95.410156"/>
       <use xlink:href="#DejaVuSans-30" x="159.033203"/>
       <use xlink:href="#DejaVuSans-30" x="222.65625"/>
       <use xlink:href="#DejaVuSans-30" x="286.279297"/>
      </g>
     </g>
    </g>
    <g id="xtick_2">
     <g id="line2d_3">
      <path d="M 249.978 421.0056 
L 249.978 56.7648 
" clip-path="url(#pe8ef0455bd)" style="fill: none; stroke: #b0b0b0; stroke-width: 0.8; stroke-linecap: square"/>
     </g>
     <g id="line2d_4">
      <g>
       <use xlink:href="#m7f06cb718b" x="249.978" y="421.0056" style="stroke: #000000; stroke-width: 0.8"/>
      </g>
     </g>
     <g id="text_2">
      <!-- 0.0002 -->
      <g transform="translate(232.482687 435.604038)scale(0.1 -0.1)">
       <defs>
        <path id="DejaVuSans-32" d="M 1228 531 
L 3431 531 
L 3431 0 
L 469 0 
L 469 531 
Q 828 903 1448 1529 
Q 2069 2156 2228 2338 
Q 2531 2678 2651 2914 
Q 2772 3150 2772 3378 
Q 2772 3750 2511 3984 
Q 2250 4219 1831 4219 
Q 1534 4219 1204 4116 
Q 875 4013 500 3803 
L 500 4441 
Q 881 4594 1212 4672 
Q 1544 4750 1819 4750 
Q 2544 4750 2975 4387 
Q 3406 4025 3406 3419 
Q 3406 3131 3298 2873 
Q 3191 2616 2906 2266 
Q 2828 2175 2409 1742 
Q 1991 1309 1228 531 
z
" transform="scale(0.015625)"/>
       </defs>
       <use xlink:href="#DejaVuSans-30"/>
       <use xlink:href="#DejaVuSans-2e" x="63.623047"/>
       <use xlink:href="#DejaVuSans-30" x="95.410156"/>
       <use xlink:href="#DejaVuSans-30" x="159.033203"/>
       <use xlink:href="#DejaVuSans-30" x="222.65625"/>
       <use xlink:href="#DejaVuSans-32" x="286.279297"/>
      </g>
     </g>
    </g>
    <g id="xtick_3">
     <g id="line2d_5">
      <path d="M 342.369273 421.0056 
L 342.369273 56.7648 
" clip-path="url(#pe8ef0455bd)" style="fill: none; stroke: #b0b0b0; stroke-width: 0.8; stroke-linecap: square"/>
     </g>
     <g id="line2d_6">
      <g>
       <use xlink:href="#m7f06cb718b" x="342.369273" y="421.0056" style="stroke: #000000; stroke-width: 0.8"/>
      </g>
     </g>
     <g id="text_3">
      <!-- 0.0004 -->
      <g transform="translate(324.87396 435.604038)scale(0.1 -0.1)">
       <defs>
        <path id="DejaVuSans-34" d="M 2419 4116 
L 825 1625 
L 2419 1625 
L 2419 4116 
z
M 2253 4666 
L 3047 4666 
L 3047 1625 
L 3713 1625 
L 3713 1100 
L 3047 1100 
L 3047 0 
L 2419 0 
L 2419 1100 
L 313 1100 
L 313 1709 
L 2253 4666 
z
" transform="scale(0.015625)"/>
       </defs>
       <use xlink:href="#DejaVuSans-30"/>
       <use xlink:href="#DejaVuSans-2e" x="63.623047"/>
       <use xlink:href="#DejaVuSans-30" x="95.410156"/>
       <use xlink:href="#DejaVuSans-30" x="159.033203"/>
       <use xlink:href="#DejaVuSans-30" x="222.65625"/>
       <use xlink:href="#DejaVuSans-34" x="286.279297"/>
      </g>
     </g>
    </g>
    <g id="xtick_4">
     <g id="line2d_7">
      <path d="M 434.760545 421.0056 
L 434.760545 56.7648 
" clip-path="url(#pe8ef0455bd)" style="fill: none; stroke: #b0b0b0; stroke-width: 0.8; stroke-linecap: square"/>
     </g>
     <g id="line2d_8">
      <g>
       <use xlink:href="#m7f06cb718b" x="434.760545" y="421.0056" style="stroke: #000000; stroke-width: 0.8"/>
      </g>
     </g>
     <g id="text_4">
      <!-- 0.0006 -->
      <g transform="translate(417.265233 435.604038)scale(0.1 -0.1)">
       <defs>
        <path id="DejaVuSans-36" d="M 2113 2584 
Q 1688 2584 1439 2293 
Q 1191 2003 1191 1497 
Q 1191 994 1439 701 
Q 1688 409 2113 409 
Q 2538 409 2786 701 
Q 3034 994 3034 1497 
Q 3034 2003 2786 2293 
Q 2538 2584 2113 2584 
z
M 3366 4563 
L 3366 3988 
Q 3128 4100 2886 4159 
Q 2644 4219 2406 4219 
Q 1781 4219 1451 3797 
Q 1122 3375 1075 2522 
Q 1259 2794 1537 2939 
Q 1816 3084 2150 3084 
Q 2853 3084 3261 2657 
Q 3669 2231 3669 1497 
Q 3669 778 3244 343 
Q 2819 -91 2113 -91 
Q 1303 -91 875 529 
Q 447 1150 447 2328 
Q 447 3434 972 4092 
Q 1497 4750 2381 4750 
Q 2619 4750 2861 4703 
Q 3103 4656 3366 4563 
z
" transform="scale(0.015625)"/>
       </defs>
       <use xlink:href="#DejaVuSans-30"/>
       <use xlink:href="#DejaVuSans-2e" x="63.623047"/>
       <use xlink:href="#DejaVuSans-30" x="95.410156"/>
       <use xlink:href="#DejaVuSans-30" x="159.033203"/>
       <use xlink:href="#DejaVuSans-30" x="222.65625"/>
       <use xlink:href="#DejaVuSans-36" x="286.279297"/>
      </g>
     </g>
    </g>
    <g id="xtick_5">
     <g id="line2d_9">
      <path d="M 527.151818 421.0056 
L 527.151818 56.7648 
" clip-path="url(#pe8ef0455bd)" style="fill: none; stroke: #b0b0b0; stroke-width: 0.8; stroke-linecap: square"/>
     </g>
     <g id="line2d_10">
      <g>
       <use xlink:href="#m7f06cb718b" x="527.151818" y="421.0056" style="stroke: #000000; stroke-width: 0.8"/>
      </g>
     </g>
     <g id="text_5">
      <!-- 0.0008 -->
      <g transform="translate(509.656506 435.604038)scale(0.1 -0.1)">
       <defs>
        <path id="DejaVuSans-38" d="M 2034 2216 
Q 1584 2216 1326 1975 
Q 1069 1734 1069 1313 
Q 1069 891 1326 650 
Q 1584 409 2034 409 
Q 2484 409 2743 651 
Q 3003 894 3003 1313 
Q 3003 1734 2745 1975 
Q 2488 2216 2034 2216 
z
M 1403 2484 
Q 997 2584 770 2862 
Q 544 3141 544 3541 
Q 544 4100 942 4425 
Q 1341 4750 2034 4750 
Q 2731 4750 3128 4425 
Q 3525 4100 3525 3541 
Q 3525 3141 3298 2862 
Q 3072 2584 2669 2484 
Q 3125 2378 3379 2068 
Q 3634 1759 3634 1313 
Q 3634 634 3220 271 
Q 2806 -91 2034 -91 
Q 1263 -91 848 271 
Q 434 634 434 1313 
Q 434 1759 690 2068 
Q 947 2378 1403 2484 
z
M 1172 3481 
Q 1172 3119 1398 2916 
Q 1625 2713 2034 2713 
Q 2441 2713 2670 2916 
Q 2900 3119 2900 3481 
Q 2900 3844 2670 4047 
Q 2441 4250 2034 4250 
Q 1625 4250 1398 4047 
Q 1172 3844 1172 3481 
z
" transform="scale(0.015625)"/>
       </defs>
       <use xlink:href="#DejaVuSans-30"/>
       <use xlink:href="#DejaVuSans-2e" x="63.623047"/>
       <use xlink:href="#DejaVuSans-30" x="95.410156"/>
       <use xlink:href="#DejaVuSans-30" x="159.033203"/>
       <use xlink:href="#DejaVuSans-30" x="222.65625"/>
       <use xlink:href="#DejaVuSans-38" x="286.279297"/>
      </g>
     </g>
    </g>
    <g id="xtick_6">
     <g id="line2d_11">
      <path d="M 619.543091 421.0056 
L 619.543091 56.7648 
" clip-path="url(#pe8ef0455bd)" style="fill: none; stroke: #b0b0b0; stroke-width: 0.8; stroke-linecap: square"/>
     </g>
     <g id="line2d_12">
      <g>
       <use xlink:href="#m7f06cb718b" x="619.543091" y="421.0056" style="stroke: #000000; stroke-width: 0.8"/>
      </g>
     </g>
     <g id="text_6">
      <!-- 0.0010 -->
      <g transform="translate(602.047778 435.604038)scale(0.1 -0.1)">
       <defs>
        <path id="DejaVuSans-31" d="M 794 531 
L 1825 531 
L 1825 4091 
L 703 3866 
L 703 4441 
L 1819 4666 
L 2450 4666 
L 2450 531 
L 3481 531 
L 3481 0 
L 794 0 
L 794 531 
z
" transform="scale(0.015625)"/>
       </defs>
       <use xlink:href="#DejaVuSans-30"/>
       <use xlink:href="#DejaVuSans-2e" x="63.623047"/>
       <use xlink:href="#DejaVuSans-30" x="95.410156"/>
       <use xlink:href="#DejaVuSans-30" x="159.033203"/>
       <use xlink:href="#DejaVuSans-31" x="222.65625"/>
       <use xlink:href="#DejaVuSans-30" x="286.279297"/>
      </g>
     </g>
    </g>
    <g id="xtick_7">
     <g id="line2d_13">
      <path d="M 711.934364 421.0056 
L 711.934364 56.7648 
" clip-path="url(#pe8ef0455bd)" style="fill: none; stroke: #b0b0b0; stroke-width: 0.8; stroke-linecap: square"/>
     </g>
     <g id="line2d_14">
      <g>
       <use xlink:href="#m7f06cb718b" x="711.934364" y="421.0056" style="stroke: #000000; stroke-width: 0.8"/>
      </g>
     </g>
     <g id="text_7">
      <!-- 0.0012 -->
      <g transform="translate(694.439051 435.604038)scale(0.1 -0.1)">
       <use xlink:href="#DejaVuSans-30"/>
       <use xlink:href="#DejaVuSans-2e" x="63.623047"/>
       <use xlink:href="#DejaVuSans-30" x="95.410156"/>
       <use xlink:href="#DejaVuSans-30" x="159.033203"/>
       <use xlink:href="#DejaVuSans-31" x="222.65625"/>
       <use xlink:href="#DejaVuSans-32" x="286.279297"/>
      </g>
     </g>
    </g>
    <g id="xtick_8">
     <g id="line2d_15">
      <path d="M 804.325636 421.0056 
L 804.325636 56.7648 
" clip-path="url(#pe8ef0455bd)" style="fill: none; stroke: #b0b0b0; stroke-width: 0.8; stroke-linecap: square"/>
     </g>
     <g id="line2d_16">
      <g>
       <use xlink:href="#m7f06cb718b" x="804.325636" y="421.0056" style="stroke: #000000; stroke-width: 0.8"/>
      </g>
     </g>
     <g id="text_8">
      <!-- 0.0014 -->
      <g transform="translate(786.830324 435.604038)scale(0.1 -0.1)">
       <use xlink:href="#DejaVuSans-30"/>
       <use xlink:href="#DejaVuSans-2e" x="63.623047"/>
       <use xlink:href="#DejaVuSans-30" x="95.410156"/>
       <use xlink:href="#DejaVuSans-30" x="159.033203"/>
       <use xlink:href="#DejaVuSans-31" x="222.65625"/>
       <use xlink:href="#DejaVuSans-34" x="286.279297"/>
      </g>
     </g>
    </g>
    <g id="text_9">
     <!-- Temps t en s -->
     <g transform="translate(472.546969 449.282163)scale(0.1 -0.1)">
      <defs>
       <path id="DejaVuSans-54" d="M -19 4666 
L 3928 4666 
L 3928 4134 
L 2272 4134 
L 2272 0 
L 1638 0 
L 1638 4134 
L -19 4134 
L -19 4666 
z
" transform="scale(0.015625)"/>
       <path id="DejaVuSans-65" d="M 3597 1894 
L 3597 1613 
L 953 1613 
Q 991 1019 1311 708 
Q 1631 397 2203 397 
Q 2534 397 2845 478 
Q 3156 559 3463 722 
L 3463 178 
Q 3153 47 2828 -22 
Q 2503 -91 2169 -91 
Q 1331 -91 842 396 
Q 353 884 353 1716 
Q 353 2575 817 3079 
Q 1281 3584 2069 3584 
Q 2775 3584 3186 3129 
Q 3597 2675 3597 1894 
z
M 3022 2063 
Q 3016 2534 2758 2815 
Q 2500 3097 2075 3097 
Q 1594 3097 1305 2825 
Q 1016 2553 972 2059 
L 3022 2063 
z
" transform="scale(0.015625)"/>
       <path id="DejaVuSans-6d" d="M 3328 2828 
Q 3544 3216 3844 3400 
Q 4144 3584 4550 3584 
Q 5097 3584 5394 3201 
Q 5691 2819 5691 2113 
L 5691 0 
L 5113 0 
L 5113 2094 
Q 5113 2597 4934 2840 
Q 4756 3084 4391 3084 
Q 3944 3084 3684 2787 
Q 3425 2491 3425 1978 
L 3425 0 
L 2847 0 
L 2847 2094 
Q 2847 2600 2669 2842 
Q 2491 3084 2119 3084 
Q 1678 3084 1418 2786 
Q 1159 2488 1159 1978 
L 1159 0 
L 581 0 
L 581 3500 
L 1159 3500 
L 1159 2956 
Q 1356 3278 1631 3431 
Q 1906 3584 2284 3584 
Q 2666 3584 2933 3390 
Q 3200 3197 3328 2828 
z
" transform="scale(0.015625)"/>
       <path id="DejaVuSans-70" d="M 1159 525 
L 1159 -1331 
L 581 -1331 
L 581 3500 
L 1159 3500 
L 1159 2969 
Q 1341 3281 1617 3432 
Q 1894 3584 2278 3584 
Q 2916 3584 3314 3078 
Q 3713 2572 3713 1747 
Q 3713 922 3314 415 
Q 2916 -91 2278 -91 
Q 1894 -91 1617 61 
Q 1341 213 1159 525 
z
M 3116 1747 
Q 3116 2381 2855 2742 
Q 2594 3103 2138 3103 
Q 1681 3103 1420 2742 
Q 1159 2381 1159 1747 
Q 1159 1113 1420 752 
Q 1681 391 2138 391 
Q 2594 391 2855 752 
Q 3116 1113 3116 1747 
z
" transform="scale(0.015625)"/>
       <path id="DejaVuSans-73" d="M 2834 3397 
L 2834 2853 
Q 2591 2978 2328 3040 
Q 2066 3103 1784 3103 
Q 1356 3103 1142 2972 
Q 928 2841 928 2578 
Q 928 2378 1081 2264 
Q 1234 2150 1697 2047 
L 1894 2003 
Q 2506 1872 2764 1633 
Q 3022 1394 3022 966 
Q 3022 478 2636 193 
Q 2250 -91 1575 -91 
Q 1294 -91 989 -36 
Q 684 19 347 128 
L 347 722 
Q 666 556 975 473 
Q 1284 391 1588 391 
Q 1994 391 2212 530 
Q 2431 669 2431 922 
Q 2431 1156 2273 1281 
Q 2116 1406 1581 1522 
L 1381 1569 
Q 847 1681 609 1914 
Q 372 2147 372 2553 
Q 372 3047 722 3315 
Q 1072 3584 1716 3584 
Q 2034 3584 2315 3537 
Q 2597 3491 2834 3397 
z
" transform="scale(0.015625)"/>
       <path id="DejaVuSans-20" transform="scale(0.015625)"/>
       <path id="DejaVuSans-74" d="M 1172 4494 
L 1172 3500 
L 2356 3500 
L 2356 3053 
L 1172 3053 
L 1172 1153 
Q 1172 725 1289 603 
Q 1406 481 1766 481 
L 2356 481 
L 2356 0 
L 1766 0 
Q 1100 0 847 248 
Q 594 497 594 1153 
L 594 3053 
L 172 3053 
L 172 3500 
L 594 3500 
L 594 4494 
L 1172 4494 
z
" transform="scale(0.015625)"/>
       <path id="DejaVuSans-6e" d="M 3513 2113 
L 3513 0 
L 2938 0 
L 2938 2094 
Q 2938 2591 2744 2837 
Q 2550 3084 2163 3084 
Q 1697 3084 1428 2787 
Q 1159 2491 1159 1978 
L 1159 0 
L 581 0 
L 581 3500 
L 1159 3500 
L 1159 2956 
Q 1366 3272 1645 3428 
Q 1925 3584 2291 3584 
Q 2894 3584 3203 3211 
Q 3513 2838 3513 2113 
z
" transform="scale(0.015625)"/>
      </defs>
      <use xlink:href="#DejaVuSans-54"/>
      <use xlink:href="#DejaVuSans-65" x="44.083984"/>
      <use xlink:href="#DejaVuSans-6d" x="105.607422"/>
      <use xlink:href="#DejaVuSans-70" x="203.019531"/>
      <use xlink:href="#DejaVuSans-73" x="266.496094"/>
      <use xlink:href="#DejaVuSans-20" x="318.595703"/>
      <use xlink:href="#DejaVuSans-74" x="350.382812"/>
      <use xlink:href="#DejaVuSans-20" x="389.591797"/>
      <use xlink:href="#DejaVuSans-65" x="421.378906"/>
      <use xlink:href="#DejaVuSans-6e" x="482.902344"/>
      <use xlink:href="#DejaVuSans-20" x="546.28125"/>
      <use xlink:href="#DejaVuSans-73" x="578.068359"/>
     </g>
    </g>
   </g>
   <g id="matplotlib.axis_2">
    <g id="ytick_1">
     <g id="line2d_17">
      <path d="M 122.94 404.4492 
L 885.168 404.4492 
" clip-path="url(#pe8ef0455bd)" style="fill: none; stroke: #b0b0b0; stroke-width: 0.8; stroke-linecap: square"/>
     </g>
     <g id="line2d_18">
      <defs>
       <path id="mba9f0caa4c" d="M 0 0 
L -3.5 0 
" style="stroke: #000000; stroke-width: 0.8"/>
      </defs>
      <g>
       <use xlink:href="#mba9f0caa4c" x="122.94" y="404.4492" style="stroke: #000000; stroke-width: 0.8"/>
      </g>
     </g>
     <g id="text_10">
      <!-- 0 -->
      <g transform="translate(109.5775 408.248419)scale(0.1 -0.1)">
       <use xlink:href="#DejaVuSans-30"/>
      </g>
     </g>
    </g>
    <g id="ytick_2">
     <g id="line2d_19">
      <path d="M 122.94 366.13823 
L 885.168 366.13823 
" clip-path="url(#pe8ef0455bd)" style="fill: none; stroke: #b0b0b0; stroke-width: 0.8; stroke-linecap: square"/>
     </g>
     <g id="line2d_20">
      <g>
       <use xlink:href="#mba9f0caa4c" x="122.94" y="366.13823" style="stroke: #000000; stroke-width: 0.8"/>
      </g>
     </g>
     <g id="text_11">
      <!-- 1 -->
      <g transform="translate(109.5775 369.937449)scale(0.1 -0.1)">
       <use xlink:href="#DejaVuSans-31"/>
      </g>
     </g>
    </g>
    <g id="ytick_3">
     <g id="line2d_21">
      <path d="M 122.94 327.82726 
L 885.168 327.82726 
" clip-path="url(#pe8ef0455bd)" style="fill: none; stroke: #b0b0b0; stroke-width: 0.8; stroke-linecap: square"/>
     </g>
     <g id="line2d_22">
      <g>
       <use xlink:href="#mba9f0caa4c" x="122.94" y="327.82726" style="stroke: #000000; stroke-width: 0.8"/>
      </g>
     </g>
     <g id="text_12">
      <!-- 2 -->
      <g transform="translate(109.5775 331.626479)scale(0.1 -0.1)">
       <use xlink:href="#DejaVuSans-32"/>
      </g>
     </g>
    </g>
    <g id="ytick_4">
     <g id="line2d_23">
      <path d="M 122.94 289.51629 
L 885.168 289.51629 
" clip-path="url(#pe8ef0455bd)" style="fill: none; stroke: #b0b0b0; stroke-width: 0.8; stroke-linecap: square"/>
     </g>
     <g id="line2d_24">
      <g>
       <use xlink:href="#mba9f0caa4c" x="122.94" y="289.51629" style="stroke: #000000; stroke-width: 0.8"/>
      </g>
     </g>
     <g id="text_13">
      <!-- 3 -->
      <g transform="translate(109.5775 293.315509)scale(0.1 -0.1)">
       <defs>
        <path id="DejaVuSans-33" d="M 2597 2516 
Q 3050 2419 3304 2112 
Q 3559 1806 3559 1356 
Q 3559 666 3084 287 
Q 2609 -91 1734 -91 
Q 1441 -91 1130 -33 
Q 819 25 488 141 
L 488 750 
Q 750 597 1062 519 
Q 1375 441 1716 441 
Q 2309 441 2620 675 
Q 2931 909 2931 1356 
Q 2931 1769 2642 2001 
Q 2353 2234 1838 2234 
L 1294 2234 
L 1294 2753 
L 1863 2753 
Q 2328 2753 2575 2939 
Q 2822 3125 2822 3475 
Q 2822 3834 2567 4026 
Q 2313 4219 1838 4219 
Q 1578 4219 1281 4162 
Q 984 4106 628 3988 
L 628 4550 
Q 988 4650 1302 4700 
Q 1616 4750 1894 4750 
Q 2613 4750 3031 4423 
Q 3450 4097 3450 3541 
Q 3450 3153 3228 2886 
Q 3006 2619 2597 2516 
z
" transform="scale(0.015625)"/>
       </defs>
       <use xlink:href="#DejaVuSans-33"/>
      </g>
     </g>
    </g>
    <g id="ytick_5">
     <g id="line2d_25">
      <path d="M 122.94 251.20532 
L 885.168 251.20532 
" clip-path="url(#pe8ef0455bd)" style="fill: none; stroke: #b0b0b0; stroke-width: 0.8; stroke-linecap: square"/>
     </g>
     <g id="line2d_26">
      <g>
       <use xlink:href="#mba9f0caa4c" x="122.94" y="251.20532" style="stroke: #000000; stroke-width: 0.8"/>
      </g>
     </g>
     <g id="text_14">
      <!-- 4 -->
      <g transform="translate(109.5775 255.004539)scale(0.1 -0.1)">
       <use xlink:href="#DejaVuSans-34"/>
      </g>
     </g>
    </g>
    <g id="ytick_6">
     <g id="line2d_27">
      <path d="M 122.94 212.89435 
L 885.168 212.89435 
" clip-path="url(#pe8ef0455bd)" style="fill: none; stroke: #b0b0b0; stroke-width: 0.8; stroke-linecap: square"/>
     </g>
     <g id="line2d_28">
      <g>
       <use xlink:href="#mba9f0caa4c" x="122.94" y="212.89435" style="stroke: #000000; stroke-width: 0.8"/>
      </g>
     </g>
     <g id="text_15">
      <!-- 5 -->
      <g transform="translate(109.5775 216.693569)scale(0.1 -0.1)">
       <defs>
        <path id="DejaVuSans-35" d="M 691 4666 
L 3169 4666 
L 3169 4134 
L 1269 4134 
L 1269 2991 
Q 1406 3038 1543 3061 
Q 1681 3084 1819 3084 
Q 2600 3084 3056 2656 
Q 3513 2228 3513 1497 
Q 3513 744 3044 326 
Q 2575 -91 1722 -91 
Q 1428 -91 1123 -41 
Q 819 9 494 109 
L 494 744 
Q 775 591 1075 516 
Q 1375 441 1709 441 
Q 2250 441 2565 725 
Q 2881 1009 2881 1497 
Q 2881 1984 2565 2268 
Q 2250 2553 1709 2553 
Q 1456 2553 1204 2497 
Q 953 2441 691 2322 
L 691 4666 
z
" transform="scale(0.015625)"/>
       </defs>
       <use xlink:href="#DejaVuSans-35"/>
      </g>
     </g>
    </g>
    <g id="ytick_7">
     <g id="line2d_29">
      <path d="M 122.94 174.58338 
L 885.168 174.58338 
" clip-path="url(#pe8ef0455bd)" style="fill: none; stroke: #b0b0b0; stroke-width: 0.8; stroke-linecap: square"/>
     </g>
     <g id="line2d_30">
      <g>
       <use xlink:href="#mba9f0caa4c" x="122.94" y="174.58338" style="stroke: #000000; stroke-width: 0.8"/>
      </g>
     </g>
     <g id="text_16">
      <!-- 6 -->
      <g transform="translate(109.5775 178.382599)scale(0.1 -0.1)">
       <use xlink:href="#DejaVuSans-36"/>
      </g>
     </g>
    </g>
    <g id="ytick_8">
     <g id="line2d_31">
      <path d="M 122.94 136.27241 
L 885.168 136.27241 
" clip-path="url(#pe8ef0455bd)" style="fill: none; stroke: #b0b0b0; stroke-width: 0.8; stroke-linecap: square"/>
     </g>
     <g id="line2d_32">
      <g>
       <use xlink:href="#mba9f0caa4c" x="122.94" y="136.27241" style="stroke: #000000; stroke-width: 0.8"/>
      </g>
     </g>
     <g id="text_17">
      <!-- 7 -->
      <g transform="translate(109.5775 140.071628)scale(0.1 -0.1)">
       <defs>
        <path id="DejaVuSans-37" d="M 525 4666 
L 3525 4666 
L 3525 4397 
L 1831 0 
L 1172 0 
L 2766 4134 
L 525 4134 
L 525 4666 
z
" transform="scale(0.015625)"/>
       </defs>
       <use xlink:href="#DejaVuSans-37"/>
      </g>
     </g>
    </g>
    <g id="ytick_9">
     <g id="line2d_33">
      <path d="M 122.94 97.96144 
L 885.168 97.96144 
" clip-path="url(#pe8ef0455bd)" style="fill: none; stroke: #b0b0b0; stroke-width: 0.8; stroke-linecap: square"/>
     </g>
     <g id="line2d_34">
      <g>
       <use xlink:href="#mba9f0caa4c" x="122.94" y="97.96144" style="stroke: #000000; stroke-width: 0.8"/>
      </g>
     </g>
     <g id="text_18">
      <!-- 8 -->
      <g transform="translate(109.5775 101.760658)scale(0.1 -0.1)">
       <use xlink:href="#DejaVuSans-38"/>
      </g>
     </g>
    </g>
    <g id="text_19">
     <!-- Tension en Volt -->
     <g transform="translate(103.497812 276.421137)rotate(-90)scale(0.1 -0.1)">
      <defs>
       <path id="DejaVuSans-69" d="M 603 3500 
L 1178 3500 
L 1178 0 
L 603 0 
L 603 3500 
z
M 603 4863 
L 1178 4863 
L 1178 4134 
L 603 4134 
L 603 4863 
z
" transform="scale(0.015625)"/>
       <path id="DejaVuSans-6f" d="M 1959 3097 
Q 1497 3097 1228 2736 
Q 959 2375 959 1747 
Q 959 1119 1226 758 
Q 1494 397 1959 397 
Q 2419 397 2687 759 
Q 2956 1122 2956 1747 
Q 2956 2369 2687 2733 
Q 2419 3097 1959 3097 
z
M 1959 3584 
Q 2709 3584 3137 3096 
Q 3566 2609 3566 1747 
Q 3566 888 3137 398 
Q 2709 -91 1959 -91 
Q 1206 -91 779 398 
Q 353 888 353 1747 
Q 353 2609 779 3096 
Q 1206 3584 1959 3584 
z
" transform="scale(0.015625)"/>
       <path id="DejaVuSans-56" d="M 1831 0 
L 50 4666 
L 709 4666 
L 2188 738 
L 3669 4666 
L 4325 4666 
L 2547 0 
L 1831 0 
z
" transform="scale(0.015625)"/>
       <path id="DejaVuSans-6c" d="M 603 4863 
L 1178 4863 
L 1178 0 
L 603 0 
L 603 4863 
z
" transform="scale(0.015625)"/>
      </defs>
      <use xlink:href="#DejaVuSans-54"/>
      <use xlink:href="#DejaVuSans-65" x="44.083984"/>
      <use xlink:href="#DejaVuSans-6e" x="105.607422"/>
      <use xlink:href="#DejaVuSans-73" x="168.986328"/>
      <use xlink:href="#DejaVuSans-69" x="221.085938"/>
      <use xlink:href="#DejaVuSans-6f" x="248.869141"/>
      <use xlink:href="#DejaVuSans-6e" x="310.050781"/>
      <use xlink:href="#DejaVuSans-20" x="373.429688"/>
      <use xlink:href="#DejaVuSans-65" x="405.216797"/>
      <use xlink:href="#DejaVuSans-6e" x="466.740234"/>
      <use xlink:href="#DejaVuSans-20" x="530.119141"/>
      <use xlink:href="#DejaVuSans-56" x="561.90625"/>
      <use xlink:href="#DejaVuSans-6f" x="622.564453"/>
      <use xlink:href="#DejaVuSans-6c" x="683.746094"/>
      <use xlink:href="#DejaVuSans-74" x="711.529297"/>
     </g>
    </g>
   </g>
   <g id="line2d_35">
    <path d="M 157.586727 404.4492 
L 158.975374 403.601012 
L 160.36402 401.085131 
L 161.752666 396.95497 
L 163.141313 391.277192 
L 164.529959 384.130878 
L 165.918606 375.606592 
L 167.307252 365.805369 
L 168.695898 354.837626 
L 171.473191 329.884204 
L 174.250484 301.772415 
L 178.416423 256.094952 
L 183.971009 194.537567 
L 186.748301 165.893866 
L 189.525594 139.952486 
L 190.91424 128.252532 
L 192.302887 117.518705 
L 193.691533 107.827687 
L 195.08018 99.24552 
L 196.468826 91.827221 
L 197.857472 85.616502 
L 199.246119 80.645598 
L 200.634765 76.935196 
L 202.023412 74.494466 
L 203.412058 73.3212 
L 204.800704 73.402041 
L 206.189351 74.712811 
L 207.577997 77.218927 
L 208.966643 80.875898 
L 210.35529 85.629909 
L 211.743936 91.418466 
L 213.132583 98.171111 
L 214.521229 105.810192 
L 215.909875 114.251688 
L 218.687168 133.179161 
L 221.464461 154.187356 
L 227.019046 199.190015 
L 231.184986 232.351578 
L 233.962278 252.747867 
L 236.739571 270.997025 
L 238.128218 279.13791 
L 239.516864 286.541679 
L 240.90551 293.156763 
L 242.294157 298.93952 
L 243.682803 303.854472 
L 245.071449 307.874467 
L 246.460096 310.98076 
L 247.848742 313.163026 
L 249.237389 314.419286 
L 250.626035 314.755778 
L 252.014681 314.186738 
L 253.403328 312.734134 
L 254.791974 310.42732 
L 256.180621 307.302643 
L 257.569267 303.40299 
L 258.957913 298.777288 
L 260.34656 293.479956 
L 261.735206 287.570327 
L 264.512499 274.172332 
L 267.289792 259.132168 
L 271.455731 234.779101 
L 277.010316 202.096133 
L 279.787609 186.943246 
L 282.564902 173.25787 
L 283.953548 167.100841 
L 285.342195 161.463277 
L 286.730841 156.385227 
L 288.119487 151.901051 
L 289.508134 148.039225 
L 290.89678 144.822196 
L 292.285426 142.266301 
L 293.674073 140.381734 
L 295.062719 139.172569 
L 296.451366 138.636846 
L 297.840012 138.766693 
L 299.228658 139.548512 
L 300.617305 140.963202 
L 302.005951 142.986432 
L 303.394598 145.588957 
L 304.783244 148.736961 
L 306.17189 152.39245 
L 307.560537 156.513656 
L 310.337829 165.969968 
L 313.115122 176.713575 
L 317.281061 194.313573 
L 322.835647 218.262444 
L 325.61294 229.499086 
L 328.390232 239.739615 
L 331.167525 248.663525 
L 332.556172 252.547194 
L 333.944818 256.008143 
L 335.333464 259.023728 
L 336.722111 261.57566 
L 338.110757 263.650085 
L 339.499404 265.237625 
L 340.88805 266.333374 
L 342.276696 266.93686 
L 343.665343 267.051967 
L 345.053989 266.686815 
L 346.442635 265.853614 
L 347.831282 264.568477 
L 349.219928 262.851204 
L 350.608575 260.725041 
L 351.997221 258.216409 
L 353.385867 255.354609 
L 354.774514 252.171513 
L 357.551807 244.979779 
L 360.329099 236.93474 
L 364.495038 223.952994 
L 370.049624 206.603115 
L 372.826917 198.588401 
L 375.60421 191.370126 
L 378.381502 185.170709 
L 379.770149 182.510741 
L 381.158795 180.168767 
L 382.547441 178.159515 
L 383.936088 176.494495 
L 385.324734 175.181967 
L 386.713381 174.226922 
L 388.102027 173.631104 
L 389.490673 173.39305 
L 390.87932 173.508168 
L 392.267966 173.968835 
L 393.656612 174.764518 
L 395.045259 175.881925 
L 396.433905 177.305171 
L 397.822552 179.015971 
L 399.211198 180.99384 
L 400.599844 183.216322 
L 403.377137 188.296843 
L 406.15443 194.047575 
L 410.320369 203.434703 
L 415.874955 216.154467 
L 418.652247 222.101085 
L 421.42954 227.505911 
L 424.206833 232.200381 
L 425.595479 234.236935 
L 426.984126 236.046971 
L 428.372772 237.618751 
L 429.761418 238.942854 
L 431.150065 240.012226 
L 432.538711 240.822193 
L 433.927358 241.370458 
L 435.316004 241.657077 
L 436.70465 241.684416 
L 438.093297 241.457083 
L 439.481943 240.981851 
L 440.87059 240.267554 
L 442.259236 239.32497 
L 443.647882 238.166692 
L 445.036529 236.80698 
L 446.425175 235.261608 
L 449.202468 231.683513 
L 451.979761 227.582244 
L 456.1457 220.806921 
L 463.088932 209.258086 
L 465.866224 205.019642 
L 468.643517 201.213175 
L 471.42081 197.955531 
L 472.809456 196.562682 
L 474.198103 195.34007 
L 475.586749 194.295303 
L 476.975396 193.434276 
L 478.364042 192.761153 
L 479.752688 192.278361 
L 481.141335 191.9866 
L 482.529981 191.884872 
L 483.918627 191.97052 
L 485.307274 192.239281 
L 486.69592 192.685358 
L 488.084567 193.301493 
L 489.473213 194.079067 
L 490.861859 195.008194 
L 493.639152 197.275922 
L 496.416445 200.004729 
L 499.193738 203.082275 
L 503.359677 208.088142 
L 508.914262 214.842853 
L 511.691555 217.989379 
L 514.468848 220.841427 
L 517.246141 223.310365 
L 520.023433 225.324222 
L 521.41208 226.143038 
L 522.800726 226.829574 
L 524.189373 227.380245 
L 525.578019 227.79273 
L 526.966665 228.065975 
L 528.355312 228.200172 
L 529.743958 228.196738 
L 531.132604 228.058278 
L 532.521251 227.788542 
L 533.909897 227.392366 
L 536.68719 226.245102 
L 539.464483 224.674376 
L 542.241776 222.750709 
L 545.019068 220.554327 
L 549.185007 216.939214 
L 556.128239 210.806732 
L 558.905532 208.56569 
L 561.682825 206.55881 
L 564.460118 204.84746 
L 567.23741 203.480417 
L 570.014703 202.492632 
L 572.791996 201.904525 
L 575.569289 201.721805 
L 578.346582 201.935824 
L 581.123874 202.524403 
L 583.901167 203.453114 
L 586.67846 204.676933 
L 589.455753 206.142204 
L 593.621692 208.66019 
L 604.730863 215.708976 
L 607.508156 217.213664 
L 610.285448 218.511813 
L 613.062741 219.565768 
L 615.840034 220.347795 
L 618.617327 220.840678 
L 621.394619 221.037934 
L 624.171912 220.943634 
L 626.949205 220.57188 
L 629.726498 219.945932 
L 632.50379 219.09706 
L 636.66973 217.490089 
L 642.224315 214.958587 
L 650.556193 211.096742 
L 654.722133 209.460119 
L 657.499425 208.561337 
L 660.276718 207.847113 
L 663.054011 207.335533 
L 665.831304 207.036941 
L 668.608596 206.953863 
L 671.385889 207.081211 
L 674.163182 207.406739 
L 676.940475 207.911738 
L 681.106414 208.951368 
L 685.272353 210.239357 
L 700.547463 215.240372 
L 704.713402 216.215846 
L 708.879342 216.880128 
L 711.656634 217.131952 
L 714.433927 217.226533 
L 717.21122 217.166398 
L 721.377159 216.80458 
L 725.543098 216.159601 
L 729.709037 215.297055 
L 736.652269 213.593248 
L 744.984148 211.591332 
L 749.150087 210.786262 
L 753.316026 210.188943 
L 757.481965 209.834231 
L 761.647904 209.736256 
L 765.813843 209.888469 
L 769.979782 210.265291 
L 775.534368 211.043438 
L 783.866246 212.530174 
L 792.198125 213.965237 
L 797.75271 214.679866 
L 801.918649 215.025349 
L 806.084588 215.186623 
L 810.250528 215.161333 
L 815.805113 214.86045 
L 821.359699 214.314447 
L 831.080223 213.054197 
L 839.412102 212.028565 
L 844.966687 211.534919 
L 850.521273 211.261816 
L 850.521273 211.261816 
" clip-path="url(#pe8ef0455bd)" style="fill: none; stroke: #1f77b4; stroke-width: 1.5; stroke-linecap: square"/>
   </g>
   <g id="line2d_36">
    <path d="M 157.586727 404.4492 
L 158.975374 403.646949 
L 160.36402 401.433738 
L 161.752666 398.070378 
L 163.141313 393.782133 
L 164.529959 388.763005 
L 167.307252 377.174222 
L 171.473191 357.750893 
L 177.027777 331.468518 
L 179.805069 319.045437 
L 182.582362 307.386264 
L 185.359655 296.596039 
L 188.136948 286.721014 
L 190.91424 277.765784 
L 193.691533 269.706251 
L 196.468826 262.499367 
L 199.246119 256.09037 
L 202.023412 250.418092 
L 204.800704 245.418784 
L 207.577997 241.028819 
L 210.35529 237.186537 
L 213.132583 233.833453 
L 215.909875 230.91499 
L 218.687168 228.380868 
L 221.464461 226.185238 
L 224.241754 224.28665 
L 227.019046 222.647894 
L 229.796339 221.23577 
L 232.573632 220.020811 
L 236.739571 218.511957 
L 240.90551 217.313842 
L 245.071449 216.36498 
L 249.237389 215.615308 
L 254.791974 214.856706 
L 261.735206 214.194081 
L 270.067084 213.683571 
L 279.787609 213.332972 
L 293.674073 213.082245 
L 315.892415 212.941927 
L 370.049624 212.895921 
L 850.521273 212.89435 
L 850.521273 212.89435 
" clip-path="url(#pe8ef0455bd)" style="fill: none; stroke: #ff7f0e; stroke-width: 1.5; stroke-linecap: square"/>
   </g>
   <g id="line2d_37">
    <path d="M 157.586727 404.4492 
L 158.975374 403.715517 
L 160.36402 401.902525 
L 161.752666 399.429312 
L 164.529959 393.469086 
L 175.63913 367.878714 
L 179.805069 358.996805 
L 183.971009 350.612478 
L 188.136948 342.706359 
L 192.302887 335.253358 
L 196.468826 328.228067 
L 200.634765 321.606086 
L 204.800704 315.3643 
L 208.966643 309.480887 
L 213.132583 303.935275 
L 217.298522 298.70807 
L 221.464461 293.78099 
L 225.6304 289.136804 
L 229.796339 284.759267 
L 233.962278 280.633071 
L 239.516864 275.497628 
L 245.071449 270.751516 
L 250.626035 266.365221 
L 256.180621 262.31146 
L 261.735206 258.565025 
L 267.289792 255.102617 
L 272.844377 251.902703 
L 278.398963 248.945382 
L 283.953548 246.212263 
L 289.508134 243.686349 
L 296.451366 240.79652 
L 303.394598 238.177902 
L 310.337829 235.805042 
L 317.281061 233.654875 
L 325.61294 231.339341 
L 333.944818 229.282072 
L 342.276696 227.45426 
L 351.997221 225.577843 
L 361.717746 223.94325 
L 371.43827 222.519316 
L 382.547441 221.11525 
L 395.045259 219.778963 
L 407.543076 218.659887 
L 421.42954 217.628478 
L 436.70465 216.705712 
L 454.757053 215.844204 
L 475.586749 215.08918 
L 499.193738 214.464283 
L 526.966665 213.952827 
L 561.682825 213.541019 
L 607.508156 213.231795 
L 674.163182 213.025366 
L 792.198125 212.918881 
L 850.521273 212.90507 
L 850.521273 212.90507 
" clip-path="url(#pe8ef0455bd)" style="fill: none; stroke: #2ca02c; stroke-width: 1.5; stroke-linecap: square"/>
   </g>
   <g id="line2d_38">
    <path d="M 157.586727 212.89435 
L 850.521273 212.89435 
L 850.521273 212.89435 
" clip-path="url(#pe8ef0455bd)" style="fill: none; stroke-dasharray: 1.5,2.475; stroke-dashoffset: 0; stroke: #ff0000; stroke-width: 1.5"/>
   </g>
   <g id="patch_3">
    <path d="M 122.94 421.0056 
L 122.94 56.7648 
" style="fill: none; stroke: #000000; stroke-width: 0.8; stroke-linejoin: miter; stroke-linecap: square"/>
   </g>
   <g id="patch_4">
    <path d="M 885.168 421.0056 
L 885.168 56.7648 
" style="fill: none; stroke: #000000; stroke-width: 0.8; stroke-linejoin: miter; stroke-linecap: square"/>
   </g>
   <g id="patch_5">
    <path d="M 122.94 421.0056 
L 885.168 421.0056 
" style="fill: none; stroke: #000000; stroke-width: 0.8; stroke-linejoin: miter; stroke-linecap: square"/>
   </g>
   <g id="patch_6">
    <path d="M 122.94 56.7648 
L 885.168 56.7648 
" style="fill: none; stroke: #000000; stroke-width: 0.8; stroke-linejoin: miter; stroke-linecap: square"/>
   </g>
   <g id="text_20">
    <!-- Tension aux bornes de C en fonction du temps -->
    <g transform="translate(364.903688 50.7648)scale(0.12 -0.12)">
     <defs>
      <path id="DejaVuSans-61" d="M 2194 1759 
Q 1497 1759 1228 1600 
Q 959 1441 959 1056 
Q 959 750 1161 570 
Q 1363 391 1709 391 
Q 2188 391 2477 730 
Q 2766 1069 2766 1631 
L 2766 1759 
L 2194 1759 
z
M 3341 1997 
L 3341 0 
L 2766 0 
L 2766 531 
Q 2569 213 2275 61 
Q 1981 -91 1556 -91 
Q 1019 -91 701 211 
Q 384 513 384 1019 
Q 384 1609 779 1909 
Q 1175 2209 1959 2209 
L 2766 2209 
L 2766 2266 
Q 2766 2663 2505 2880 
Q 2244 3097 1772 3097 
Q 1472 3097 1187 3025 
Q 903 2953 641 2809 
L 641 3341 
Q 956 3463 1253 3523 
Q 1550 3584 1831 3584 
Q 2591 3584 2966 3190 
Q 3341 2797 3341 1997 
z
" transform="scale(0.015625)"/>
      <path id="DejaVuSans-75" d="M 544 1381 
L 544 3500 
L 1119 3500 
L 1119 1403 
Q 1119 906 1312 657 
Q 1506 409 1894 409 
Q 2359 409 2629 706 
Q 2900 1003 2900 1516 
L 2900 3500 
L 3475 3500 
L 3475 0 
L 2900 0 
L 2900 538 
Q 2691 219 2414 64 
Q 2138 -91 1772 -91 
Q 1169 -91 856 284 
Q 544 659 544 1381 
z
M 1991 3584 
L 1991 3584 
z
" transform="scale(0.015625)"/>
      <path id="DejaVuSans-78" d="M 3513 3500 
L 2247 1797 
L 3578 0 
L 2900 0 
L 1881 1375 
L 863 0 
L 184 0 
L 1544 1831 
L 300 3500 
L 978 3500 
L 1906 2253 
L 2834 3500 
L 3513 3500 
z
" transform="scale(0.015625)"/>
      <path id="DejaVuSans-62" d="M 3116 1747 
Q 3116 2381 2855 2742 
Q 2594 3103 2138 3103 
Q 1681 3103 1420 2742 
Q 1159 2381 1159 1747 
Q 1159 1113 1420 752 
Q 1681 391 2138 391 
Q 2594 391 2855 752 
Q 3116 1113 3116 1747 
z
M 1159 2969 
Q 1341 3281 1617 3432 
Q 1894 3584 2278 3584 
Q 2916 3584 3314 3078 
Q 3713 2572 3713 1747 
Q 3713 922 3314 415 
Q 2916 -91 2278 -91 
Q 1894 -91 1617 61 
Q 1341 213 1159 525 
L 1159 0 
L 581 0 
L 581 4863 
L 1159 4863 
L 1159 2969 
z
" transform="scale(0.015625)"/>
      <path id="DejaVuSans-72" d="M 2631 2963 
Q 2534 3019 2420 3045 
Q 2306 3072 2169 3072 
Q 1681 3072 1420 2755 
Q 1159 2438 1159 1844 
L 1159 0 
L 581 0 
L 581 3500 
L 1159 3500 
L 1159 2956 
Q 1341 3275 1631 3429 
Q 1922 3584 2338 3584 
Q 2397 3584 2469 3576 
Q 2541 3569 2628 3553 
L 2631 2963 
z
" transform="scale(0.015625)"/>
      <path id="DejaVuSans-64" d="M 2906 2969 
L 2906 4863 
L 3481 4863 
L 3481 0 
L 2906 0 
L 2906 525 
Q 2725 213 2448 61 
Q 2172 -91 1784 -91 
Q 1150 -91 751 415 
Q 353 922 353 1747 
Q 353 2572 751 3078 
Q 1150 3584 1784 3584 
Q 2172 3584 2448 3432 
Q 2725 3281 2906 2969 
z
M 947 1747 
Q 947 1113 1208 752 
Q 1469 391 1925 391 
Q 2381 391 2643 752 
Q 2906 1113 2906 1747 
Q 2906 2381 2643 2742 
Q 2381 3103 1925 3103 
Q 1469 3103 1208 2742 
Q 947 2381 947 1747 
z
" transform="scale(0.015625)"/>
      <path id="DejaVuSans-43" d="M 4122 4306 
L 4122 3641 
Q 3803 3938 3442 4084 
Q 3081 4231 2675 4231 
Q 1875 4231 1450 3742 
Q 1025 3253 1025 2328 
Q 1025 1406 1450 917 
Q 1875 428 2675 428 
Q 3081 428 3442 575 
Q 3803 722 4122 1019 
L 4122 359 
Q 3791 134 3420 21 
Q 3050 -91 2638 -91 
Q 1578 -91 968 557 
Q 359 1206 359 2328 
Q 359 3453 968 4101 
Q 1578 4750 2638 4750 
Q 3056 4750 3426 4639 
Q 3797 4528 4122 4306 
z
" transform="scale(0.015625)"/>
      <path id="DejaVuSans-66" d="M 2375 4863 
L 2375 4384 
L 1825 4384 
Q 1516 4384 1395 4259 
Q 1275 4134 1275 3809 
L 1275 3500 
L 2222 3500 
L 2222 3053 
L 1275 3053 
L 1275 0 
L 697 0 
L 697 3053 
L 147 3053 
L 147 3500 
L 697 3500 
L 697 3744 
Q 697 4328 969 4595 
Q 1241 4863 1831 4863 
L 2375 4863 
z
" transform="scale(0.015625)"/>
      <path id="DejaVuSans-63" d="M 3122 3366 
L 3122 2828 
Q 2878 2963 2633 3030 
Q 2388 3097 2138 3097 
Q 1578 3097 1268 2742 
Q 959 2388 959 1747 
Q 959 1106 1268 751 
Q 1578 397 2138 397 
Q 2388 397 2633 464 
Q 2878 531 3122 666 
L 3122 134 
Q 2881 22 2623 -34 
Q 2366 -91 2075 -91 
Q 1284 -91 818 406 
Q 353 903 353 1747 
Q 353 2603 823 3093 
Q 1294 3584 2113 3584 
Q 2378 3584 2631 3529 
Q 2884 3475 3122 3366 
z
" transform="scale(0.015625)"/>
     </defs>
     <use xlink:href="#DejaVuSans-54"/>
     <use xlink:href="#DejaVuSans-65" x="44.083984"/>
     <use xlink:href="#DejaVuSans-6e" x="105.607422"/>
     <use xlink:href="#DejaVuSans-73" x="168.986328"/>
     <use xlink:href="#DejaVuSans-69" x="221.085938"/>
     <use xlink:href="#DejaVuSans-6f" x="248.869141"/>
     <use xlink:href="#DejaVuSans-6e" x="310.050781"/>
     <use xlink:href="#DejaVuSans-20" x="373.429688"/>
     <use xlink:href="#DejaVuSans-61" x="405.216797"/>
     <use xlink:href="#DejaVuSans-75" x="466.496094"/>
     <use xlink:href="#DejaVuSans-78" x="529.875"/>
     <use xlink:href="#DejaVuSans-20" x="589.054688"/>
     <use xlink:href="#DejaVuSans-62" x="620.841797"/>
     <use xlink:href="#DejaVuSans-6f" x="684.318359"/>
     <use xlink:href="#DejaVuSans-72" x="745.5"/>
     <use xlink:href="#DejaVuSans-6e" x="784.863281"/>
     <use xlink:href="#DejaVuSans-65" x="848.242188"/>
     <use xlink:href="#DejaVuSans-73" x="909.765625"/>
     <use xlink:href="#DejaVuSans-20" x="961.865234"/>
     <use xlink:href="#DejaVuSans-64" x="993.652344"/>
     <use xlink:href="#DejaVuSans-65" x="1057.128906"/>
     <use xlink:href="#DejaVuSans-20" x="1118.652344"/>
     <use xlink:href="#DejaVuSans-43" x="1150.439453"/>
     <use xlink:href="#DejaVuSans-20" x="1220.263672"/>
     <use xlink:href="#DejaVuSans-65" x="1252.050781"/>
     <use xlink:href="#DejaVuSans-6e" x="1313.574219"/>
     <use xlink:href="#DejaVuSans-20" x="1376.953125"/>
     <use xlink:href="#DejaVuSans-66" x="1408.740234"/>
     <use xlink:href="#DejaVuSans-6f" x="1443.945312"/>
     <use xlink:href="#DejaVuSans-6e" x="1505.126953"/>
     <use xlink:href="#DejaVuSans-63" x="1568.505859"/>
     <use xlink:href="#DejaVuSans-74" x="1623.486328"/>
     <use xlink:href="#DejaVuSans-69" x="1662.695312"/>
     <use xlink:href="#DejaVuSans-6f" x="1690.478516"/>
     <use xlink:href="#DejaVuSans-6e" x="1751.660156"/>
     <use xlink:href="#DejaVuSans-20" x="1815.039062"/>
     <use xlink:href="#DejaVuSans-64" x="1846.826172"/>
     <use xlink:href="#DejaVuSans-75" x="1910.302734"/>
     <use xlink:href="#DejaVuSans-20" x="1973.681641"/>
     <use xlink:href="#DejaVuSans-74" x="2005.46875"/>
     <use xlink:href="#DejaVuSans-65" x="2044.677734"/>
     <use xlink:href="#DejaVuSans-6d" x="2106.201172"/>
     <use xlink:href="#DejaVuSans-70" x="2203.613281"/>
     <use xlink:href="#DejaVuSans-73" x="2267.089844"/>
    </g>
   </g>
   <g id="legend_1">
    <g id="patch_7">
     <path d="M 761.802375 123.4773 
L 878.168 123.4773 
Q 880.168 123.4773 880.168 121.4773 
L 880.168 63.7648 
Q 880.168 61.7648 878.168 61.7648 
L 761.802375 61.7648 
Q 759.802375 61.7648 759.802375 63.7648 
L 759.802375 121.4773 
Q 759.802375 123.4773 761.802375 123.4773 
z
" style="fill: #ffffff; opacity: 0.8; stroke: #cccccc; stroke-linejoin: miter"/>
    </g>
    <g id="line2d_39">
     <path d="M 763.802375 69.863237 
L 773.802375 69.863237 
L 783.802375 69.863237 
" style="fill: none; stroke: #1f77b4; stroke-width: 1.5; stroke-linecap: square"/>
    </g>
    <g id="text_21">
     <!-- Q = 5 -->
     <g transform="translate(791.802375 73.363237)scale(0.1 -0.1)">
      <defs>
       <path id="DejaVuSans-51" d="M 2522 4238 
Q 1834 4238 1429 3725 
Q 1025 3213 1025 2328 
Q 1025 1447 1429 934 
Q 1834 422 2522 422 
Q 3209 422 3611 934 
Q 4013 1447 4013 2328 
Q 4013 3213 3611 3725 
Q 3209 4238 2522 4238 
z
M 3406 84 
L 4238 -825 
L 3475 -825 
L 2784 -78 
Q 2681 -84 2626 -87 
Q 2572 -91 2522 -91 
Q 1538 -91 948 567 
Q 359 1225 359 2328 
Q 359 3434 948 4092 
Q 1538 4750 2522 4750 
Q 3503 4750 4090 4092 
Q 4678 3434 4678 2328 
Q 4678 1516 4351 937 
Q 4025 359 3406 84 
z
" transform="scale(0.015625)"/>
       <path id="DejaVuSans-3d" d="M 678 2906 
L 4684 2906 
L 4684 2381 
L 678 2381 
L 678 2906 
z
M 678 1631 
L 4684 1631 
L 4684 1100 
L 678 1100 
L 678 1631 
z
" transform="scale(0.015625)"/>
      </defs>
      <use xlink:href="#DejaVuSans-51"/>
      <use xlink:href="#DejaVuSans-20" x="78.710938"/>
      <use xlink:href="#DejaVuSans-3d" x="110.498047"/>
      <use xlink:href="#DejaVuSans-20" x="194.287109"/>
      <use xlink:href="#DejaVuSans-35" x="226.074219"/>
     </g>
    </g>
    <g id="line2d_40">
     <path d="M 763.802375 84.541362 
L 773.802375 84.541362 
L 783.802375 84.541362 
" style="fill: none; stroke: #ff7f0e; stroke-width: 1.5; stroke-linecap: square"/>
    </g>
    <g id="text_22">
     <!-- Q = 0,5 -->
     <g transform="translate(791.802375 88.041362)scale(0.1 -0.1)">
      <defs>
       <path id="DejaVuSans-2c" d="M 750 794 
L 1409 794 
L 1409 256 
L 897 -744 
L 494 -744 
L 750 256 
L 750 794 
z
" transform="scale(0.015625)"/>
      </defs>
      <use xlink:href="#DejaVuSans-51"/>
      <use xlink:href="#DejaVuSans-20" x="78.710938"/>
      <use xlink:href="#DejaVuSans-3d" x="110.498047"/>
      <use xlink:href="#DejaVuSans-20" x="194.287109"/>
      <use xlink:href="#DejaVuSans-30" x="226.074219"/>
      <use xlink:href="#DejaVuSans-2c" x="289.697266"/>
      <use xlink:href="#DejaVuSans-35" x="321.484375"/>
     </g>
    </g>
    <g id="line2d_41">
     <path d="M 763.802375 99.219487 
L 773.802375 99.219487 
L 783.802375 99.219487 
" style="fill: none; stroke: #2ca02c; stroke-width: 1.5; stroke-linecap: square"/>
    </g>
    <g id="text_23">
     <!-- Q = 0,2 -->
     <g transform="translate(791.802375 102.719487)scale(0.1 -0.1)">
      <use xlink:href="#DejaVuSans-51"/>
      <use xlink:href="#DejaVuSans-20" x="78.710938"/>
      <use xlink:href="#DejaVuSans-3d" x="110.498047"/>
      <use xlink:href="#DejaVuSans-20" x="194.287109"/>
      <use xlink:href="#DejaVuSans-30" x="226.074219"/>
      <use xlink:href="#DejaVuSans-2c" x="289.697266"/>
      <use xlink:href="#DejaVuSans-32" x="321.484375"/>
     </g>
    </g>
    <g id="line2d_42">
     <path d="M 763.802375 113.897612 
L 773.802375 113.897612 
L 783.802375 113.897612 
" style="fill: none; stroke-dasharray: 1.5,2.475; stroke-dashoffset: 0; stroke: #ff0000; stroke-width: 1.5"/>
    </g>
    <g id="text_24">
     <!-- Asymptote y = 5 -->
     <g transform="translate(791.802375 117.397612)scale(0.1 -0.1)">
      <defs>
       <path id="DejaVuSans-41" d="M 2188 4044 
L 1331 1722 
L 3047 1722 
L 2188 4044 
z
M 1831 4666 
L 2547 4666 
L 4325 0 
L 3669 0 
L 3244 1197 
L 1141 1197 
L 716 0 
L 50 0 
L 1831 4666 
z
" transform="scale(0.015625)"/>
       <path id="DejaVuSans-79" d="M 2059 -325 
Q 1816 -950 1584 -1140 
Q 1353 -1331 966 -1331 
L 506 -1331 
L 506 -850 
L 844 -850 
Q 1081 -850 1212 -737 
Q 1344 -625 1503 -206 
L 1606 56 
L 191 3500 
L 800 3500 
L 1894 763 
L 2988 3500 
L 3597 3500 
L 2059 -325 
z
" transform="scale(0.015625)"/>
      </defs>
      <use xlink:href="#DejaVuSans-41"/>
      <use xlink:href="#DejaVuSans-73" x="68.408203"/>
      <use xlink:href="#DejaVuSans-79" x="120.507812"/>
      <use xlink:href="#DejaVuSans-6d" x="179.6875"/>
      <use xlink:href="#DejaVuSans-70" x="277.099609"/>
      <use xlink:href="#DejaVuSans-74" x="340.576172"/>
      <use xlink:href="#DejaVuSans-6f" x="379.785156"/>
      <use xlink:href="#DejaVuSans-74" x="440.966797"/>
      <use xlink:href="#DejaVuSans-65" x="480.175781"/>
      <use xlink:href="#DejaVuSans-20" x="541.699219"/>
      <use xlink:href="#DejaVuSans-79" x="573.486328"/>
      <use xlink:href="#DejaVuSans-20" x="632.666016"/>
      <use xlink:href="#DejaVuSans-3d" x="664.453125"/>
      <use xlink:href="#DejaVuSans-20" x="748.242188"/>
      <use xlink:href="#DejaVuSans-35" x="780.029297"/>
     </g>
    </g>
   </g>
  </g>
  <g id="text_25">
   <!-- Réponse d'un RLC à un échelon de tension de 5V -->
   <g transform="translate(344.1975 19.058925)scale(0.12 -0.12)">
    <defs>
     <path id="DejaVuSans-52" d="M 2841 2188 
Q 3044 2119 3236 1894 
Q 3428 1669 3622 1275 
L 4263 0 
L 3584 0 
L 2988 1197 
Q 2756 1666 2539 1819 
Q 2322 1972 1947 1972 
L 1259 1972 
L 1259 0 
L 628 0 
L 628 4666 
L 2053 4666 
Q 2853 4666 3247 4331 
Q 3641 3997 3641 3322 
Q 3641 2881 3436 2590 
Q 3231 2300 2841 2188 
z
M 1259 4147 
L 1259 2491 
L 2053 2491 
Q 2509 2491 2742 2702 
Q 2975 2913 2975 3322 
Q 2975 3731 2742 3939 
Q 2509 4147 2053 4147 
L 1259 4147 
z
" transform="scale(0.015625)"/>
     <path id="DejaVuSans-e9" d="M 3597 1894 
L 3597 1613 
L 953 1613 
Q 991 1019 1311 708 
Q 1631 397 2203 397 
Q 2534 397 2845 478 
Q 3156 559 3463 722 
L 3463 178 
Q 3153 47 2828 -22 
Q 2503 -91 2169 -91 
Q 1331 -91 842 396 
Q 353 884 353 1716 
Q 353 2575 817 3079 
Q 1281 3584 2069 3584 
Q 2775 3584 3186 3129 
Q 3597 2675 3597 1894 
z
M 3022 2063 
Q 3016 2534 2758 2815 
Q 2500 3097 2075 3097 
Q 1594 3097 1305 2825 
Q 1016 2553 972 2059 
L 3022 2063 
z
M 2469 5119 
L 3091 5119 
L 2072 3944 
L 1594 3944 
L 2469 5119 
z
" transform="scale(0.015625)"/>
     <path id="DejaVuSans-27" d="M 1147 4666 
L 1147 2931 
L 616 2931 
L 616 4666 
L 1147 4666 
z
" transform="scale(0.015625)"/>
     <path id="DejaVuSans-4c" d="M 628 4666 
L 1259 4666 
L 1259 531 
L 3531 531 
L 3531 0 
L 628 0 
L 628 4666 
z
" transform="scale(0.015625)"/>
     <path id="DejaVuSans-e0" d="M 2194 1759 
Q 1497 1759 1228 1600 
Q 959 1441 959 1056 
Q 959 750 1161 570 
Q 1363 391 1709 391 
Q 2188 391 2477 730 
Q 2766 1069 2766 1631 
L 2766 1759 
L 2194 1759 
z
M 3341 1997 
L 3341 0 
L 2766 0 
L 2766 531 
Q 2569 213 2275 61 
Q 1981 -91 1556 -91 
Q 1019 -91 701 211 
Q 384 513 384 1019 
Q 384 1609 779 1909 
Q 1175 2209 1959 2209 
L 2766 2209 
L 2766 2266 
Q 2766 2663 2505 2880 
Q 2244 3097 1772 3097 
Q 1472 3097 1187 3025 
Q 903 2953 641 2809 
L 641 3341 
Q 956 3463 1253 3523 
Q 1550 3584 1831 3584 
Q 2591 3584 2966 3190 
Q 3341 2797 3341 1997 
z
M 1403 5119 
L 2284 3950 
L 1806 3950 
L 788 5119 
L 1403 5119 
z
" transform="scale(0.015625)"/>
     <path id="DejaVuSans-68" d="M 3513 2113 
L 3513 0 
L 2938 0 
L 2938 2094 
Q 2938 2591 2744 2837 
Q 2550 3084 2163 3084 
Q 1697 3084 1428 2787 
Q 1159 2491 1159 1978 
L 1159 0 
L 581 0 
L 581 4863 
L 1159 4863 
L 1159 2956 
Q 1366 3272 1645 3428 
Q 1925 3584 2291 3584 
Q 2894 3584 3203 3211 
Q 3513 2838 3513 2113 
z
" transform="scale(0.015625)"/>
    </defs>
    <use xlink:href="#DejaVuSans-52"/>
    <use xlink:href="#DejaVuSans-e9" x="64.982422"/>
    <use xlink:href="#DejaVuSans-70" x="126.505859"/>
    <use xlink:href="#DejaVuSans-6f" x="189.982422"/>
    <use xlink:href="#DejaVuSans-6e" x="251.164062"/>
    <use xlink:href="#DejaVuSans-73" x="314.542969"/>
    <use xlink:href="#DejaVuSans-65" x="366.642578"/>
    <use xlink:href="#DejaVuSans-20" x="428.166016"/>
    <use xlink:href="#DejaVuSans-64" x="459.953125"/>
    <use xlink:href="#DejaVuSans-27" x="523.429688"/>
    <use xlink:href="#DejaVuSans-75" x="550.919922"/>
    <use xlink:href="#DejaVuSans-6e" x="614.298828"/>
    <use xlink:href="#DejaVuSans-20" x="677.677734"/>
    <use xlink:href="#DejaVuSans-52" x="709.464844"/>
    <use xlink:href="#DejaVuSans-4c" x="778.947266"/>
    <use xlink:href="#DejaVuSans-43" x="834.660156"/>
    <use xlink:href="#DejaVuSans-20" x="904.484375"/>
    <use xlink:href="#DejaVuSans-e0" x="936.271484"/>
    <use xlink:href="#DejaVuSans-20" x="997.550781"/>
    <use xlink:href="#DejaVuSans-75" x="1029.337891"/>
    <use xlink:href="#DejaVuSans-6e" x="1092.716797"/>
    <use xlink:href="#DejaVuSans-20" x="1156.095703"/>
    <use xlink:href="#DejaVuSans-e9" x="1187.882812"/>
    <use xlink:href="#DejaVuSans-63" x="1249.40625"/>
    <use xlink:href="#DejaVuSans-68" x="1304.386719"/>
    <use xlink:href="#DejaVuSans-65" x="1367.765625"/>
    <use xlink:href="#DejaVuSans-6c" x="1429.289062"/>
    <use xlink:href="#DejaVuSans-6f" x="1457.072266"/>
    <use xlink:href="#DejaVuSans-6e" x="1518.253906"/>
    <use xlink:href="#DejaVuSans-20" x="1581.632812"/>
    <use xlink:href="#DejaVuSans-64" x="1613.419922"/>
    <use xlink:href="#DejaVuSans-65" x="1676.896484"/>
    <use xlink:href="#DejaVuSans-20" x="1738.419922"/>
    <use xlink:href="#DejaVuSans-74" x="1770.207031"/>
    <use xlink:href="#DejaVuSans-65" x="1809.416016"/>
    <use xlink:href="#DejaVuSans-6e" x="1870.939453"/>
    <use xlink:href="#DejaVuSans-73" x="1934.318359"/>
    <use xlink:href="#DejaVuSans-69" x="1986.417969"/>
    <use xlink:href="#DejaVuSans-6f" x="2014.201172"/>
    <use xlink:href="#DejaVuSans-6e" x="2075.382812"/>
    <use xlink:href="#DejaVuSans-20" x="2138.761719"/>
    <use xlink:href="#DejaVuSans-64" x="2170.548828"/>
    <use xlink:href="#DejaVuSans-65" x="2234.025391"/>
    <use xlink:href="#DejaVuSans-20" x="2295.548828"/>
    <use xlink:href="#DejaVuSans-35" x="2327.335938"/>
    <use xlink:href="#DejaVuSans-56" x="2390.958984"/>
   </g>
  </g>
 </g>
 <defs>
  <clipPath id="pe8ef0455bd">
   <rect x="122.94" y="56.7648" width="762.228" height="364.2408"/>
  </clipPath>
 </defs>
</svg>
