<?xml version="1.0" encoding="utf-8" standalone="no"?>
<!DOCTYPE svg PUBLIC "-//W3C//DTD SVG 1.1//EN"
  "http://www.w3.org/Graphics/SVG/1.1/DTD/svg11.dtd">
<svg xmlns:xlink="http://www.w3.org/1999/xlink" width="983.52pt" height="473.04pt" viewBox="0 0 983.52 473.04" xmlns="http://www.w3.org/2000/svg" version="1.1">
 <metadata>
  <rdf:RDF xmlns:dc="http://purl.org/dc/elements/1.1/" xmlns:cc="http://creativecommons.org/ns#" xmlns:rdf="http://www.w3.org/1999/02/22-rdf-syntax-ns#">
   <cc:Work>
    <dc:type rdf:resource="http://purl.org/dc/dcmitype/StillImage"/>
    <dc:date>2022-12-27T18:09:00.855957</dc:date>
    <dc:format>image/svg+xml</dc:format>
    <dc:creator>
     <cc:Agent>
      <dc:title>Matplotlib v3.5.1, https://matplotlib.org/</dc:title>
     </cc:Agent>
    </dc:creator>
   </cc:Work>
  </rdf:RDF>
 </metadata>
 <defs>
  <style type="text/css">*{stroke-linejoin: round; stroke-linecap: butt}</style>
 </defs>
 <g id="figure_1">
  <g id="patch_1">
   <path d="M 0 473.04 
L 983.52 473.04 
L 983.52 0 
L 0 0 
z
" style="fill: #ffffff"/>
  </g>
  <g id="axes_1">
   <g id="patch_2">
    <path d="M 122.94 163.894447 
L 885.168 163.894447 
L 885.168 56.7648 
L 122.94 56.7648 
z
" style="fill: #ffffff"/>
   </g>
   <g id="matplotlib.axis_1">
    <g id="xtick_1">
     <g id="line2d_1">
      <path d="M 157.586727 163.894447 
L 157.586727 56.7648 
" clip-path="url(#p6357d50937)" style="fill: none; stroke: #b0b0b0; stroke-width: 0.8; stroke-linecap: square"/>
     </g>
     <g id="line2d_2">
      <defs>
       <path id="m8f24b7d815" d="M 0 0 
L 0 3.5 
" style="stroke: #000000; stroke-width: 0.8"/>
      </defs>
      <g>
       <use xlink:href="#m8f24b7d815" x="157.586727" y="163.894447" style="stroke: #000000; stroke-width: 0.8"/>
      </g>
     </g>
     <g id="text_1">
      <!-- 0.0000 -->
      <g transform="translate(140.091415 178.492885)scale(0.1 -0.1)">
       <defs>
        <path id="DejaVuSans-30" d="M 2034 4250 
Q 1547 4250 1301 3770 
Q 1056 3291 1056 2328 
Q 1056 1369 1301 889 
Q 1547 409 2034 409 
Q 2525 409 2770 889 
Q 3016 1369 3016 2328 
Q 3016 3291 2770 3770 
Q 2525 4250 2034 4250 
z
M 2034 4750 
Q 2819 4750 3233 4129 
Q 3647 3509 3647 2328 
Q 3647 1150 3233 529 
Q 2819 -91 2034 -91 
Q 1250 -91 836 529 
Q 422 1150 422 2328 
Q 422 3509 836 4129 
Q 1250 4750 2034 4750 
z
" transform="scale(0.015625)"/>
        <path id="DejaVuSans-2e" d="M 684 794 
L 1344 794 
L 1344 0 
L 684 0 
L 684 794 
z
" transform="scale(0.015625)"/>
       </defs>
       <use xlink:href="#DejaVuSans-30"/>
       <use xlink:href="#DejaVuSans-2e" x="63.623047"/>
       <use xlink:href="#DejaVuSans-30" x="95.410156"/>
       <use xlink:href="#DejaVuSans-30" x="159.033203"/>
       <use xlink:href="#DejaVuSans-30" x="222.65625"/>
       <use xlink:href="#DejaVuSans-30" x="286.279297"/>
      </g>
     </g>
    </g>
    <g id="xtick_2">
     <g id="line2d_3">
      <path d="M 273.075818 163.894447 
L 273.075818 56.7648 
" clip-path="url(#p6357d50937)" style="fill: none; stroke: #b0b0b0; stroke-width: 0.8; stroke-linecap: square"/>
     </g>
     <g id="line2d_4">
      <g>
       <use xlink:href="#m8f24b7d815" x="273.075818" y="163.894447" style="stroke: #000000; stroke-width: 0.8"/>
      </g>
     </g>
     <g id="text_2">
      <!-- 0.0001 -->
      <g transform="translate(255.580506 178.492885)scale(0.1 -0.1)">
       <defs>
        <path id="DejaVuSans-31" d="M 794 531 
L 1825 531 
L 1825 4091 
L 703 3866 
L 703 4441 
L 1819 4666 
L 2450 4666 
L 2450 531 
L 3481 531 
L 3481 0 
L 794 0 
L 794 531 
z
" transform="scale(0.015625)"/>
       </defs>
       <use xlink:href="#DejaVuSans-30"/>
       <use xlink:href="#DejaVuSans-2e" x="63.623047"/>
       <use xlink:href="#DejaVuSans-30" x="95.410156"/>
       <use xlink:href="#DejaVuSans-30" x="159.033203"/>
       <use xlink:href="#DejaVuSans-30" x="222.65625"/>
       <use xlink:href="#DejaVuSans-31" x="286.279297"/>
      </g>
     </g>
    </g>
    <g id="xtick_3">
     <g id="line2d_5">
      <path d="M 388.564909 163.894447 
L 388.564909 56.7648 
" clip-path="url(#p6357d50937)" style="fill: none; stroke: #b0b0b0; stroke-width: 0.8; stroke-linecap: square"/>
     </g>
     <g id="line2d_6">
      <g>
       <use xlink:href="#m8f24b7d815" x="388.564909" y="163.894447" style="stroke: #000000; stroke-width: 0.8"/>
      </g>
     </g>
     <g id="text_3">
      <!-- 0.0002 -->
      <g transform="translate(371.069597 178.492885)scale(0.1 -0.1)">
       <defs>
        <path id="DejaVuSans-32" d="M 1228 531 
L 3431 531 
L 3431 0 
L 469 0 
L 469 531 
Q 828 903 1448 1529 
Q 2069 2156 2228 2338 
Q 2531 2678 2651 2914 
Q 2772 3150 2772 3378 
Q 2772 3750 2511 3984 
Q 2250 4219 1831 4219 
Q 1534 4219 1204 4116 
Q 875 4013 500 3803 
L 500 4441 
Q 881 4594 1212 4672 
Q 1544 4750 1819 4750 
Q 2544 4750 2975 4387 
Q 3406 4025 3406 3419 
Q 3406 3131 3298 2873 
Q 3191 2616 2906 2266 
Q 2828 2175 2409 1742 
Q 1991 1309 1228 531 
z
" transform="scale(0.015625)"/>
       </defs>
       <use xlink:href="#DejaVuSans-30"/>
       <use xlink:href="#DejaVuSans-2e" x="63.623047"/>
       <use xlink:href="#DejaVuSans-30" x="95.410156"/>
       <use xlink:href="#DejaVuSans-30" x="159.033203"/>
       <use xlink:href="#DejaVuSans-30" x="222.65625"/>
       <use xlink:href="#DejaVuSans-32" x="286.279297"/>
      </g>
     </g>
    </g>
    <g id="xtick_4">
     <g id="line2d_7">
      <path d="M 504.054 163.894447 
L 504.054 56.7648 
" clip-path="url(#p6357d50937)" style="fill: none; stroke: #b0b0b0; stroke-width: 0.8; stroke-linecap: square"/>
     </g>
     <g id="line2d_8">
      <g>
       <use xlink:href="#m8f24b7d815" x="504.054" y="163.894447" style="stroke: #000000; stroke-width: 0.8"/>
      </g>
     </g>
     <g id="text_4">
      <!-- 0.0003 -->
      <g transform="translate(486.558688 178.492885)scale(0.1 -0.1)">
       <defs>
        <path id="DejaVuSans-33" d="M 2597 2516 
Q 3050 2419 3304 2112 
Q 3559 1806 3559 1356 
Q 3559 666 3084 287 
Q 2609 -91 1734 -91 
Q 1441 -91 1130 -33 
Q 819 25 488 141 
L 488 750 
Q 750 597 1062 519 
Q 1375 441 1716 441 
Q 2309 441 2620 675 
Q 2931 909 2931 1356 
Q 2931 1769 2642 2001 
Q 2353 2234 1838 2234 
L 1294 2234 
L 1294 2753 
L 1863 2753 
Q 2328 2753 2575 2939 
Q 2822 3125 2822 3475 
Q 2822 3834 2567 4026 
Q 2313 4219 1838 4219 
Q 1578 4219 1281 4162 
Q 984 4106 628 3988 
L 628 4550 
Q 988 4650 1302 4700 
Q 1616 4750 1894 4750 
Q 2613 4750 3031 4423 
Q 3450 4097 3450 3541 
Q 3450 3153 3228 2886 
Q 3006 2619 2597 2516 
z
" transform="scale(0.015625)"/>
       </defs>
       <use xlink:href="#DejaVuSans-30"/>
       <use xlink:href="#DejaVuSans-2e" x="63.623047"/>
       <use xlink:href="#DejaVuSans-30" x="95.410156"/>
       <use xlink:href="#DejaVuSans-30" x="159.033203"/>
       <use xlink:href="#DejaVuSans-30" x="222.65625"/>
       <use xlink:href="#DejaVuSans-33" x="286.279297"/>
      </g>
     </g>
    </g>
    <g id="xtick_5">
     <g id="line2d_9">
      <path d="M 619.543091 163.894447 
L 619.543091 56.7648 
" clip-path="url(#p6357d50937)" style="fill: none; stroke: #b0b0b0; stroke-width: 0.8; stroke-linecap: square"/>
     </g>
     <g id="line2d_10">
      <g>
       <use xlink:href="#m8f24b7d815" x="619.543091" y="163.894447" style="stroke: #000000; stroke-width: 0.8"/>
      </g>
     </g>
     <g id="text_5">
      <!-- 0.0004 -->
      <g transform="translate(602.047778 178.492885)scale(0.1 -0.1)">
       <defs>
        <path id="DejaVuSans-34" d="M 2419 4116 
L 825 1625 
L 2419 1625 
L 2419 4116 
z
M 2253 4666 
L 3047 4666 
L 3047 1625 
L 3713 1625 
L 3713 1100 
L 3047 1100 
L 3047 0 
L 2419 0 
L 2419 1100 
L 313 1100 
L 313 1709 
L 2253 4666 
z
" transform="scale(0.015625)"/>
       </defs>
       <use xlink:href="#DejaVuSans-30"/>
       <use xlink:href="#DejaVuSans-2e" x="63.623047"/>
       <use xlink:href="#DejaVuSans-30" x="95.410156"/>
       <use xlink:href="#DejaVuSans-30" x="159.033203"/>
       <use xlink:href="#DejaVuSans-30" x="222.65625"/>
       <use xlink:href="#DejaVuSans-34" x="286.279297"/>
      </g>
     </g>
    </g>
    <g id="xtick_6">
     <g id="line2d_11">
      <path d="M 735.032182 163.894447 
L 735.032182 56.7648 
" clip-path="url(#p6357d50937)" style="fill: none; stroke: #b0b0b0; stroke-width: 0.8; stroke-linecap: square"/>
     </g>
     <g id="line2d_12">
      <g>
       <use xlink:href="#m8f24b7d815" x="735.032182" y="163.894447" style="stroke: #000000; stroke-width: 0.8"/>
      </g>
     </g>
     <g id="text_6">
      <!-- 0.0005 -->
      <g transform="translate(717.536869 178.492885)scale(0.1 -0.1)">
       <defs>
        <path id="DejaVuSans-35" d="M 691 4666 
L 3169 4666 
L 3169 4134 
L 1269 4134 
L 1269 2991 
Q 1406 3038 1543 3061 
Q 1681 3084 1819 3084 
Q 2600 3084 3056 2656 
Q 3513 2228 3513 1497 
Q 3513 744 3044 326 
Q 2575 -91 1722 -91 
Q 1428 -91 1123 -41 
Q 819 9 494 109 
L 494 744 
Q 775 591 1075 516 
Q 1375 441 1709 441 
Q 2250 441 2565 725 
Q 2881 1009 2881 1497 
Q 2881 1984 2565 2268 
Q 2250 2553 1709 2553 
Q 1456 2553 1204 2497 
Q 953 2441 691 2322 
L 691 4666 
z
" transform="scale(0.015625)"/>
       </defs>
       <use xlink:href="#DejaVuSans-30"/>
       <use xlink:href="#DejaVuSans-2e" x="63.623047"/>
       <use xlink:href="#DejaVuSans-30" x="95.410156"/>
       <use xlink:href="#DejaVuSans-30" x="159.033203"/>
       <use xlink:href="#DejaVuSans-30" x="222.65625"/>
       <use xlink:href="#DejaVuSans-35" x="286.279297"/>
      </g>
     </g>
    </g>
    <g id="xtick_7">
     <g id="line2d_13">
      <path d="M 850.521273 163.894447 
L 850.521273 56.7648 
" clip-path="url(#p6357d50937)" style="fill: none; stroke: #b0b0b0; stroke-width: 0.8; stroke-linecap: square"/>
     </g>
     <g id="line2d_14">
      <g>
       <use xlink:href="#m8f24b7d815" x="850.521273" y="163.894447" style="stroke: #000000; stroke-width: 0.8"/>
      </g>
     </g>
     <g id="text_7">
      <!-- 0.0006 -->
      <g transform="translate(833.02596 178.492885)scale(0.1 -0.1)">
       <defs>
        <path id="DejaVuSans-36" d="M 2113 2584 
Q 1688 2584 1439 2293 
Q 1191 2003 1191 1497 
Q 1191 994 1439 701 
Q 1688 409 2113 409 
Q 2538 409 2786 701 
Q 3034 994 3034 1497 
Q 3034 2003 2786 2293 
Q 2538 2584 2113 2584 
z
M 3366 4563 
L 3366 3988 
Q 3128 4100 2886 4159 
Q 2644 4219 2406 4219 
Q 1781 4219 1451 3797 
Q 1122 3375 1075 2522 
Q 1259 2794 1537 2939 
Q 1816 3084 2150 3084 
Q 2853 3084 3261 2657 
Q 3669 2231 3669 1497 
Q 3669 778 3244 343 
Q 2819 -91 2113 -91 
Q 1303 -91 875 529 
Q 447 1150 447 2328 
Q 447 3434 972 4092 
Q 1497 4750 2381 4750 
Q 2619 4750 2861 4703 
Q 3103 4656 3366 4563 
z
" transform="scale(0.015625)"/>
       </defs>
       <use xlink:href="#DejaVuSans-30"/>
       <use xlink:href="#DejaVuSans-2e" x="63.623047"/>
       <use xlink:href="#DejaVuSans-30" x="95.410156"/>
       <use xlink:href="#DejaVuSans-30" x="159.033203"/>
       <use xlink:href="#DejaVuSans-30" x="222.65625"/>
       <use xlink:href="#DejaVuSans-36" x="286.279297"/>
      </g>
     </g>
    </g>
    <g id="text_8">
     <!-- temps en s -->
     <g transform="translate(476.339938 192.17101)scale(0.1 -0.1)">
      <defs>
       <path id="DejaVuSans-74" d="M 1172 4494 
L 1172 3500 
L 2356 3500 
L 2356 3053 
L 1172 3053 
L 1172 1153 
Q 1172 725 1289 603 
Q 1406 481 1766 481 
L 2356 481 
L 2356 0 
L 1766 0 
Q 1100 0 847 248 
Q 594 497 594 1153 
L 594 3053 
L 172 3053 
L 172 3500 
L 594 3500 
L 594 4494 
L 1172 4494 
z
" transform="scale(0.015625)"/>
       <path id="DejaVuSans-65" d="M 3597 1894 
L 3597 1613 
L 953 1613 
Q 991 1019 1311 708 
Q 1631 397 2203 397 
Q 2534 397 2845 478 
Q 3156 559 3463 722 
L 3463 178 
Q 3153 47 2828 -22 
Q 2503 -91 2169 -91 
Q 1331 -91 842 396 
Q 353 884 353 1716 
Q 353 2575 817 3079 
Q 1281 3584 2069 3584 
Q 2775 3584 3186 3129 
Q 3597 2675 3597 1894 
z
M 3022 2063 
Q 3016 2534 2758 2815 
Q 2500 3097 2075 3097 
Q 1594 3097 1305 2825 
Q 1016 2553 972 2059 
L 3022 2063 
z
" transform="scale(0.015625)"/>
       <path id="DejaVuSans-6d" d="M 3328 2828 
Q 3544 3216 3844 3400 
Q 4144 3584 4550 3584 
Q 5097 3584 5394 3201 
Q 5691 2819 5691 2113 
L 5691 0 
L 5113 0 
L 5113 2094 
Q 5113 2597 4934 2840 
Q 4756 3084 4391 3084 
Q 3944 3084 3684 2787 
Q 3425 2491 3425 1978 
L 3425 0 
L 2847 0 
L 2847 2094 
Q 2847 2600 2669 2842 
Q 2491 3084 2119 3084 
Q 1678 3084 1418 2786 
Q 1159 2488 1159 1978 
L 1159 0 
L 581 0 
L 581 3500 
L 1159 3500 
L 1159 2956 
Q 1356 3278 1631 3431 
Q 1906 3584 2284 3584 
Q 2666 3584 2933 3390 
Q 3200 3197 3328 2828 
z
" transform="scale(0.015625)"/>
       <path id="DejaVuSans-70" d="M 1159 525 
L 1159 -1331 
L 581 -1331 
L 581 3500 
L 1159 3500 
L 1159 2969 
Q 1341 3281 1617 3432 
Q 1894 3584 2278 3584 
Q 2916 3584 3314 3078 
Q 3713 2572 3713 1747 
Q 3713 922 3314 415 
Q 2916 -91 2278 -91 
Q 1894 -91 1617 61 
Q 1341 213 1159 525 
z
M 3116 1747 
Q 3116 2381 2855 2742 
Q 2594 3103 2138 3103 
Q 1681 3103 1420 2742 
Q 1159 2381 1159 1747 
Q 1159 1113 1420 752 
Q 1681 391 2138 391 
Q 2594 391 2855 752 
Q 3116 1113 3116 1747 
z
" transform="scale(0.015625)"/>
       <path id="DejaVuSans-73" d="M 2834 3397 
L 2834 2853 
Q 2591 2978 2328 3040 
Q 2066 3103 1784 3103 
Q 1356 3103 1142 2972 
Q 928 2841 928 2578 
Q 928 2378 1081 2264 
Q 1234 2150 1697 2047 
L 1894 2003 
Q 2506 1872 2764 1633 
Q 3022 1394 3022 966 
Q 3022 478 2636 193 
Q 2250 -91 1575 -91 
Q 1294 -91 989 -36 
Q 684 19 347 128 
L 347 722 
Q 666 556 975 473 
Q 1284 391 1588 391 
Q 1994 391 2212 530 
Q 2431 669 2431 922 
Q 2431 1156 2273 1281 
Q 2116 1406 1581 1522 
L 1381 1569 
Q 847 1681 609 1914 
Q 372 2147 372 2553 
Q 372 3047 722 3315 
Q 1072 3584 1716 3584 
Q 2034 3584 2315 3537 
Q 2597 3491 2834 3397 
z
" transform="scale(0.015625)"/>
       <path id="DejaVuSans-20" transform="scale(0.015625)"/>
       <path id="DejaVuSans-6e" d="M 3513 2113 
L 3513 0 
L 2938 0 
L 2938 2094 
Q 2938 2591 2744 2837 
Q 2550 3084 2163 3084 
Q 1697 3084 1428 2787 
Q 1159 2491 1159 1978 
L 1159 0 
L 581 0 
L 581 3500 
L 1159 3500 
L 1159 2956 
Q 1366 3272 1645 3428 
Q 1925 3584 2291 3584 
Q 2894 3584 3203 3211 
Q 3513 2838 3513 2113 
z
" transform="scale(0.015625)"/>
      </defs>
      <use xlink:href="#DejaVuSans-74"/>
      <use xlink:href="#DejaVuSans-65" x="39.208984"/>
      <use xlink:href="#DejaVuSans-6d" x="100.732422"/>
      <use xlink:href="#DejaVuSans-70" x="198.144531"/>
      <use xlink:href="#DejaVuSans-73" x="261.621094"/>
      <use xlink:href="#DejaVuSans-20" x="313.720703"/>
      <use xlink:href="#DejaVuSans-65" x="345.507812"/>
      <use xlink:href="#DejaVuSans-6e" x="407.03125"/>
      <use xlink:href="#DejaVuSans-20" x="470.410156"/>
      <use xlink:href="#DejaVuSans-73" x="502.197266"/>
     </g>
    </g>
   </g>
   <g id="matplotlib.axis_2">
    <g id="ytick_1">
     <g id="line2d_15">
      <path d="M 122.94 159.245914 
L 885.168 159.245914 
" clip-path="url(#p6357d50937)" style="fill: none; stroke: #b0b0b0; stroke-width: 0.8; stroke-linecap: square"/>
     </g>
     <g id="line2d_16">
      <defs>
       <path id="mf53cf17fbe" d="M 0 0 
L -3.5 0 
" style="stroke: #000000; stroke-width: 0.8"/>
      </defs>
      <g>
       <use xlink:href="#mf53cf17fbe" x="122.94" y="159.245914" style="stroke: #000000; stroke-width: 0.8"/>
      </g>
     </g>
     <g id="text_9">
      <!-- −10 -->
      <g transform="translate(94.835313 163.045133)scale(0.1 -0.1)">
       <defs>
        <path id="DejaVuSans-2212" d="M 678 2272 
L 4684 2272 
L 4684 1741 
L 678 1741 
L 678 2272 
z
" transform="scale(0.015625)"/>
       </defs>
       <use xlink:href="#DejaVuSans-2212"/>
       <use xlink:href="#DejaVuSans-31" x="83.789062"/>
       <use xlink:href="#DejaVuSans-30" x="147.412109"/>
      </g>
     </g>
    </g>
    <g id="ytick_2">
     <g id="line2d_17">
      <path d="M 122.94 134.843018 
L 885.168 134.843018 
" clip-path="url(#p6357d50937)" style="fill: none; stroke: #b0b0b0; stroke-width: 0.8; stroke-linecap: square"/>
     </g>
     <g id="line2d_18">
      <g>
       <use xlink:href="#mf53cf17fbe" x="122.94" y="134.843018" style="stroke: #000000; stroke-width: 0.8"/>
      </g>
     </g>
     <g id="text_10">
      <!-- −5 -->
      <g transform="translate(101.197812 138.642237)scale(0.1 -0.1)">
       <use xlink:href="#DejaVuSans-2212"/>
       <use xlink:href="#DejaVuSans-35" x="83.789062"/>
      </g>
     </g>
    </g>
    <g id="ytick_3">
     <g id="line2d_19">
      <path d="M 122.94 110.440122 
L 885.168 110.440122 
" clip-path="url(#p6357d50937)" style="fill: none; stroke: #b0b0b0; stroke-width: 0.8; stroke-linecap: square"/>
     </g>
     <g id="line2d_20">
      <g>
       <use xlink:href="#mf53cf17fbe" x="122.94" y="110.440122" style="stroke: #000000; stroke-width: 0.8"/>
      </g>
     </g>
     <g id="text_11">
      <!-- 0 -->
      <g transform="translate(109.5775 114.23934)scale(0.1 -0.1)">
       <use xlink:href="#DejaVuSans-30"/>
      </g>
     </g>
    </g>
    <g id="ytick_4">
     <g id="line2d_21">
      <path d="M 122.94 86.037226 
L 885.168 86.037226 
" clip-path="url(#p6357d50937)" style="fill: none; stroke: #b0b0b0; stroke-width: 0.8; stroke-linecap: square"/>
     </g>
     <g id="line2d_22">
      <g>
       <use xlink:href="#mf53cf17fbe" x="122.94" y="86.037226" style="stroke: #000000; stroke-width: 0.8"/>
      </g>
     </g>
     <g id="text_12">
      <!-- 5 -->
      <g transform="translate(109.5775 89.836444)scale(0.1 -0.1)">
       <use xlink:href="#DejaVuSans-35"/>
      </g>
     </g>
    </g>
    <g id="ytick_5">
     <g id="line2d_23">
      <path d="M 122.94 61.634329 
L 885.168 61.634329 
" clip-path="url(#p6357d50937)" style="fill: none; stroke: #b0b0b0; stroke-width: 0.8; stroke-linecap: square"/>
     </g>
     <g id="line2d_24">
      <g>
       <use xlink:href="#mf53cf17fbe" x="122.94" y="61.634329" style="stroke: #000000; stroke-width: 0.8"/>
      </g>
     </g>
     <g id="text_13">
      <!-- 10 -->
      <g transform="translate(103.215 65.433548)scale(0.1 -0.1)">
       <use xlink:href="#DejaVuSans-31"/>
       <use xlink:href="#DejaVuSans-30" x="63.623047"/>
      </g>
     </g>
    </g>
    <g id="text_14">
     <!-- e(t) en V -->
     <g transform="translate(88.755625 132.111655)rotate(-90)scale(0.1 -0.1)">
      <defs>
       <path id="DejaVuSans-28" d="M 1984 4856 
Q 1566 4138 1362 3434 
Q 1159 2731 1159 2009 
Q 1159 1288 1364 580 
Q 1569 -128 1984 -844 
L 1484 -844 
Q 1016 -109 783 600 
Q 550 1309 550 2009 
Q 550 2706 781 3412 
Q 1013 4119 1484 4856 
L 1984 4856 
z
" transform="scale(0.015625)"/>
       <path id="DejaVuSans-29" d="M 513 4856 
L 1013 4856 
Q 1481 4119 1714 3412 
Q 1947 2706 1947 2009 
Q 1947 1309 1714 600 
Q 1481 -109 1013 -844 
L 513 -844 
Q 928 -128 1133 580 
Q 1338 1288 1338 2009 
Q 1338 2731 1133 3434 
Q 928 4138 513 4856 
z
" transform="scale(0.015625)"/>
       <path id="DejaVuSans-56" d="M 1831 0 
L 50 4666 
L 709 4666 
L 2188 738 
L 3669 4666 
L 4325 4666 
L 2547 0 
L 1831 0 
z
" transform="scale(0.015625)"/>
      </defs>
      <use xlink:href="#DejaVuSans-65"/>
      <use xlink:href="#DejaVuSans-28" x="61.523438"/>
      <use xlink:href="#DejaVuSans-74" x="100.537109"/>
      <use xlink:href="#DejaVuSans-29" x="139.746094"/>
      <use xlink:href="#DejaVuSans-20" x="178.759766"/>
      <use xlink:href="#DejaVuSans-65" x="210.546875"/>
      <use xlink:href="#DejaVuSans-6e" x="272.070312"/>
      <use xlink:href="#DejaVuSans-20" x="335.449219"/>
      <use xlink:href="#DejaVuSans-56" x="367.236328"/>
     </g>
    </g>
   </g>
   <g id="line2d_25">
    <path d="M 157.586727 86.037226 
L 164.586066 81.859939 
L 171.585405 78.715615 
L 178.584744 76.717897 
L 185.584083 75.938989 
L 192.583421 76.407041 
L 199.58276 78.105137 
L 206.582099 80.971904 
L 213.581438 84.903729 
L 220.580777 89.758506 
L 227.580116 95.36077 
L 234.579455 101.508042 
L 241.578793 107.978142 
L 248.578132 114.537224 
L 255.577471 120.948227 
L 262.57681 126.979439 
L 269.576149 132.412877 
L 276.575488 137.052162 
L 283.574826 140.729619 
L 290.574165 143.312335 
L 297.573504 144.706963 
L 304.572843 144.863099 
L 311.572182 143.775098 
L 318.571521 141.482284 
L 325.57086 138.067526 
L 332.570198 133.654241 
L 339.569537 128.401938 
L 346.568876 122.500447 
L 353.568215 116.163066 
L 360.567554 109.618842 
L 367.566893 103.104301 
L 374.566231 96.854896 
L 381.56557 91.096496 
L 388.564909 86.037226 
L 395.564248 81.859939 
L 402.563587 78.715615 
L 409.562926 76.717897 
L 416.562264 75.938989 
L 423.561603 76.407041 
L 430.560942 78.105137 
L 437.560281 80.971904 
L 444.55962 84.903729 
L 451.558959 89.758506 
L 458.558298 95.36077 
L 465.557636 101.508042 
L 472.556975 107.978142 
L 479.556314 114.537224 
L 486.555653 120.948227 
L 493.554992 126.979439 
L 500.554331 132.412877 
L 507.553669 137.052162 
L 514.553008 140.729619 
L 521.552347 143.312335 
L 528.551686 144.706963 
L 535.551025 144.863099 
L 542.550364 143.775098 
L 549.549702 141.482284 
L 556.549041 138.067526 
L 563.54838 133.654241 
L 570.547719 128.401938 
L 577.547058 122.500447 
L 584.546397 116.163066 
L 591.545736 109.618842 
L 598.545074 103.104301 
L 605.544413 96.854896 
L 612.543752 91.096496 
L 619.543091 86.037226 
L 626.54243 81.859939 
L 633.541769 78.715615 
L 640.541107 76.717897 
L 647.540446 75.938989 
L 654.539785 76.407041 
L 661.539124 78.105137 
L 668.538463 80.971904 
L 675.537802 84.903729 
L 682.53714 89.758506 
L 689.536479 95.36077 
L 696.535818 101.508042 
L 703.535157 107.978142 
L 710.534496 114.537224 
L 717.533835 120.948227 
L 724.533174 126.979439 
L 731.532512 132.412877 
L 738.531851 137.052162 
L 745.53119 140.729619 
L 752.530529 143.312335 
L 759.529868 144.706963 
L 766.529207 144.863099 
L 773.528545 143.775098 
L 780.527884 141.482284 
L 787.527223 138.067526 
L 794.526562 133.654241 
L 801.525901 128.401938 
L 808.52524 122.500447 
L 815.524579 116.163066 
L 822.523917 109.618842 
L 829.523256 103.104301 
L 836.522595 96.854896 
L 843.521934 91.096496 
L 850.521273 86.037226 
" clip-path="url(#p6357d50937)" style="fill: none; stroke: #0000ff; stroke-width: 1.5; stroke-linecap: square"/>
   </g>
   <g id="line2d_26">
    <path d="M 157.586727 61.634329 
L 164.586066 62.516314 
L 171.585405 65.130389 
L 178.584744 69.382077 
L 185.584083 75.117709 
L 192.583421 82.129985 
L 199.58276 90.165463 
L 206.582099 98.93372 
L 213.581438 108.117849 
L 220.580777 117.38591 
L 227.580116 126.402933 
L 234.579455 134.843018 
L 241.578793 142.401119 
L 248.578132 148.804066 
L 255.577471 153.82044 
L 262.57681 157.268937 
L 269.576149 159.024918 
L 276.575488 159.024918 
L 283.574826 157.268937 
L 290.574165 153.82044 
L 297.573504 148.804066 
L 304.572843 142.401119 
L 311.572182 134.843018 
L 318.571521 126.402933 
L 325.57086 117.38591 
L 332.570198 108.117849 
L 339.569537 98.93372 
L 346.568876 90.165463 
L 353.568215 82.129985 
L 360.567554 75.117709 
L 367.566893 69.382077 
L 374.566231 65.130389 
L 381.56557 62.516314 
L 388.564909 61.634329 
L 395.564248 62.516314 
L 402.563587 65.130389 
L 409.562926 69.382077 
L 416.562264 75.117709 
L 423.561603 82.129985 
L 430.560942 90.165463 
L 437.560281 98.93372 
L 444.55962 108.117849 
L 451.558959 117.38591 
L 458.558298 126.402933 
L 465.557636 134.843018 
L 472.556975 142.401119 
L 479.556314 148.804066 
L 486.555653 153.82044 
L 493.554992 157.268937 
L 500.554331 159.024918 
L 507.553669 159.024918 
L 514.553008 157.268937 
L 521.552347 153.82044 
L 528.551686 148.804066 
L 535.551025 142.401119 
L 542.550364 134.843018 
L 549.549702 126.402933 
L 556.549041 117.38591 
L 563.54838 108.117849 
L 570.547719 98.93372 
L 577.547058 90.165463 
L 584.546397 82.129985 
L 591.545736 75.117709 
L 598.545074 69.382077 
L 605.544413 65.130389 
L 612.543752 62.516314 
L 619.543091 61.634329 
L 626.54243 62.516314 
L 633.541769 65.130389 
L 640.541107 69.382077 
L 647.540446 75.117709 
L 654.539785 82.129985 
L 661.539124 90.165463 
L 668.538463 98.93372 
L 675.537802 108.117849 
L 682.53714 117.38591 
L 689.536479 126.402933 
L 696.535818 134.843018 
L 703.535157 142.401119 
L 710.534496 148.804066 
L 717.533835 153.82044 
L 724.533174 157.268937 
L 731.532512 159.024918 
L 738.531851 159.024918 
L 745.53119 157.268937 
L 752.530529 153.82044 
L 759.529868 148.804066 
L 766.529207 142.401119 
L 773.528545 134.843018 
L 780.527884 126.402933 
L 787.527223 117.38591 
L 794.526562 108.117849 
L 801.525901 98.93372 
L 808.52524 90.165463 
L 815.524579 82.129985 
L 822.523917 75.117709 
L 829.523256 69.382077 
L 836.522595 65.130389 
L 843.521934 62.516314 
L 850.521273 61.634329 
" clip-path="url(#p6357d50937)" style="fill: none; stroke: #ff0000; stroke-width: 1.5; stroke-linecap: square"/>
   </g>
   <g id="patch_3">
    <path d="M 122.94 163.894447 
L 122.94 56.7648 
" style="fill: none; stroke: #000000; stroke-width: 0.8; stroke-linejoin: miter; stroke-linecap: square"/>
   </g>
   <g id="patch_4">
    <path d="M 885.168 163.894447 
L 885.168 56.7648 
" style="fill: none; stroke: #000000; stroke-width: 0.8; stroke-linejoin: miter; stroke-linecap: square"/>
   </g>
   <g id="patch_5">
    <path d="M 122.94 163.894447 
L 885.168 163.894447 
" style="fill: none; stroke: #000000; stroke-width: 0.8; stroke-linejoin: miter; stroke-linecap: square"/>
   </g>
   <g id="patch_6">
    <path d="M 122.94 56.7648 
L 885.168 56.7648 
" style="fill: none; stroke: #000000; stroke-width: 0.8; stroke-linejoin: miter; stroke-linecap: square"/>
   </g>
   <g id="text_15">
    <!-- Effet d'un filtre passe bas du 1er ordre -->
    <g transform="translate(388.268063 50.7648)scale(0.12 -0.12)">
     <defs>
      <path id="DejaVuSans-45" d="M 628 4666 
L 3578 4666 
L 3578 4134 
L 1259 4134 
L 1259 2753 
L 3481 2753 
L 3481 2222 
L 1259 2222 
L 1259 531 
L 3634 531 
L 3634 0 
L 628 0 
L 628 4666 
z
" transform="scale(0.015625)"/>
      <path id="DejaVuSans-66" d="M 2375 4863 
L 2375 4384 
L 1825 4384 
Q 1516 4384 1395 4259 
Q 1275 4134 1275 3809 
L 1275 3500 
L 2222 3500 
L 2222 3053 
L 1275 3053 
L 1275 0 
L 697 0 
L 697 3053 
L 147 3053 
L 147 3500 
L 697 3500 
L 697 3744 
Q 697 4328 969 4595 
Q 1241 4863 1831 4863 
L 2375 4863 
z
" transform="scale(0.015625)"/>
      <path id="DejaVuSans-64" d="M 2906 2969 
L 2906 4863 
L 3481 4863 
L 3481 0 
L 2906 0 
L 2906 525 
Q 2725 213 2448 61 
Q 2172 -91 1784 -91 
Q 1150 -91 751 415 
Q 353 922 353 1747 
Q 353 2572 751 3078 
Q 1150 3584 1784 3584 
Q 2172 3584 2448 3432 
Q 2725 3281 2906 2969 
z
M 947 1747 
Q 947 1113 1208 752 
Q 1469 391 1925 391 
Q 2381 391 2643 752 
Q 2906 1113 2906 1747 
Q 2906 2381 2643 2742 
Q 2381 3103 1925 3103 
Q 1469 3103 1208 2742 
Q 947 2381 947 1747 
z
" transform="scale(0.015625)"/>
      <path id="DejaVuSans-27" d="M 1147 4666 
L 1147 2931 
L 616 2931 
L 616 4666 
L 1147 4666 
z
" transform="scale(0.015625)"/>
      <path id="DejaVuSans-75" d="M 544 1381 
L 544 3500 
L 1119 3500 
L 1119 1403 
Q 1119 906 1312 657 
Q 1506 409 1894 409 
Q 2359 409 2629 706 
Q 2900 1003 2900 1516 
L 2900 3500 
L 3475 3500 
L 3475 0 
L 2900 0 
L 2900 538 
Q 2691 219 2414 64 
Q 2138 -91 1772 -91 
Q 1169 -91 856 284 
Q 544 659 544 1381 
z
M 1991 3584 
L 1991 3584 
z
" transform="scale(0.015625)"/>
      <path id="DejaVuSans-69" d="M 603 3500 
L 1178 3500 
L 1178 0 
L 603 0 
L 603 3500 
z
M 603 4863 
L 1178 4863 
L 1178 4134 
L 603 4134 
L 603 4863 
z
" transform="scale(0.015625)"/>
      <path id="DejaVuSans-6c" d="M 603 4863 
L 1178 4863 
L 1178 0 
L 603 0 
L 603 4863 
z
" transform="scale(0.015625)"/>
      <path id="DejaVuSans-72" d="M 2631 2963 
Q 2534 3019 2420 3045 
Q 2306 3072 2169 3072 
Q 1681 3072 1420 2755 
Q 1159 2438 1159 1844 
L 1159 0 
L 581 0 
L 581 3500 
L 1159 3500 
L 1159 2956 
Q 1341 3275 1631 3429 
Q 1922 3584 2338 3584 
Q 2397 3584 2469 3576 
Q 2541 3569 2628 3553 
L 2631 2963 
z
" transform="scale(0.015625)"/>
      <path id="DejaVuSans-61" d="M 2194 1759 
Q 1497 1759 1228 1600 
Q 959 1441 959 1056 
Q 959 750 1161 570 
Q 1363 391 1709 391 
Q 2188 391 2477 730 
Q 2766 1069 2766 1631 
L 2766 1759 
L 2194 1759 
z
M 3341 1997 
L 3341 0 
L 2766 0 
L 2766 531 
Q 2569 213 2275 61 
Q 1981 -91 1556 -91 
Q 1019 -91 701 211 
Q 384 513 384 1019 
Q 384 1609 779 1909 
Q 1175 2209 1959 2209 
L 2766 2209 
L 2766 2266 
Q 2766 2663 2505 2880 
Q 2244 3097 1772 3097 
Q 1472 3097 1187 3025 
Q 903 2953 641 2809 
L 641 3341 
Q 956 3463 1253 3523 
Q 1550 3584 1831 3584 
Q 2591 3584 2966 3190 
Q 3341 2797 3341 1997 
z
" transform="scale(0.015625)"/>
      <path id="DejaVuSans-62" d="M 3116 1747 
Q 3116 2381 2855 2742 
Q 2594 3103 2138 3103 
Q 1681 3103 1420 2742 
Q 1159 2381 1159 1747 
Q 1159 1113 1420 752 
Q 1681 391 2138 391 
Q 2594 391 2855 752 
Q 3116 1113 3116 1747 
z
M 1159 2969 
Q 1341 3281 1617 3432 
Q 1894 3584 2278 3584 
Q 2916 3584 3314 3078 
Q 3713 2572 3713 1747 
Q 3713 922 3314 415 
Q 2916 -91 2278 -91 
Q 1894 -91 1617 61 
Q 1341 213 1159 525 
L 1159 0 
L 581 0 
L 581 4863 
L 1159 4863 
L 1159 2969 
z
" transform="scale(0.015625)"/>
      <path id="DejaVuSans-6f" d="M 1959 3097 
Q 1497 3097 1228 2736 
Q 959 2375 959 1747 
Q 959 1119 1226 758 
Q 1494 397 1959 397 
Q 2419 397 2687 759 
Q 2956 1122 2956 1747 
Q 2956 2369 2687 2733 
Q 2419 3097 1959 3097 
z
M 1959 3584 
Q 2709 3584 3137 3096 
Q 3566 2609 3566 1747 
Q 3566 888 3137 398 
Q 2709 -91 1959 -91 
Q 1206 -91 779 398 
Q 353 888 353 1747 
Q 353 2609 779 3096 
Q 1206 3584 1959 3584 
z
" transform="scale(0.015625)"/>
     </defs>
     <use xlink:href="#DejaVuSans-45"/>
     <use xlink:href="#DejaVuSans-66" x="63.183594"/>
     <use xlink:href="#DejaVuSans-66" x="98.388672"/>
     <use xlink:href="#DejaVuSans-65" x="133.59375"/>
     <use xlink:href="#DejaVuSans-74" x="195.117188"/>
     <use xlink:href="#DejaVuSans-20" x="234.326172"/>
     <use xlink:href="#DejaVuSans-64" x="266.113281"/>
     <use xlink:href="#DejaVuSans-27" x="329.589844"/>
     <use xlink:href="#DejaVuSans-75" x="357.080078"/>
     <use xlink:href="#DejaVuSans-6e" x="420.458984"/>
     <use xlink:href="#DejaVuSans-20" x="483.837891"/>
     <use xlink:href="#DejaVuSans-66" x="515.625"/>
     <use xlink:href="#DejaVuSans-69" x="550.830078"/>
     <use xlink:href="#DejaVuSans-6c" x="578.613281"/>
     <use xlink:href="#DejaVuSans-74" x="606.396484"/>
     <use xlink:href="#DejaVuSans-72" x="645.605469"/>
     <use xlink:href="#DejaVuSans-65" x="684.46875"/>
     <use xlink:href="#DejaVuSans-20" x="745.992188"/>
     <use xlink:href="#DejaVuSans-70" x="777.779297"/>
     <use xlink:href="#DejaVuSans-61" x="841.255859"/>
     <use xlink:href="#DejaVuSans-73" x="902.535156"/>
     <use xlink:href="#DejaVuSans-73" x="954.634766"/>
     <use xlink:href="#DejaVuSans-65" x="1006.734375"/>
     <use xlink:href="#DejaVuSans-20" x="1068.257812"/>
     <use xlink:href="#DejaVuSans-62" x="1100.044922"/>
     <use xlink:href="#DejaVuSans-61" x="1163.521484"/>
     <use xlink:href="#DejaVuSans-73" x="1224.800781"/>
     <use xlink:href="#DejaVuSans-20" x="1276.900391"/>
     <use xlink:href="#DejaVuSans-64" x="1308.6875"/>
     <use xlink:href="#DejaVuSans-75" x="1372.164062"/>
     <use xlink:href="#DejaVuSans-20" x="1435.542969"/>
     <use xlink:href="#DejaVuSans-31" x="1467.330078"/>
     <use xlink:href="#DejaVuSans-65" x="1530.953125"/>
     <use xlink:href="#DejaVuSans-72" x="1592.476562"/>
     <use xlink:href="#DejaVuSans-20" x="1633.589844"/>
     <use xlink:href="#DejaVuSans-6f" x="1665.376953"/>
     <use xlink:href="#DejaVuSans-72" x="1726.558594"/>
     <use xlink:href="#DejaVuSans-64" x="1765.921875"/>
     <use xlink:href="#DejaVuSans-72" x="1829.398438"/>
     <use xlink:href="#DejaVuSans-65" x="1868.261719"/>
    </g>
   </g>
   <g id="legend_1">
    <g id="patch_7">
     <path d="M 440.91025 94.12105 
L 567.19775 94.12105 
Q 569.19775 94.12105 569.19775 92.12105 
L 569.19775 63.7648 
Q 569.19775 61.7648 567.19775 61.7648 
L 440.91025 61.7648 
Q 438.91025 61.7648 438.91025 63.7648 
L 438.91025 92.12105 
Q 438.91025 94.12105 440.91025 94.12105 
z
" style="fill: #ffffff; opacity: 0.8; stroke: #cccccc; stroke-linejoin: miter"/>
    </g>
    <g id="line2d_27">
     <path d="M 442.91025 69.863237 
L 452.91025 69.863237 
L 462.91025 69.863237 
" style="fill: none; stroke: #0000ff; stroke-width: 1.5; stroke-linecap: square"/>
    </g>
    <g id="text_16">
     <!-- u(t) -->
     <g transform="translate(470.91025 73.363237)scale(0.1 -0.1)">
      <use xlink:href="#DejaVuSans-75"/>
      <use xlink:href="#DejaVuSans-28" x="63.378906"/>
      <use xlink:href="#DejaVuSans-74" x="102.392578"/>
      <use xlink:href="#DejaVuSans-29" x="141.601562"/>
     </g>
    </g>
    <g id="line2d_28">
     <path d="M 442.91025 84.541362 
L 452.91025 84.541362 
L 462.91025 84.541362 
" style="fill: none; stroke: #ff0000; stroke-width: 1.5; stroke-linecap: square"/>
    </g>
    <g id="text_17">
     <!-- e(t) avec f = 5 kHz -->
     <g transform="translate(470.91025 88.041362)scale(0.1 -0.1)">
      <defs>
       <path id="DejaVuSans-76" d="M 191 3500 
L 800 3500 
L 1894 563 
L 2988 3500 
L 3597 3500 
L 2284 0 
L 1503 0 
L 191 3500 
z
" transform="scale(0.015625)"/>
       <path id="DejaVuSans-63" d="M 3122 3366 
L 3122 2828 
Q 2878 2963 2633 3030 
Q 2388 3097 2138 3097 
Q 1578 3097 1268 2742 
Q 959 2388 959 1747 
Q 959 1106 1268 751 
Q 1578 397 2138 397 
Q 2388 397 2633 464 
Q 2878 531 3122 666 
L 3122 134 
Q 2881 22 2623 -34 
Q 2366 -91 2075 -91 
Q 1284 -91 818 406 
Q 353 903 353 1747 
Q 353 2603 823 3093 
Q 1294 3584 2113 3584 
Q 2378 3584 2631 3529 
Q 2884 3475 3122 3366 
z
" transform="scale(0.015625)"/>
       <path id="DejaVuSans-3d" d="M 678 2906 
L 4684 2906 
L 4684 2381 
L 678 2381 
L 678 2906 
z
M 678 1631 
L 4684 1631 
L 4684 1100 
L 678 1100 
L 678 1631 
z
" transform="scale(0.015625)"/>
       <path id="DejaVuSans-6b" d="M 581 4863 
L 1159 4863 
L 1159 1991 
L 2875 3500 
L 3609 3500 
L 1753 1863 
L 3688 0 
L 2938 0 
L 1159 1709 
L 1159 0 
L 581 0 
L 581 4863 
z
" transform="scale(0.015625)"/>
       <path id="DejaVuSans-48" d="M 628 4666 
L 1259 4666 
L 1259 2753 
L 3553 2753 
L 3553 4666 
L 4184 4666 
L 4184 0 
L 3553 0 
L 3553 2222 
L 1259 2222 
L 1259 0 
L 628 0 
L 628 4666 
z
" transform="scale(0.015625)"/>
       <path id="DejaVuSans-7a" d="M 353 3500 
L 3084 3500 
L 3084 2975 
L 922 459 
L 3084 459 
L 3084 0 
L 275 0 
L 275 525 
L 2438 3041 
L 353 3041 
L 353 3500 
z
" transform="scale(0.015625)"/>
      </defs>
      <use xlink:href="#DejaVuSans-65"/>
      <use xlink:href="#DejaVuSans-28" x="61.523438"/>
      <use xlink:href="#DejaVuSans-74" x="100.537109"/>
      <use xlink:href="#DejaVuSans-29" x="139.746094"/>
      <use xlink:href="#DejaVuSans-20" x="178.759766"/>
      <use xlink:href="#DejaVuSans-61" x="210.546875"/>
      <use xlink:href="#DejaVuSans-76" x="271.826172"/>
      <use xlink:href="#DejaVuSans-65" x="331.005859"/>
      <use xlink:href="#DejaVuSans-63" x="392.529297"/>
      <use xlink:href="#DejaVuSans-20" x="447.509766"/>
      <use xlink:href="#DejaVuSans-66" x="479.296875"/>
      <use xlink:href="#DejaVuSans-20" x="514.501953"/>
      <use xlink:href="#DejaVuSans-3d" x="546.289062"/>
      <use xlink:href="#DejaVuSans-20" x="630.078125"/>
      <use xlink:href="#DejaVuSans-35" x="661.865234"/>
      <use xlink:href="#DejaVuSans-20" x="725.488281"/>
      <use xlink:href="#DejaVuSans-6b" x="757.275391"/>
      <use xlink:href="#DejaVuSans-48" x="815.185547"/>
      <use xlink:href="#DejaVuSans-7a" x="890.380859"/>
     </g>
    </g>
   </g>
  </g>
  <g id="axes_2">
   <g id="patch_8">
    <path d="M 122.94 292.450024 
L 885.168 292.450024 
L 885.168 185.320376 
L 122.94 185.320376 
z
" style="fill: #ffffff"/>
   </g>
   <g id="matplotlib.axis_3">
    <g id="xtick_8">
     <g id="line2d_29">
      <path d="M 157.586727 292.450024 
L 157.586727 185.320376 
" clip-path="url(#p2c1b7d8a7e)" style="fill: none; stroke: #b0b0b0; stroke-width: 0.8; stroke-linecap: square"/>
     </g>
     <g id="line2d_30">
      <g>
       <use xlink:href="#m8f24b7d815" x="157.586727" y="292.450024" style="stroke: #000000; stroke-width: 0.8"/>
      </g>
     </g>
     <g id="text_18">
      <!-- 0.00 -->
      <g transform="translate(146.453915 307.048461)scale(0.1 -0.1)">
       <use xlink:href="#DejaVuSans-30"/>
       <use xlink:href="#DejaVuSans-2e" x="63.623047"/>
       <use xlink:href="#DejaVuSans-30" x="95.410156"/>
       <use xlink:href="#DejaVuSans-30" x="159.033203"/>
      </g>
     </g>
    </g>
    <g id="xtick_9">
     <g id="line2d_31">
      <path d="M 273.075818 292.450024 
L 273.075818 185.320376 
" clip-path="url(#p2c1b7d8a7e)" style="fill: none; stroke: #b0b0b0; stroke-width: 0.8; stroke-linecap: square"/>
     </g>
     <g id="line2d_32">
      <g>
       <use xlink:href="#m8f24b7d815" x="273.075818" y="292.450024" style="stroke: #000000; stroke-width: 0.8"/>
      </g>
     </g>
     <g id="text_19">
      <!-- 0.01 -->
      <g transform="translate(261.943006 307.048461)scale(0.1 -0.1)">
       <use xlink:href="#DejaVuSans-30"/>
       <use xlink:href="#DejaVuSans-2e" x="63.623047"/>
       <use xlink:href="#DejaVuSans-30" x="95.410156"/>
       <use xlink:href="#DejaVuSans-31" x="159.033203"/>
      </g>
     </g>
    </g>
    <g id="xtick_10">
     <g id="line2d_33">
      <path d="M 388.564909 292.450024 
L 388.564909 185.320376 
" clip-path="url(#p2c1b7d8a7e)" style="fill: none; stroke: #b0b0b0; stroke-width: 0.8; stroke-linecap: square"/>
     </g>
     <g id="line2d_34">
      <g>
       <use xlink:href="#m8f24b7d815" x="388.564909" y="292.450024" style="stroke: #000000; stroke-width: 0.8"/>
      </g>
     </g>
     <g id="text_20">
      <!-- 0.02 -->
      <g transform="translate(377.432097 307.048461)scale(0.1 -0.1)">
       <use xlink:href="#DejaVuSans-30"/>
       <use xlink:href="#DejaVuSans-2e" x="63.623047"/>
       <use xlink:href="#DejaVuSans-30" x="95.410156"/>
       <use xlink:href="#DejaVuSans-32" x="159.033203"/>
      </g>
     </g>
    </g>
    <g id="xtick_11">
     <g id="line2d_35">
      <path d="M 504.054 292.450024 
L 504.054 185.320376 
" clip-path="url(#p2c1b7d8a7e)" style="fill: none; stroke: #b0b0b0; stroke-width: 0.8; stroke-linecap: square"/>
     </g>
     <g id="line2d_36">
      <g>
       <use xlink:href="#m8f24b7d815" x="504.054" y="292.450024" style="stroke: #000000; stroke-width: 0.8"/>
      </g>
     </g>
     <g id="text_21">
      <!-- 0.03 -->
      <g transform="translate(492.921188 307.048461)scale(0.1 -0.1)">
       <use xlink:href="#DejaVuSans-30"/>
       <use xlink:href="#DejaVuSans-2e" x="63.623047"/>
       <use xlink:href="#DejaVuSans-30" x="95.410156"/>
       <use xlink:href="#DejaVuSans-33" x="159.033203"/>
      </g>
     </g>
    </g>
    <g id="xtick_12">
     <g id="line2d_37">
      <path d="M 619.543091 292.450024 
L 619.543091 185.320376 
" clip-path="url(#p2c1b7d8a7e)" style="fill: none; stroke: #b0b0b0; stroke-width: 0.8; stroke-linecap: square"/>
     </g>
     <g id="line2d_38">
      <g>
       <use xlink:href="#m8f24b7d815" x="619.543091" y="292.450024" style="stroke: #000000; stroke-width: 0.8"/>
      </g>
     </g>
     <g id="text_22">
      <!-- 0.04 -->
      <g transform="translate(608.410278 307.048461)scale(0.1 -0.1)">
       <use xlink:href="#DejaVuSans-30"/>
       <use xlink:href="#DejaVuSans-2e" x="63.623047"/>
       <use xlink:href="#DejaVuSans-30" x="95.410156"/>
       <use xlink:href="#DejaVuSans-34" x="159.033203"/>
      </g>
     </g>
    </g>
    <g id="xtick_13">
     <g id="line2d_39">
      <path d="M 735.032182 292.450024 
L 735.032182 185.320376 
" clip-path="url(#p2c1b7d8a7e)" style="fill: none; stroke: #b0b0b0; stroke-width: 0.8; stroke-linecap: square"/>
     </g>
     <g id="line2d_40">
      <g>
       <use xlink:href="#m8f24b7d815" x="735.032182" y="292.450024" style="stroke: #000000; stroke-width: 0.8"/>
      </g>
     </g>
     <g id="text_23">
      <!-- 0.05 -->
      <g transform="translate(723.899369 307.048461)scale(0.1 -0.1)">
       <use xlink:href="#DejaVuSans-30"/>
       <use xlink:href="#DejaVuSans-2e" x="63.623047"/>
       <use xlink:href="#DejaVuSans-30" x="95.410156"/>
       <use xlink:href="#DejaVuSans-35" x="159.033203"/>
      </g>
     </g>
    </g>
    <g id="xtick_14">
     <g id="line2d_41">
      <path d="M 850.521273 292.450024 
L 850.521273 185.320376 
" clip-path="url(#p2c1b7d8a7e)" style="fill: none; stroke: #b0b0b0; stroke-width: 0.8; stroke-linecap: square"/>
     </g>
     <g id="line2d_42">
      <g>
       <use xlink:href="#m8f24b7d815" x="850.521273" y="292.450024" style="stroke: #000000; stroke-width: 0.8"/>
      </g>
     </g>
     <g id="text_24">
      <!-- 0.06 -->
      <g transform="translate(839.38846 307.048461)scale(0.1 -0.1)">
       <use xlink:href="#DejaVuSans-30"/>
       <use xlink:href="#DejaVuSans-2e" x="63.623047"/>
       <use xlink:href="#DejaVuSans-30" x="95.410156"/>
       <use xlink:href="#DejaVuSans-36" x="159.033203"/>
      </g>
     </g>
    </g>
    <g id="text_25">
     <!-- temps en s -->
     <g transform="translate(476.339938 320.726586)scale(0.1 -0.1)">
      <use xlink:href="#DejaVuSans-74"/>
      <use xlink:href="#DejaVuSans-65" x="39.208984"/>
      <use xlink:href="#DejaVuSans-6d" x="100.732422"/>
      <use xlink:href="#DejaVuSans-70" x="198.144531"/>
      <use xlink:href="#DejaVuSans-73" x="261.621094"/>
      <use xlink:href="#DejaVuSans-20" x="313.720703"/>
      <use xlink:href="#DejaVuSans-65" x="345.507812"/>
      <use xlink:href="#DejaVuSans-6e" x="407.03125"/>
      <use xlink:href="#DejaVuSans-20" x="470.410156"/>
      <use xlink:href="#DejaVuSans-73" x="502.197266"/>
     </g>
    </g>
   </g>
   <g id="matplotlib.axis_4">
    <g id="ytick_6">
     <g id="line2d_43">
      <path d="M 122.94 287.759884 
L 885.168 287.759884 
" clip-path="url(#p2c1b7d8a7e)" style="fill: none; stroke: #b0b0b0; stroke-width: 0.8; stroke-linecap: square"/>
     </g>
     <g id="line2d_44">
      <g>
       <use xlink:href="#mf53cf17fbe" x="122.94" y="287.759884" style="stroke: #000000; stroke-width: 0.8"/>
      </g>
     </g>
     <g id="text_26">
      <!-- −10 -->
      <g transform="translate(94.835313 291.559103)scale(0.1 -0.1)">
       <use xlink:href="#DejaVuSans-2212"/>
       <use xlink:href="#DejaVuSans-31" x="83.789062"/>
       <use xlink:href="#DejaVuSans-30" x="147.412109"/>
      </g>
     </g>
    </g>
    <g id="ytick_7">
     <g id="line2d_45">
      <path d="M 122.94 263.367389 
L 885.168 263.367389 
" clip-path="url(#p2c1b7d8a7e)" style="fill: none; stroke: #b0b0b0; stroke-width: 0.8; stroke-linecap: square"/>
     </g>
     <g id="line2d_46">
      <g>
       <use xlink:href="#mf53cf17fbe" x="122.94" y="263.367389" style="stroke: #000000; stroke-width: 0.8"/>
      </g>
     </g>
     <g id="text_27">
      <!-- −5 -->
      <g transform="translate(101.197812 267.166608)scale(0.1 -0.1)">
       <use xlink:href="#DejaVuSans-2212"/>
       <use xlink:href="#DejaVuSans-35" x="83.789062"/>
      </g>
     </g>
    </g>
    <g id="ytick_8">
     <g id="line2d_47">
      <path d="M 122.94 238.974895 
L 885.168 238.974895 
" clip-path="url(#p2c1b7d8a7e)" style="fill: none; stroke: #b0b0b0; stroke-width: 0.8; stroke-linecap: square"/>
     </g>
     <g id="line2d_48">
      <g>
       <use xlink:href="#mf53cf17fbe" x="122.94" y="238.974895" style="stroke: #000000; stroke-width: 0.8"/>
      </g>
     </g>
     <g id="text_28">
      <!-- 0 -->
      <g transform="translate(109.5775 242.774114)scale(0.1 -0.1)">
       <use xlink:href="#DejaVuSans-30"/>
      </g>
     </g>
    </g>
    <g id="ytick_9">
     <g id="line2d_49">
      <path d="M 122.94 214.5824 
L 885.168 214.5824 
" clip-path="url(#p2c1b7d8a7e)" style="fill: none; stroke: #b0b0b0; stroke-width: 0.8; stroke-linecap: square"/>
     </g>
     <g id="line2d_50">
      <g>
       <use xlink:href="#mf53cf17fbe" x="122.94" y="214.5824" style="stroke: #000000; stroke-width: 0.8"/>
      </g>
     </g>
     <g id="text_29">
      <!-- 5 -->
      <g transform="translate(109.5775 218.381619)scale(0.1 -0.1)">
       <use xlink:href="#DejaVuSans-35"/>
      </g>
     </g>
    </g>
    <g id="ytick_10">
     <g id="line2d_51">
      <path d="M 122.94 190.189906 
L 885.168 190.189906 
" clip-path="url(#p2c1b7d8a7e)" style="fill: none; stroke: #b0b0b0; stroke-width: 0.8; stroke-linecap: square"/>
     </g>
     <g id="line2d_52">
      <g>
       <use xlink:href="#mf53cf17fbe" x="122.94" y="190.189906" style="stroke: #000000; stroke-width: 0.8"/>
      </g>
     </g>
     <g id="text_30">
      <!-- 10 -->
      <g transform="translate(103.215 193.989125)scale(0.1 -0.1)">
       <use xlink:href="#DejaVuSans-31"/>
       <use xlink:href="#DejaVuSans-30" x="63.623047"/>
      </g>
     </g>
    </g>
    <g id="text_31">
     <!-- e(t) en V -->
     <g transform="translate(88.755625 260.667231)rotate(-90)scale(0.1 -0.1)">
      <use xlink:href="#DejaVuSans-65"/>
      <use xlink:href="#DejaVuSans-28" x="61.523438"/>
      <use xlink:href="#DejaVuSans-74" x="100.537109"/>
      <use xlink:href="#DejaVuSans-29" x="139.746094"/>
      <use xlink:href="#DejaVuSans-20" x="178.759766"/>
      <use xlink:href="#DejaVuSans-65" x="210.546875"/>
      <use xlink:href="#DejaVuSans-6e" x="272.070312"/>
      <use xlink:href="#DejaVuSans-20" x="335.449219"/>
      <use xlink:href="#DejaVuSans-56" x="367.236328"/>
     </g>
    </g>
   </g>
   <g id="line2d_53">
    <path d="M 157.586727 190.194784 
L 164.586066 190.983987 
L 171.585405 193.507707 
L 178.584744 197.674729 
L 185.584083 203.334447 
L 192.583421 210.282303 
L 199.58276 218.267185 
L 206.582099 227.000497 
L 213.581438 236.166595 
L 220.580777 245.434192 
L 227.580116 254.468334 
L 234.579455 262.942502 
L 241.578793 270.550419 
L 248.578132 277.017113 
L 255.577471 282.108863 
L 262.57681 285.641639 
L 269.576149 287.487757 
L 276.575488 287.580494 
L 283.574826 285.916498 
L 290.574165 282.55591 
L 297.573504 277.620191 
L 304.572843 271.28773 
L 311.572182 263.787398 
L 318.571521 255.390279 
L 325.57086 246.399864 
L 332.570198 237.141092 
L 339.569537 227.948599 
L 346.568876 219.154624 
L 353.568215 211.077005 
L 360.567554 204.007689 
L 367.566893 198.202179 
L 374.566231 193.870301 
L 381.56557 191.168621 
L 388.564909 190.194784 
L 395.564248 190.983987 
L 402.563587 193.507707 
L 409.562926 197.674729 
L 416.562264 203.334447 
L 423.561603 210.282303 
L 430.560942 218.267185 
L 437.560281 227.000497 
L 444.55962 236.166595 
L 451.558959 245.434192 
L 458.558298 254.468334 
L 465.557636 262.942502 
L 472.556975 270.550419 
L 479.556314 277.017113 
L 486.555653 282.108863 
L 493.554992 285.641639 
L 500.554331 287.487757 
L 507.553669 287.580494 
L 514.553008 285.916498 
L 521.552347 282.55591 
L 528.551686 277.620191 
L 535.551025 271.28773 
L 542.550364 263.787398 
L 549.549702 255.390279 
L 556.549041 246.399864 
L 563.54838 237.141092 
L 570.547719 227.948599 
L 577.547058 219.154624 
L 584.546397 211.077005 
L 591.545736 204.007689 
L 598.545074 198.202179 
L 605.544413 193.870301 
L 612.543752 191.168621 
L 619.543091 190.194784 
L 626.54243 190.983987 
L 633.541769 193.507707 
L 640.541107 197.674729 
L 647.540446 203.334447 
L 654.539785 210.282303 
L 661.539124 218.267185 
L 668.538463 227.000497 
L 675.537802 236.166595 
L 682.53714 245.434192 
L 689.536479 254.468334 
L 696.535818 262.942502 
L 703.535157 270.550419 
L 710.534496 277.017113 
L 717.533835 282.108863 
L 724.533174 285.641639 
L 731.532512 287.487757 
L 738.531851 287.580494 
L 745.53119 285.916498 
L 752.530529 282.55591 
L 759.529868 277.620191 
L 766.529207 271.28773 
L 773.528545 263.787398 
L 780.527884 255.390279 
L 787.527223 246.399864 
L 794.526562 237.141092 
L 801.525901 227.948599 
L 808.52524 219.154624 
L 815.524579 211.077005 
L 822.523917 204.007689 
L 829.523256 198.202179 
L 836.522595 193.870301 
L 843.521934 191.168621 
L 850.521273 190.194784 
" clip-path="url(#p2c1b7d8a7e)" style="fill: none; stroke: #0000ff; stroke-width: 1.5; stroke-linecap: square"/>
   </g>
   <g id="line2d_54">
    <path d="M 157.586727 190.189906 
L 164.586066 191.071514 
L 171.585405 193.684475 
L 178.584744 197.934351 
L 185.584083 203.667538 
L 192.583421 210.676825 
L 199.58276 218.708878 
L 206.582099 227.473398 
L 213.581438 236.653612 
L 220.580777 245.917723 
L 227.580116 254.930902 
L 234.579455 263.367389 
L 241.578793 270.922269 
L 248.578132 277.322486 
L 255.577471 282.336722 
L 262.57681 285.783749 
L 269.576149 287.538982 
L 276.575488 287.538982 
L 283.574826 285.783749 
L 290.574165 282.336722 
L 297.573504 277.322486 
L 304.572843 270.922269 
L 311.572182 263.367389 
L 318.571521 254.930902 
L 325.57086 245.917723 
L 332.570198 236.653612 
L 339.569537 227.473398 
L 346.568876 218.708878 
L 353.568215 210.676825 
L 360.567554 203.667538 
L 367.566893 197.934351 
L 374.566231 193.684475 
L 381.56557 191.071514 
L 388.564909 190.189906 
L 395.564248 191.071514 
L 402.563587 193.684475 
L 409.562926 197.934351 
L 416.562264 203.667538 
L 423.561603 210.676825 
L 430.560942 218.708878 
L 437.560281 227.473398 
L 444.55962 236.653612 
L 451.558959 245.917723 
L 458.558298 254.930902 
L 465.557636 263.367389 
L 472.556975 270.922269 
L 479.556314 277.322486 
L 486.555653 282.336722 
L 493.554992 285.783749 
L 500.554331 287.538982 
L 507.553669 287.538982 
L 514.553008 285.783749 
L 521.552347 282.336722 
L 528.551686 277.322486 
L 535.551025 270.922269 
L 542.550364 263.367389 
L 549.549702 254.930902 
L 556.549041 245.917723 
L 563.54838 236.653612 
L 570.547719 227.473398 
L 577.547058 218.708878 
L 584.546397 210.676825 
L 591.545736 203.667538 
L 598.545074 197.934351 
L 605.544413 193.684475 
L 612.543752 191.071514 
L 619.543091 190.189906 
L 626.54243 191.071514 
L 633.541769 193.684475 
L 640.541107 197.934351 
L 647.540446 203.667538 
L 654.539785 210.676825 
L 661.539124 218.708878 
L 668.538463 227.473398 
L 675.537802 236.653612 
L 682.53714 245.917723 
L 689.536479 254.930902 
L 696.535818 263.367389 
L 703.535157 270.922269 
L 710.534496 277.322486 
L 717.533835 282.336722 
L 724.533174 285.783749 
L 731.532512 287.538982 
L 738.531851 287.538982 
L 745.53119 285.783749 
L 752.530529 282.336722 
L 759.529868 277.322486 
L 766.529207 270.922269 
L 773.528545 263.367389 
L 780.527884 254.930902 
L 787.527223 245.917723 
L 794.526562 236.653612 
L 801.525901 227.473398 
L 808.52524 218.708878 
L 815.524579 210.676825 
L 822.523917 203.667538 
L 829.523256 197.934351 
L 836.522595 193.684475 
L 843.521934 191.071514 
L 850.521273 190.189906 
" clip-path="url(#p2c1b7d8a7e)" style="fill: none; stroke: #ff0000; stroke-width: 1.5; stroke-linecap: square"/>
   </g>
   <g id="patch_9">
    <path d="M 122.94 292.450024 
L 122.94 185.320376 
" style="fill: none; stroke: #000000; stroke-width: 0.8; stroke-linejoin: miter; stroke-linecap: square"/>
   </g>
   <g id="patch_10">
    <path d="M 885.168 292.450024 
L 885.168 185.320376 
" style="fill: none; stroke: #000000; stroke-width: 0.8; stroke-linejoin: miter; stroke-linecap: square"/>
   </g>
   <g id="patch_11">
    <path d="M 122.94 292.450024 
L 885.168 292.450024 
" style="fill: none; stroke: #000000; stroke-width: 0.8; stroke-linejoin: miter; stroke-linecap: square"/>
   </g>
   <g id="patch_12">
    <path d="M 122.94 185.320376 
L 885.168 185.320376 
" style="fill: none; stroke: #000000; stroke-width: 0.8; stroke-linejoin: miter; stroke-linecap: square"/>
   </g>
   <g id="legend_2">
    <g id="patch_13">
     <path d="M 440.624313 222.676626 
L 567.483688 222.676626 
Q 569.483688 222.676626 569.483688 220.676626 
L 569.483688 192.320376 
Q 569.483688 190.320376 567.483688 190.320376 
L 440.624313 190.320376 
Q 438.624313 190.320376 438.624313 192.320376 
L 438.624313 220.676626 
Q 438.624313 222.676626 440.624313 222.676626 
z
" style="fill: #ffffff; opacity: 0.8; stroke: #cccccc; stroke-linejoin: miter"/>
    </g>
    <g id="line2d_55">
     <path d="M 442.624313 198.418814 
L 452.624313 198.418814 
L 462.624313 198.418814 
" style="fill: none; stroke: #0000ff; stroke-width: 1.5; stroke-linecap: square"/>
    </g>
    <g id="text_32">
     <!-- u(t) -->
     <g transform="translate(470.624313 201.918814)scale(0.1 -0.1)">
      <use xlink:href="#DejaVuSans-75"/>
      <use xlink:href="#DejaVuSans-28" x="63.378906"/>
      <use xlink:href="#DejaVuSans-74" x="102.392578"/>
      <use xlink:href="#DejaVuSans-29" x="141.601562"/>
     </g>
    </g>
    <g id="line2d_56">
     <path d="M 442.624313 213.096939 
L 452.624313 213.096939 
L 462.624313 213.096939 
" style="fill: none; stroke: #ff0000; stroke-width: 1.5; stroke-linecap: square"/>
    </g>
    <g id="text_33">
     <!-- e(t) avec f = 50 Hz -->
     <g transform="translate(470.624313 216.596939)scale(0.1 -0.1)">
      <use xlink:href="#DejaVuSans-65"/>
      <use xlink:href="#DejaVuSans-28" x="61.523438"/>
      <use xlink:href="#DejaVuSans-74" x="100.537109"/>
      <use xlink:href="#DejaVuSans-29" x="139.746094"/>
      <use xlink:href="#DejaVuSans-20" x="178.759766"/>
      <use xlink:href="#DejaVuSans-61" x="210.546875"/>
      <use xlink:href="#DejaVuSans-76" x="271.826172"/>
      <use xlink:href="#DejaVuSans-65" x="331.005859"/>
      <use xlink:href="#DejaVuSans-63" x="392.529297"/>
      <use xlink:href="#DejaVuSans-20" x="447.509766"/>
      <use xlink:href="#DejaVuSans-66" x="479.296875"/>
      <use xlink:href="#DejaVuSans-20" x="514.501953"/>
      <use xlink:href="#DejaVuSans-3d" x="546.289062"/>
      <use xlink:href="#DejaVuSans-20" x="630.078125"/>
      <use xlink:href="#DejaVuSans-35" x="661.865234"/>
      <use xlink:href="#DejaVuSans-30" x="725.488281"/>
      <use xlink:href="#DejaVuSans-20" x="789.111328"/>
      <use xlink:href="#DejaVuSans-48" x="820.898438"/>
      <use xlink:href="#DejaVuSans-7a" x="896.09375"/>
     </g>
    </g>
   </g>
  </g>
  <g id="axes_3">
   <g id="patch_14">
    <path d="M 122.94 421.0056 
L 885.168 421.0056 
L 885.168 313.875953 
L 122.94 313.875953 
z
" style="fill: #ffffff"/>
   </g>
   <g id="matplotlib.axis_5">
    <g id="xtick_15">
     <g id="line2d_57">
      <path d="M 157.586727 421.0056 
L 157.586727 313.875953 
" clip-path="url(#paf6ceafc89)" style="fill: none; stroke: #b0b0b0; stroke-width: 0.8; stroke-linecap: square"/>
     </g>
     <g id="line2d_58">
      <g>
       <use xlink:href="#m8f24b7d815" x="157.586727" y="421.0056" style="stroke: #000000; stroke-width: 0.8"/>
      </g>
     </g>
     <g id="text_34">
      <!-- 0 -->
      <g transform="translate(154.405477 435.604038)scale(0.1 -0.1)">
       <use xlink:href="#DejaVuSans-30"/>
      </g>
     </g>
    </g>
    <g id="xtick_16">
     <g id="line2d_59">
      <path d="M 273.075818 421.0056 
L 273.075818 313.875953 
" clip-path="url(#paf6ceafc89)" style="fill: none; stroke: #b0b0b0; stroke-width: 0.8; stroke-linecap: square"/>
     </g>
     <g id="line2d_60">
      <g>
       <use xlink:href="#m8f24b7d815" x="273.075818" y="421.0056" style="stroke: #000000; stroke-width: 0.8"/>
      </g>
     </g>
     <g id="text_35">
      <!-- 1 -->
      <g transform="translate(269.894568 435.604038)scale(0.1 -0.1)">
       <use xlink:href="#DejaVuSans-31"/>
      </g>
     </g>
    </g>
    <g id="xtick_17">
     <g id="line2d_61">
      <path d="M 388.564909 421.0056 
L 388.564909 313.875953 
" clip-path="url(#paf6ceafc89)" style="fill: none; stroke: #b0b0b0; stroke-width: 0.8; stroke-linecap: square"/>
     </g>
     <g id="line2d_62">
      <g>
       <use xlink:href="#m8f24b7d815" x="388.564909" y="421.0056" style="stroke: #000000; stroke-width: 0.8"/>
      </g>
     </g>
     <g id="text_36">
      <!-- 2 -->
      <g transform="translate(385.383659 435.604038)scale(0.1 -0.1)">
       <use xlink:href="#DejaVuSans-32"/>
      </g>
     </g>
    </g>
    <g id="xtick_18">
     <g id="line2d_63">
      <path d="M 504.054 421.0056 
L 504.054 313.875953 
" clip-path="url(#paf6ceafc89)" style="fill: none; stroke: #b0b0b0; stroke-width: 0.8; stroke-linecap: square"/>
     </g>
     <g id="line2d_64">
      <g>
       <use xlink:href="#m8f24b7d815" x="504.054" y="421.0056" style="stroke: #000000; stroke-width: 0.8"/>
      </g>
     </g>
     <g id="text_37">
      <!-- 3 -->
      <g transform="translate(500.87275 435.604038)scale(0.1 -0.1)">
       <use xlink:href="#DejaVuSans-33"/>
      </g>
     </g>
    </g>
    <g id="xtick_19">
     <g id="line2d_65">
      <path d="M 619.543091 421.0056 
L 619.543091 313.875953 
" clip-path="url(#paf6ceafc89)" style="fill: none; stroke: #b0b0b0; stroke-width: 0.8; stroke-linecap: square"/>
     </g>
     <g id="line2d_66">
      <g>
       <use xlink:href="#m8f24b7d815" x="619.543091" y="421.0056" style="stroke: #000000; stroke-width: 0.8"/>
      </g>
     </g>
     <g id="text_38">
      <!-- 4 -->
      <g transform="translate(616.361841 435.604038)scale(0.1 -0.1)">
       <use xlink:href="#DejaVuSans-34"/>
      </g>
     </g>
    </g>
    <g id="xtick_20">
     <g id="line2d_67">
      <path d="M 735.032182 421.0056 
L 735.032182 313.875953 
" clip-path="url(#paf6ceafc89)" style="fill: none; stroke: #b0b0b0; stroke-width: 0.8; stroke-linecap: square"/>
     </g>
     <g id="line2d_68">
      <g>
       <use xlink:href="#m8f24b7d815" x="735.032182" y="421.0056" style="stroke: #000000; stroke-width: 0.8"/>
      </g>
     </g>
     <g id="text_39">
      <!-- 5 -->
      <g transform="translate(731.850932 435.604038)scale(0.1 -0.1)">
       <use xlink:href="#DejaVuSans-35"/>
      </g>
     </g>
    </g>
    <g id="xtick_21">
     <g id="line2d_69">
      <path d="M 850.521273 421.0056 
L 850.521273 313.875953 
" clip-path="url(#paf6ceafc89)" style="fill: none; stroke: #b0b0b0; stroke-width: 0.8; stroke-linecap: square"/>
     </g>
     <g id="line2d_70">
      <g>
       <use xlink:href="#m8f24b7d815" x="850.521273" y="421.0056" style="stroke: #000000; stroke-width: 0.8"/>
      </g>
     </g>
     <g id="text_40">
      <!-- 6 -->
      <g transform="translate(847.340023 435.604038)scale(0.1 -0.1)">
       <use xlink:href="#DejaVuSans-36"/>
      </g>
     </g>
    </g>
    <g id="text_41">
     <!-- temps en s -->
     <g transform="translate(476.339938 449.282163)scale(0.1 -0.1)">
      <use xlink:href="#DejaVuSans-74"/>
      <use xlink:href="#DejaVuSans-65" x="39.208984"/>
      <use xlink:href="#DejaVuSans-6d" x="100.732422"/>
      <use xlink:href="#DejaVuSans-70" x="198.144531"/>
      <use xlink:href="#DejaVuSans-73" x="261.621094"/>
      <use xlink:href="#DejaVuSans-20" x="313.720703"/>
      <use xlink:href="#DejaVuSans-65" x="345.507812"/>
      <use xlink:href="#DejaVuSans-6e" x="407.03125"/>
      <use xlink:href="#DejaVuSans-20" x="470.410156"/>
      <use xlink:href="#DejaVuSans-73" x="502.197266"/>
     </g>
    </g>
    <g id="text_42">
     <!-- 1e−6 -->
     <g transform="translate(857.910188 448.282163)scale(0.1 -0.1)">
      <use xlink:href="#DejaVuSans-31"/>
      <use xlink:href="#DejaVuSans-65" x="63.623047"/>
      <use xlink:href="#DejaVuSans-2212" x="125.146484"/>
      <use xlink:href="#DejaVuSans-36" x="208.935547"/>
     </g>
    </g>
   </g>
   <g id="matplotlib.axis_6">
    <g id="ytick_11">
     <g id="line2d_71">
      <path d="M 122.94 416.357067 
L 885.168 416.357067 
" clip-path="url(#paf6ceafc89)" style="fill: none; stroke: #b0b0b0; stroke-width: 0.8; stroke-linecap: square"/>
     </g>
     <g id="line2d_72">
      <g>
       <use xlink:href="#mf53cf17fbe" x="122.94" y="416.357067" style="stroke: #000000; stroke-width: 0.8"/>
      </g>
     </g>
     <g id="text_43">
      <!-- −10 -->
      <g transform="translate(94.835313 420.156286)scale(0.1 -0.1)">
       <use xlink:href="#DejaVuSans-2212"/>
       <use xlink:href="#DejaVuSans-31" x="83.789062"/>
       <use xlink:href="#DejaVuSans-30" x="147.412109"/>
      </g>
     </g>
    </g>
    <g id="ytick_12">
     <g id="line2d_73">
      <path d="M 122.94 391.954171 
L 885.168 391.954171 
" clip-path="url(#paf6ceafc89)" style="fill: none; stroke: #b0b0b0; stroke-width: 0.8; stroke-linecap: square"/>
     </g>
     <g id="line2d_74">
      <g>
       <use xlink:href="#mf53cf17fbe" x="122.94" y="391.954171" style="stroke: #000000; stroke-width: 0.8"/>
      </g>
     </g>
     <g id="text_44">
      <!-- −5 -->
      <g transform="translate(101.197812 395.75339)scale(0.1 -0.1)">
       <use xlink:href="#DejaVuSans-2212"/>
       <use xlink:href="#DejaVuSans-35" x="83.789062"/>
      </g>
     </g>
    </g>
    <g id="ytick_13">
     <g id="line2d_75">
      <path d="M 122.94 367.551275 
L 885.168 367.551275 
" clip-path="url(#paf6ceafc89)" style="fill: none; stroke: #b0b0b0; stroke-width: 0.8; stroke-linecap: square"/>
     </g>
     <g id="line2d_76">
      <g>
       <use xlink:href="#mf53cf17fbe" x="122.94" y="367.551275" style="stroke: #000000; stroke-width: 0.8"/>
      </g>
     </g>
     <g id="text_45">
      <!-- 0 -->
      <g transform="translate(109.5775 371.350493)scale(0.1 -0.1)">
       <use xlink:href="#DejaVuSans-30"/>
      </g>
     </g>
    </g>
    <g id="ytick_14">
     <g id="line2d_77">
      <path d="M 122.94 343.148379 
L 885.168 343.148379 
" clip-path="url(#paf6ceafc89)" style="fill: none; stroke: #b0b0b0; stroke-width: 0.8; stroke-linecap: square"/>
     </g>
     <g id="line2d_78">
      <g>
       <use xlink:href="#mf53cf17fbe" x="122.94" y="343.148379" style="stroke: #000000; stroke-width: 0.8"/>
      </g>
     </g>
     <g id="text_46">
      <!-- 5 -->
      <g transform="translate(109.5775 346.947597)scale(0.1 -0.1)">
       <use xlink:href="#DejaVuSans-35"/>
      </g>
     </g>
    </g>
    <g id="ytick_15">
     <g id="line2d_79">
      <path d="M 122.94 318.745482 
L 885.168 318.745482 
" clip-path="url(#paf6ceafc89)" style="fill: none; stroke: #b0b0b0; stroke-width: 0.8; stroke-linecap: square"/>
     </g>
     <g id="line2d_80">
      <g>
       <use xlink:href="#mf53cf17fbe" x="122.94" y="318.745482" style="stroke: #000000; stroke-width: 0.8"/>
      </g>
     </g>
     <g id="text_47">
      <!-- 10 -->
      <g transform="translate(103.215 322.544701)scale(0.1 -0.1)">
       <use xlink:href="#DejaVuSans-31"/>
       <use xlink:href="#DejaVuSans-30" x="63.623047"/>
      </g>
     </g>
    </g>
    <g id="text_48">
     <!-- e(t) en V -->
     <g transform="translate(88.755625 389.222808)rotate(-90)scale(0.1 -0.1)">
      <use xlink:href="#DejaVuSans-65"/>
      <use xlink:href="#DejaVuSans-28" x="61.523438"/>
      <use xlink:href="#DejaVuSans-74" x="100.537109"/>
      <use xlink:href="#DejaVuSans-29" x="139.746094"/>
      <use xlink:href="#DejaVuSans-20" x="178.759766"/>
      <use xlink:href="#DejaVuSans-65" x="210.546875"/>
      <use xlink:href="#DejaVuSans-6e" x="272.070312"/>
      <use xlink:href="#DejaVuSans-20" x="335.449219"/>
      <use xlink:href="#DejaVuSans-56" x="367.236328"/>
     </g>
    </g>
   </g>
   <g id="line2d_81">
    <path d="M 157.586727 367.546395 
L 164.586066 367.454126 
L 171.585405 367.365369 
L 178.584744 367.283332 
L 185.584083 367.210978 
L 192.583421 367.150923 
L 199.58276 367.105339 
L 206.582099 367.075871 
L 213.581438 367.063586 
L 220.580777 367.068927 
L 227.580116 367.091702 
L 234.579455 367.131086 
L 241.578793 367.185658 
L 248.578132 367.253443 
L 255.577471 367.331994 
L 262.57681 367.418469 
L 269.576149 367.509744 
L 276.575488 367.602521 
L 283.574826 367.693445 
L 290.574165 367.779231 
L 297.573504 367.856778 
L 304.572843 367.923283 
L 311.572182 367.976343 
L 318.571521 368.01404 
L 325.57086 368.035011 
L 332.570198 368.038499 
L 339.569537 368.024377 
L 346.568876 367.993156 
L 353.568215 367.945964 
L 360.567554 367.884508 
L 367.566893 367.811007 
L 374.566231 367.728119 
L 381.56557 367.638839 
L 388.564909 367.546395 
L 395.564248 367.454126 
L 402.563587 367.365369 
L 409.562926 367.283332 
L 416.562264 367.210978 
L 423.561603 367.150923 
L 430.560942 367.105339 
L 437.560281 367.075871 
L 444.55962 367.063586 
L 451.558959 367.068927 
L 458.558298 367.091702 
L 465.557636 367.131086 
L 472.556975 367.185658 
L 479.556314 367.253443 
L 486.555653 367.331994 
L 493.554992 367.418469 
L 500.554331 367.509744 
L 507.553669 367.602521 
L 514.553008 367.693445 
L 521.552347 367.779231 
L 528.551686 367.856778 
L 535.551025 367.923283 
L 542.550364 367.976343 
L 549.549702 368.01404 
L 556.549041 368.035011 
L 563.54838 368.038499 
L 570.547719 368.024377 
L 577.547058 367.993156 
L 584.546397 367.945964 
L 591.545736 367.884508 
L 598.545074 367.811007 
L 605.544413 367.728119 
L 612.543752 367.638839 
L 619.543091 367.546395 
L 626.54243 367.454126 
L 633.541769 367.365369 
L 640.541107 367.283332 
L 647.540446 367.210978 
L 654.539785 367.150923 
L 661.539124 367.105339 
L 668.538463 367.075871 
L 675.537802 367.063586 
L 682.53714 367.068927 
L 689.536479 367.091702 
L 696.535818 367.131086 
L 703.535157 367.185658 
L 710.534496 367.253443 
L 717.533835 367.331994 
L 724.533174 367.418469 
L 731.532512 367.509744 
L 738.531851 367.602521 
L 745.53119 367.693445 
L 752.530529 367.779231 
L 759.529868 367.856778 
L 766.529207 367.923283 
L 773.528545 367.976343 
L 780.527884 368.01404 
L 787.527223 368.035011 
L 794.526562 368.038499 
L 801.525901 368.024377 
L 808.52524 367.993156 
L 815.524579 367.945964 
L 822.523917 367.884508 
L 829.523256 367.811007 
L 836.522595 367.728119 
L 843.521934 367.638839 
L 850.521273 367.546395 
" clip-path="url(#paf6ceafc89)" style="fill: none; stroke: #0000ff; stroke-width: 1.5; stroke-linecap: square"/>
   </g>
   <g id="line2d_82">
    <path d="M 157.586727 318.745482 
L 164.586066 319.627467 
L 171.585405 322.241542 
L 178.584744 326.493229 
L 185.584083 332.228862 
L 192.583421 339.241138 
L 199.58276 347.276616 
L 206.582099 356.044873 
L 213.581438 365.229002 
L 220.580777 374.497063 
L 227.580116 383.514086 
L 234.579455 391.954171 
L 241.578793 399.512272 
L 248.578132 405.915219 
L 255.577471 410.931593 
L 262.57681 414.380089 
L 269.576149 416.136071 
L 276.575488 416.136071 
L 283.574826 414.380089 
L 290.574165 410.931593 
L 297.573504 405.915219 
L 304.572843 399.512272 
L 311.572182 391.954171 
L 318.571521 383.514086 
L 325.57086 374.497063 
L 332.570198 365.229002 
L 339.569537 356.044873 
L 346.568876 347.276616 
L 353.568215 339.241138 
L 360.567554 332.228862 
L 367.566893 326.493229 
L 374.566231 322.241542 
L 381.56557 319.627467 
L 388.564909 318.745482 
L 395.564248 319.627467 
L 402.563587 322.241542 
L 409.562926 326.493229 
L 416.562264 332.228862 
L 423.561603 339.241138 
L 430.560942 347.276616 
L 437.560281 356.044873 
L 444.55962 365.229002 
L 451.558959 374.497063 
L 458.558298 383.514086 
L 465.557636 391.954171 
L 472.556975 399.512272 
L 479.556314 405.915219 
L 486.555653 410.931593 
L 493.554992 414.380089 
L 500.554331 416.136071 
L 507.553669 416.136071 
L 514.553008 414.380089 
L 521.552347 410.931593 
L 528.551686 405.915219 
L 535.551025 399.512272 
L 542.550364 391.954171 
L 549.549702 383.514086 
L 556.549041 374.497063 
L 563.54838 365.229002 
L 570.547719 356.044873 
L 577.547058 347.276616 
L 584.546397 339.241138 
L 591.545736 332.228862 
L 598.545074 326.493229 
L 605.544413 322.241542 
L 612.543752 319.627467 
L 619.543091 318.745482 
L 626.54243 319.627467 
L 633.541769 322.241542 
L 640.541107 326.493229 
L 647.540446 332.228862 
L 654.539785 339.241138 
L 661.539124 347.276616 
L 668.538463 356.044873 
L 675.537802 365.229002 
L 682.53714 374.497063 
L 689.536479 383.514086 
L 696.535818 391.954171 
L 703.535157 399.512272 
L 710.534496 405.915219 
L 717.533835 410.931593 
L 724.533174 414.380089 
L 731.532512 416.136071 
L 738.531851 416.136071 
L 745.53119 414.380089 
L 752.530529 410.931593 
L 759.529868 405.915219 
L 766.529207 399.512272 
L 773.528545 391.954171 
L 780.527884 383.514086 
L 787.527223 374.497063 
L 794.526562 365.229002 
L 801.525901 356.044873 
L 808.52524 347.276616 
L 815.524579 339.241138 
L 822.523917 332.228862 
L 829.523256 326.493229 
L 836.522595 322.241542 
L 843.521934 319.627467 
L 850.521273 318.745482 
" clip-path="url(#paf6ceafc89)" style="fill: none; stroke: #ff0000; stroke-width: 1.5; stroke-linecap: square"/>
   </g>
   <g id="patch_15">
    <path d="M 122.94 421.0056 
L 122.94 313.875953 
" style="fill: none; stroke: #000000; stroke-width: 0.8; stroke-linejoin: miter; stroke-linecap: square"/>
   </g>
   <g id="patch_16">
    <path d="M 885.168 421.0056 
L 885.168 313.875953 
" style="fill: none; stroke: #000000; stroke-width: 0.8; stroke-linejoin: miter; stroke-linecap: square"/>
   </g>
   <g id="patch_17">
    <path d="M 122.94 421.0056 
L 885.168 421.0056 
" style="fill: none; stroke: #000000; stroke-width: 0.8; stroke-linejoin: miter; stroke-linecap: square"/>
   </g>
   <g id="patch_18">
    <path d="M 122.94 313.875953 
L 885.168 313.875953 
" style="fill: none; stroke: #000000; stroke-width: 0.8; stroke-linejoin: miter; stroke-linecap: square"/>
   </g>
   <g id="legend_3">
    <g id="patch_19">
     <path d="M 433.350094 351.232203 
L 574.757906 351.232203 
Q 576.757906 351.232203 576.757906 349.232203 
L 576.757906 320.875953 
Q 576.757906 318.875953 574.757906 318.875953 
L 433.350094 318.875953 
Q 431.350094 318.875953 431.350094 320.875953 
L 431.350094 349.232203 
Q 431.350094 351.232203 433.350094 351.232203 
z
" style="fill: #ffffff; opacity: 0.8; stroke: #cccccc; stroke-linejoin: miter"/>
    </g>
    <g id="line2d_83">
     <path d="M 435.350094 326.97439 
L 445.350094 326.97439 
L 455.350094 326.97439 
" style="fill: none; stroke: #0000ff; stroke-width: 1.5; stroke-linecap: square"/>
    </g>
    <g id="text_49">
     <!-- u(t) -->
     <g transform="translate(463.350094 330.47439)scale(0.1 -0.1)">
      <use xlink:href="#DejaVuSans-75"/>
      <use xlink:href="#DejaVuSans-28" x="63.378906"/>
      <use xlink:href="#DejaVuSans-74" x="102.392578"/>
      <use xlink:href="#DejaVuSans-29" x="141.601562"/>
     </g>
    </g>
    <g id="line2d_84">
     <path d="M 435.350094 341.652515 
L 445.350094 341.652515 
L 455.350094 341.652515 
" style="fill: none; stroke: #ff0000; stroke-width: 1.5; stroke-linecap: square"/>
    </g>
    <g id="text_50">
     <!-- e(t)  pour f = 500 kHz -->
     <g transform="translate(463.350094 345.152515)scale(0.1 -0.1)">
      <use xlink:href="#DejaVuSans-65"/>
      <use xlink:href="#DejaVuSans-28" x="61.523438"/>
      <use xlink:href="#DejaVuSans-74" x="100.537109"/>
      <use xlink:href="#DejaVuSans-29" x="139.746094"/>
      <use xlink:href="#DejaVuSans-20" x="178.759766"/>
      <use xlink:href="#DejaVuSans-20" x="210.546875"/>
      <use xlink:href="#DejaVuSans-70" x="242.333984"/>
      <use xlink:href="#DejaVuSans-6f" x="305.810547"/>
      <use xlink:href="#DejaVuSans-75" x="366.992188"/>
      <use xlink:href="#DejaVuSans-72" x="430.371094"/>
      <use xlink:href="#DejaVuSans-20" x="471.484375"/>
      <use xlink:href="#DejaVuSans-66" x="503.271484"/>
      <use xlink:href="#DejaVuSans-20" x="538.476562"/>
      <use xlink:href="#DejaVuSans-3d" x="570.263672"/>
      <use xlink:href="#DejaVuSans-20" x="654.052734"/>
      <use xlink:href="#DejaVuSans-35" x="685.839844"/>
      <use xlink:href="#DejaVuSans-30" x="749.462891"/>
      <use xlink:href="#DejaVuSans-30" x="813.085938"/>
      <use xlink:href="#DejaVuSans-20" x="876.708984"/>
      <use xlink:href="#DejaVuSans-6b" x="908.496094"/>
      <use xlink:href="#DejaVuSans-48" x="966.40625"/>
      <use xlink:href="#DejaVuSans-7a" x="1041.601562"/>
     </g>
    </g>
   </g>
  </g>
 </g>
 <defs>
  <clipPath id="p6357d50937">
   <rect x="122.94" y="56.7648" width="762.228" height="107.129647"/>
  </clipPath>
  <clipPath id="p2c1b7d8a7e">
   <rect x="122.94" y="185.320376" width="762.228" height="107.129647"/>
  </clipPath>
  <clipPath id="paf6ceafc89">
   <rect x="122.94" y="313.875953" width="762.228" height="107.129647"/>
  </clipPath>
 </defs>
</svg>
